SplineFontDB: 3.2
FontName: PixelarRegularW01-Regular
FullName: Pixelar Regular W01 Regular
FamilyName: PixelarRegularW01-Regular
Weight: Book
Version: 1.00
ItalicAngle: 0
UnderlinePosition: -125
UnderlineWidth: 50
Ascent: 800
Descent: 200
InvalidEm: 0
sfntRevision: 0x00010000
LayerCount: 2
Layer: 0 1 "Back" 1
Layer: 1 1 "Fore" 0
XUID: [1021 833 690807294 20530]
StyleMap: 0x0040
FSType: 0
OS2Version: 4
OS2_WeightWidthSlopeOnly: 1
OS2_UseTypoMetrics: 0
CreationTime: 1331312729
ModificationTime: 1644367213
PfmFamily: 81
TTFWeight: 400
TTFWidth: 5
LineGap: 0
VLineGap: 0
Panose: 1 0 0 0 0 0 0 0 0 0
OS2TypoAscent: 786
OS2TypoAOffset: 0
OS2TypoDescent: -143
OS2TypoDOffset: 0
OS2TypoLinegap: 0
OS2WinAscent: 786
OS2WinAOffset: 0
OS2WinDescent: 143
OS2WinDOffset: 0
HheadAscent: 786
HheadAOffset: 0
HheadDescent: -143
HheadDOffset: 0
OS2SubXSize: 700
OS2SubYSize: 650
OS2SubXOff: 0
OS2SubYOff: 140
OS2SupXSize: 700
OS2SupYSize: 650
OS2SupXOff: 0
OS2SupYOff: 477
OS2StrikeYSize: 50
OS2StrikeYPos: 250
OS2CapHeight: 500
OS2XHeight: 357
OS2Vendor: 'pyrs'
OS2CodePages: 00000001.00000000
OS2UnicodeRanges: 80000027.00000040.00000000.00000000
DEI: 91125
TtTable: prep
PUSHB_1
 0
CALL
SVTCA[y-axis]
PUSHB_3
 1
 4
 7
CALL
PUSHB_1
 0
DUP
RCVT
RDTG
ROUND[Black]
RTG
WCVTP
EndTTInstrs
TtTable: fpgm
NPUSHB
 10
 9
 8
 7
 6
 5
 4
 3
 2
 1
 0
FDEF
MPPEM
PUSHB_1
 9
LT
IF
PUSHB_2
 1
 1
INSTCTRL
EIF
PUSHW_1
 511
SCANCTRL
PUSHB_1
 68
SCVTCI
PUSHB_2
 9
 3
SDS
SDB
ENDF
FDEF
DUP
DUP
RCVT
ROUND[Black]
WCVTP
PUSHB_1
 1
ADD
ENDF
FDEF
PUSHB_1
 1
LOOPCALL
POP
ENDF
FDEF
DUP
GC[cur]
PUSHB_1
 3
CINDEX
GC[cur]
GT
IF
SWAP
EIF
DUP
ROLL
DUP
ROLL
MD[grid]
ABS
ROLL
DUP
GC[cur]
DUP
ROUND[Grey]
SUB
ABS
PUSHB_1
 4
CINDEX
GC[cur]
DUP
ROUND[Grey]
SUB
ABS
GT
IF
SWAP
NEG
ROLL
EIF
MDAP[rnd]
DUP
PUSHB_1
 0
GTEQ
IF
ROUND[Black]
DUP
PUSHB_1
 0
EQ
IF
POP
PUSHB_1
 64
EIF
ELSE
ROUND[Black]
DUP
PUSHB_1
 0
EQ
IF
POP
PUSHB_1
 64
NEG
EIF
EIF
MSIRP[no-rp0]
ENDF
FDEF
DUP
GC[cur]
PUSHB_1
 4
CINDEX
GC[cur]
GT
IF
SWAP
ROLL
EIF
DUP
GC[cur]

StartChar: dollar
Encoding: 36 36 3
Width: 490
VWidth: 1187
Flags: W
LayerCount: 2
Fore
SplineSet
312.875 205 m 1,0,-1
 44.125 205 l 1,1,-1
 44.125 295 l 1,2,-1
 312.875 295 l 1,3,-1
 312.875 205 l 1,0,-1
-44.625 -62.5 m 1,4,-1
 -44.625 26.25 l 1,5,-1
 312.875 26.25 l 1,6,-1
 312.875 -62.5 l 1,7,-1
 222.875 -62.5 l 1,8,-1
 222.875 -151.25 l 1,9,-1
 134.125 -151.25 l 1,10,-1
 134.125 -62.5 l 1,11,-1
 -44.625 -62.5 l 1,4,-1
401.625 26.25 m 1,12,-1
 312.875 26.25 l 1,13,-1
 312.875 205 l 1,14,-1
 401.625 205 l 1,15,-1
 401.625 26.25 l 1,12,-1
-44.625 473.75 m 1,16,-1
 44.125 473.75 l 1,17,-1
 44.125 295 l 1,18,-1
 -44.625 295 l 1,19,-1
 -44.625 473.75 l 1,16,-1
401.625 473.75 m 1,20,-1
 44.125 473.75 l 1,21,-1
 44.125 562.5 l 1,22,-1
 134.125 562.5 l 1,23,-1
 134.125 651.25 l 1,24,-1
 222.875 651.25 l 1,25,-1
 222.875 562.5 l 1,26,-1
 401.625 562.5 l 1,27,-1
 401.625 473.75 l 1,20,-1
EndSplineSet
EndChar

StartChar: percent
Encoding: 37 37 4
Width: 892
VWidth: 1178
Flags: W
LayerCount: 2
Fore
SplineSet
178.25 107.375 m 1,0,-1
 178.25 196.125 l 1,1,-1
 268.25 196.125 l 1,2,-1
 268.25 107.375 l 1,3,-1
 178.25 107.375 l 1,0,-1
714.5 642.375 m 1,4,-1
 714.5 553.625 l 1,5,-1
 624.5 553.625 l 1,6,-1
 624.5 642.375 l 1,7,-1
 714.5 642.375 l 1,4,-1
268.25 196.125 m 1,8,-1
 268.25 286.125 l 1,9,-1
 357 286.125 l 1,10,-1
 357 196.125 l 1,11,-1
 268.25 196.125 l 1,8,-1
89.5 17.375 m 1,12,-1
 89.5 107.375 l 1,13,-1
 178.25 107.375 l 1,14,-1
 178.25 17.375 l 1,15,-1
 89.5 17.375 l 1,12,-1
-0.5 -71.375 m 1,16,-1
 -0.5 17.375 l 1,17,-1
 89.5 17.375 l 1,18,-1
 89.5 -71.375 l 1,19,-1
 -0.5 -71.375 l 1,16,-1
357 286.125 m 1,20,-1
 357 374.875 l 1,21,-1
 447 374.875 l 1,22,-1
 447 286.125 l 1,23,-1
 357 286.125 l 1,20,-1
535.75 464.875 m 1,24,-1
 535.75 374.875 l 1,25,-1
 447 374.875 l 1,26,-1
 447 464.875 l 1,27,-1
 535.75 464.875 l 1,24,-1
624.5 553.625 m 1,28,-1
 624.5 464.875 l 1,29,-1
 535.75 464.875 l 1,30,-1
 535.75 553.625 l 1,31,-1
 624.5 553.625 l 1,28,-1
447 196.125 m 1,32,-1
 535.75 196.125 l 1,33,-1
 535.75 17.375 l 1,34,-1
 447 17.375 l 1,35,-1
 447 196.125 l 1,32,-1
535.75 -71.375 m 1,36,-1
 535.75 17.375 l 1,37,-1
 714.5 17.375 l 1,38,-1
 714.5 -71.375 l 1,39,-1
 535.75 -71.375 l 1,36,-1
714.5 196.125 m 1,40,-1
 803.25 196.125 l 1,41,-1
 803.25 17.375 l 1,42,-1
 714.5 17.375 l 1,43,-1
 714.5 196.125 l 1,40,-1
714.5 286.125 m 1,44,-1
 714.5 196.125 l 1,45,-1
 535.75 196.125 l 1,46,-1
 535.75 286.125 l 1,47,-1
 714.5 286.125 l 1,44,-1
-0.5 286.125 m 1,48,-1
 -0.5 374.875 l 1,49,-1
 178.25 374.875 l 1,50,-1
 178.25 286.125 l 1,51,-1
 -0.5 286.125 l 1,48,-1
-0.5 553.625 m 1,52,-1
 -0.5 374.875 l 1,53,-1
 -89.25 374.875 l 1,54,-1
 -89.25 553.625 l 1,55,-1
 -0.5 553.625 l 1,52,-1
268.25 374.875 m 1,56,-1
 178.25 374.875 l 1,57,-1
 178.25 553.625 l 1,58,-1
 268.25 553.625 l 1,59,-1
 268.25 374.875 l 1,56,-1
178.25 642.375 m 1,60,-1
 178.25 553.625 l 1,61,-1
 -0.5 553.625 l 1,62,-1
 -0.5 642.375 l 1,63,-1
 178.25 642.375 l 1,60,-1
EndSplineSet
EndChar

StartChar: ampersand
Encoding: 38 38 5
Width: 651
VWidth: 1187
Flags: W
LayerCount: 2
Fore
SplineSet
-62.5 205 m 1,0,-1
 26.25 205 l 1,1,-1
 26.25 26.25 l 1,2,-1
 -62.5 26.25 l 1,3,-1
 -62.5 205 l 1,0,-1
562.5 205 m 1,4,-1
 383.75 205 l 1,5,-1
 383.75 26.25 l 1,6,-1
 295 26.25 l 1,7,-1
 295 205 l 1,8,-1
 26.25 205 l 1,9,-1
 26.25 295 l 1,10,-1
 295 295 l 1,11,-1
 295 473.75 l 1,12,-1
 383.75 473.75 l 1,13,-1
 383.75 295 l 1,14,-1
 562.5 295 l 1,15,-1
 562.5 205 l 1,4,-1
-62.5 473.75 m 1,16,-1
 26.25 473.75 l 1,17,-1
 26.25 295 l 1,18,-1
 -62.5 295 l 1,19,-1
 -62.5 473.75 l 1,16,-1
295 562.5 m 1,20,-1
 295 473.75 l 1,21,-1
 26.25 473.75 l 1,22,-1
 26.25 562.5 l 1,23,-1
 295 562.5 l 1,20,-1
26.25 -62.5 m 1,24,-1
 26.25 26.25 l 1,25,-1
 295 26.25 l 1,26,-1
 295 -62.5 l 1,27,-1
 26.25 -62.5 l 1,24,-1
562.5 -62.5 m 1,28,-1
 383.75 -62.5 l 1,29,-1
 383.75 26.25 l 1,30,-1
 562.5 26.25 l 1,31,-1
 562.5 -62.5 l 1,28,-1
EndSplineSet
EndChar

StartChar: quotesingle
Encoding: 39 39 6
Width: 168
VWidth: 1142
Flags: W
LayerCount: 2
Fore
SplineSet
79.875 339.125 m 1,0,-1
 -8.875 339.125 l 1,1,-1
 -8.875 517.875 l 1,2,-1
 79.875 517.875 l 1,3,-1
 79.875 339.125 l 1,4,-1
 79.875 339.125 l 1,0,-1
EndSplineSet
EndChar

StartChar: parenleft
Encoding: 40 40 7
Width: 249
VWidth: 1187
Flags: W
LayerCount: 2
Fore
SplineSet
160.875 -151.25 m 1,0,-1
 70.875 -151.25 l 1,1,-1
 70.875 -62.5 l 1,2,-1
 160.875 -62.5 l 1,3,-1
 160.875 -151.25 l 1,0,-1
-17.875 562.5 m 1,4,-1
 70.875 562.5 l 1,5,-1
 70.875 -62.5 l 1,6,-1
 -17.875 -62.5 l 1,7,-1
 -17.875 562.5 l 1,4,-1
160.875 651.25 m 1,8,-1
 160.875 562.5 l 1,9,-1
 70.875 562.5 l 1,10,-1
 70.875 651.25 l 1,11,-1
 160.875 651.25 l 1,8,-1
EndSplineSet
EndChar

StartChar: parenright
Encoding: 41 41 8
Width: 249
VWidth: 1187
Flags: W
LayerCount: 2
Fore
SplineSet
-17.875 -151.25 m 1,0,-1
 -17.875 -62.5 l 1,1,-1
 72.125 -62.5 l 1,2,-1
 72.125 -151.25 l 1,3,-1
 -17.875 -151.25 l 1,4,-1
 -17.875 -151.25 l 1,0,-1
160.875 562.5 m 1,5,-1
 160.875 -62.5 l 1,6,-1
 72.125 -62.5 l 1,7,-1
 72.125 562.5 l 1,8,-1
 160.875 562.5 l 1,9,-1
 160.875 562.5 l 1,5,-1
-17.875 651.25 m 1,10,-1
 72.125 651.25 l 1,11,-1
 72.125 562.5 l 1,12,-1
 -17.875 562.5 l 1,13,-1
 -17.875 651.25 l 1,14,-1
 -17.875 651.25 l 1,10,-1
EndSplineSet
EndChar

StartChar: asterisk
Encoding: 42 42 9
Width: 490
VWidth: 1169
Flags: W
LayerCount: 2
Fore
SplineSet
44.125 544.625 m 1,0,-1
 134.125 544.625 l 1,1,-1
 134.125 455.875 l 1,2,-1
 44.125 455.875 l 1,3,-1
 44.125 544.625 l 1,0,-1
312.875 544.625 m 1,4,-1
 312.875 455.875 l 1,5,-1
 222.875 455.875 l 1,6,-1
 222.875 544.625 l 1,7,-1
 312.875 544.625 l 1,4,-1
44.125 98.375 m 1,8,-1
 44.125 187.125 l 1,9,-1
 134.125 187.125 l 1,10,-1
 134.125 98.375 l 1,11,-1
 44.125 98.375 l 1,8,-1
312.875 98.375 m 1,12,-1
 222.875 98.375 l 1,13,-1
 222.875 187.125 l 1,14,-1
 312.875 187.125 l 1,15,-1
 312.875 98.375 l 1,12,-1
401.625 277.125 m 1,16,-1
 222.875 277.125 l 1,17,-1
 222.875 187.125 l 1,18,-1
 134.125 187.125 l 1,19,-1
 134.125 277.125 l 1,20,-1
 -44.625 277.125 l 1,21,-1
 -44.625 365.875 l 1,22,-1
 134.125 365.875 l 1,23,-1
 134.125 455.875 l 1,24,-1
 222.875 455.875 l 1,25,-1
 222.875 365.875 l 1,26,-1
 401.625 365.875 l 1,27,-1
 401.625 277.125 l 1,16,-1
EndSplineSet
EndChar

StartChar: plus
Encoding: 43 43 10
Width: 490
VWidth: 1205
Flags: W
LayerCount: 2
Fore
SplineSet
401.625 222.875 m 1,0,-1
 401.625 134.125 l 1,1,-1
 222.875 134.125 l 1,2,-1
 222.875 -44.625 l 1,3,-1
 134.125 -44.625 l 1,4,-1
 134.125 134.125 l 1,5,-1
 -44.625 134.125 l 1,6,-1
 -44.625 222.875 l 1,7,-1
 134.125 222.875 l 1,8,-1
 134.125 401.625 l 1,9,-1
 222.875 401.625 l 1,10,-1
 222.875 222.875 l 1,11,-1
 401.625 222.875 l 1,12,-1
 401.625 222.875 l 1,0,-1
EndSplineSet
EndChar

StartChar: comma
Encoding: 44 44 11
Width: 249
VWidth: 1250
Flags: W
LayerCount: 2
Fore
SplineSet
-17.875 -88.75 m 1,0,-1
 -17.875 0 l 1,1,-1
 70.875 0 l 1,2,-1
 70.875 -88.75 l 1,3,-1
 -17.875 -88.75 l 1,0,-1
70.875 88.75 m 1,4,-1
 160.875 88.75 l 1,5,-1
 160.875 0 l 1,6,-1
 70.875 0 l 1,7,-1
 70.875 88.75 l 1,4,-1
EndSplineSet
EndChar

StartChar: hyphen
Encoding: 45 45 12
Width: 410
VWidth: 1205
Flags: W
LayerCount: 2
Fore
SplineSet
321.75 134.125 m 1,0,-1
 -35.75 134.125 l 1,1,-1
 -35.75 222.875 l 1,2,-1
 321.75 222.875 l 1,3,-1
 321.75 134.125 l 1,0,-1
EndSplineSet
EndChar

StartChar: period
Encoding: 46 46 13
Width: 168
VWidth: 1241
Flags: W
LayerCount: 2
Fore
SplineSet
79.875 -8.875 m 1,0,-1
 -8.875 -8.875 l 1,1,-1
 -8.875 79.875 l 1,2,-1
 79.875 79.875 l 1,3,-1
 79.875 -8.875 l 1,4,-1
 79.875 -8.875 l 1,0,-1
EndSplineSet
EndChar

StartChar: slash
Encoding: 47 47 14
Width: 731
VWidth: 1196
Flags: W
LayerCount: 2
Fore
SplineSet
-71.375 -142.375 m 1,0,-1
 -71.375 -53.625 l 1,1,-1
 17.375 -53.625 l 1,2,-1
 17.375 -142.375 l 1,3,-1
 -71.375 -142.375 l 1,0,-1
17.375 -53.625 m 1,4,-1
 17.375 35.125 l 1,5,-1
 107.375 35.125 l 1,6,-1
 107.375 -53.625 l 1,7,-1
 17.375 -53.625 l 1,4,-1
107.375 35.125 m 1,8,-1
 107.375 125.125 l 1,9,-1
 196.125 125.125 l 1,10,-1
 196.125 35.125 l 1,11,-1
 107.375 35.125 l 1,8,-1
196.125 125.125 m 1,12,-1
 196.125 213.875 l 1,13,-1
 286.125 213.875 l 1,14,-1
 286.125 125.125 l 1,15,-1
 196.125 125.125 l 1,12,-1
286.125 213.875 m 1,16,-1
 286.125 303.875 l 1,17,-1
 374.875 303.875 l 1,18,-1
 374.875 213.875 l 1,19,-1
 286.125 213.875 l 1,16,-1
374.875 303.875 m 1,20,-1
 374.875 392.625 l 1,21,-1
 464.875 392.625 l 1,22,-1
 464.875 303.875 l 1,23,-1
 374.875 303.875 l 1,20,-1
464.875 392.625 m 1,24,-1
 464.875 482.625 l 1,25,-1
 553.625 482.625 l 1,26,-1
 553.625 392.625 l 1,27,-1
 464.875 392.625 l 1,24,-1
553.625 571.375 m 1,28,-1
 642.375 571.375 l 1,29,-1
 642.375 482.625 l 1,30,-1
 553.625 482.625 l 1,31,-1
 553.625 571.375 l 1,28,-1
EndSplineSet
EndChar

StartChar: zero
Encoding: 48 48 15
Width: 490
VWidth: 1187
Flags: W
LayerCount: 2
Fore
SplineSet
44.125 -62.5 m 1,0,-1
 44.125 26.25 l 1,1,-1
 312.875 26.25 l 1,2,-1
 312.875 -62.5 l 1,3,-1
 44.125 -62.5 l 1,0,-1
-44.625 473.75 m 1,4,-1
 44.125 473.75 l 1,5,-1
 44.125 26.25 l 1,6,-1
 -44.625 26.25 l 1,7,-1
 -44.625 473.75 l 1,4,-1
312.875 562.5 m 1,8,-1
 312.875 473.75 l 1,9,-1
 44.125 473.75 l 1,10,-1
 44.125 562.5 l 1,11,-1
 312.875 562.5 l 1,8,-1
312.875 473.75 m 1,12,-1
 401.625 473.75 l 1,13,-1
 401.625 26.25 l 1,14,-1
 312.875 26.25 l 1,15,-1
 312.875 473.75 l 1,12,-1
EndSplineSet
EndChar

StartChar: one
Encoding: 49 49 16
Width: 249
VWidth: 1187
Flags: W
LayerCount: 2
Fore
SplineSet
-17.875 562.5 m 1,0,-1
 160.875 562.5 l 1,1,-1
 160.875 -62.5 l 1,2,-1
 70.875 -62.5 l 1,3,-1
 70.875 473.75 l 1,4,-1
 -17.875 473.75 l 1,5,-1
 -17.875 562.5 l 1,6,-1
 -17.875 562.5 l 1,0,-1
EndSplineSet
EndChar

StartChar: two
Encoding: 50 50 17
Width: 490
VWidth: 1187
Flags: W
LayerCount: 2
Fore
SplineSet
-44.625 562.5 m 1,0,-1
 312.875 562.5 l 1,1,-1
 312.875 473.75 l 1,2,-1
 -44.625 473.75 l 1,3,-1
 -44.625 562.5 l 1,0,-1
401.625 473.75 m 1,4,-1
 401.625 295 l 1,5,-1
 312.875 295 l 1,6,-1
 312.875 473.75 l 1,7,-1
 401.625 473.75 l 1,4,-1
312.875 295 m 1,8,-1
 312.875 205 l 1,9,-1
 44.125 205 l 1,10,-1
 44.125 295 l 1,11,-1
 312.875 295 l 1,8,-1
-44.625 205 m 1,12,-1
 44.125 205 l 1,13,-1
 44.125 26.25 l 1,14,-1
 401.625 26.25 l 1,15,-1
 401.625 -62.5 l 1,16,-1
 -44.625 -62.5 l 1,17,-1
 -44.625 205 l 1,12,-1
EndSplineSet
EndChar

StartChar: three
Encoding: 51 51 18
Width: 490
VWidth: 1187
Flags: W
LayerCount: 2
Fore
SplineSet
-44.625 562.5 m 1,0,-1
 312.875 562.5 l 1,1,-1
 312.875 473.75 l 1,2,-1
 -44.625 473.75 l 1,3,-1
 -44.625 562.5 l 1,0,-1
401.625 473.75 m 1,4,-1
 401.625 295 l 1,5,-1
 312.875 295 l 1,6,-1
 312.875 473.75 l 1,7,-1
 401.625 473.75 l 1,4,-1
-44.625 295 m 1,8,-1
 312.875 295 l 1,9,-1
 312.875 205 l 1,10,-1
 -44.625 205 l 1,11,-1
 -44.625 295 l 1,8,-1
401.625 26.25 m 1,12,-1
 312.875 26.25 l 1,13,-1
 312.875 205 l 1,14,-1
 401.625 205 l 1,15,-1
 401.625 26.25 l 1,12,-1
-44.625 -62.5 m 1,16,-1
 -44.625 26.25 l 1,17,-1
 312.875 26.25 l 1,18,-1
 312.875 -62.5 l 1,19,-1
 -44.625 -62.5 l 1,16,-1
EndSplineSet
EndChar

StartChar: four
Encoding: 52 52 19
Width: 490
VWidth: 1187
Flags: W
LayerCount: 2
Fore
SplineSet
-44.625 562.5 m 1,0,-1
 44.125 562.5 l 1,1,-1
 44.125 205 l 1,2,-1
 -44.625 205 l 1,3,-1
 -44.625 562.5 l 1,0,-1
312.875 562.5 m 1,4,-1
 401.625 562.5 l 1,5,-1
 401.625 -62.5 l 1,6,-1
 312.875 -62.5 l 1,7,-1
 312.875 116.25 l 1,8,-1
 44.125 116.25 l 1,9,-1
 44.125 205 l 1,10,-1
 312.875 205 l 1,11,-1
 312.875 562.5 l 1,4,-1
EndSplineSet
EndChar

StartChar: five
Encoding: 53 53 20
Width: 490
VWidth: 1187
Flags: W
LayerCount: 2
Fore
SplineSet
-44.625 -62.5 m 1,0,-1
 -44.625 26.25 l 1,1,-1
 312.875 26.25 l 1,2,-1
 312.875 -62.5 l 1,3,-1
 -44.625 -62.5 l 1,0,-1
401.625 26.25 m 1,4,-1
 312.875 26.25 l 1,5,-1
 312.875 205 l 1,6,-1
 401.625 205 l 1,7,-1
 401.625 26.25 l 1,4,-1
401.625 473.75 m 1,8,-1
 44.125 473.75 l 1,9,-1
 44.125 295 l 1,10,-1
 312.875 295 l 1,11,-1
 312.875 205 l 1,12,-1
 -44.625 205 l 1,13,-1
 -44.625 562.5 l 1,14,-1
 401.625 562.5 l 1,15,-1
 401.625 473.75 l 1,8,-1
EndSplineSet
EndChar

StartChar: six
Encoding: 54 54 21
Width: 490
VWidth: 1187
Flags: W
LayerCount: 2
Fore
SplineSet
-44.625 473.75 m 1,0,-1
 44.125 473.75 l 1,1,-1
 44.125 295 l 1,2,-1
 312.875 295 l 1,3,-1
 312.875 205 l 1,4,-1
 44.125 205 l 1,5,-1
 44.125 26.25 l 1,6,-1
 -44.625 26.25 l 1,7,-1
 -44.625 473.75 l 1,0,-1
44.125 -62.5 m 1,8,-1
 44.125 26.25 l 1,9,-1
 312.875 26.25 l 1,10,-1
 312.875 -62.5 l 1,11,-1
 44.125 -62.5 l 1,8,-1
401.625 26.25 m 1,12,-1
 312.875 26.25 l 1,13,-1
 312.875 205 l 1,14,-1
 401.625 205 l 1,15,-1
 401.625 26.25 l 1,12,-1
312.875 562.5 m 1,16,-1
 312.875 473.75 l 1,17,-1
 44.125 473.75 l 1,18,-1
 44.125 562.5 l 1,19,-1
 312.875 562.5 l 1,16,-1
EndSplineSet
EndChar

StartChar: seven
Encoding: 55 55 22
Width: 490
VWidth: 1187
Flags: W
LayerCount: 2
Fore
SplineSet
-44.625 562.5 m 1,0,-1
 401.625 562.5 l 1,1,-1
 401.625 295 l 1,2,-1
 312.875 295 l 1,3,-1
 312.875 473.75 l 1,4,-1
 -44.625 473.75 l 1,5,-1
 -44.625 562.5 l 1,0,-1
222.875 205 m 1,6,-1
 222.875 295 l 1,7,-1
 312.875 295 l 1,8,-1
 312.875 205 l 1,9,-1
 222.875 205 l 1,6,-1
134.125 -62.5 m 1,10,-1
 134.125 205 l 1,11,-1
 222.875 205 l 1,12,-1
 222.875 -62.5 l 1,13,-1
 134.125 -62.5 l 1,10,-1
EndSplineSet
EndChar

StartChar: eight
Encoding: 56 56 23
Width: 490
VWidth: 1187
Flags: W
LayerCount: 2
Fore
SplineSet
44.125 -62.5 m 1,0,-1
 44.125 26.25 l 1,1,-1
 312.875 26.25 l 1,2,-1
 312.875 -62.5 l 1,3,-1
 44.125 -62.5 l 1,0,-1
-44.625 205 m 1,4,-1
 44.125 205 l 1,5,-1
 44.125 26.25 l 1,6,-1
 -44.625 26.25 l 1,7,-1
 -44.625 205 l 1,4,-1
44.125 295 m 1,8,-1
 312.875 295 l 1,9,-1
 312.875 205 l 1,10,-1
 44.125 205 l 1,11,-1
 44.125 295 l 1,8,-1
401.625 26.25 m 1,12,-1
 312.875 26.25 l 1,13,-1
 312.875 205 l 1,14,-1
 401.625 205 l 1,15,-1
 401.625 26.25 l 1,12,-1
312.875 562.5 m 1,16,-1
 312.875 473.75 l 1,17,-1
 44.125 473.75 l 1,18,-1
 44.125 562.5 l 1,19,-1
 312.875 562.5 l 1,16,-1
-44.625 473.75 m 1,20,-1
 44.125 473.75 l 1,21,-1
 44.125 295 l 1,22,-1
 -44.625 295 l 1,23,-1
 -44.625 473.75 l 1,20,-1
401.625 295 m 1,24,-1
 312.875 295 l 1,25,-1
 312.875 473.75 l 1,26,-1
 401.625 473.75 l 1,27,-1
 401.625 295 l 1,24,-1
EndSplineSet
EndChar

StartChar: nine
Encoding: 57 57 24
Width: 490
VWidth: 1187
Flags: W
LayerCount: 2
Fore
SplineSet
401.625 26.25 m 1,0,-1
 312.875 26.25 l 1,1,-1
 312.875 205 l 1,2,-1
 44.125 205 l 1,3,-1
 44.125 295 l 1,4,-1
 312.875 295 l 1,5,-1
 312.875 473.75 l 1,6,-1
 401.625 473.75 l 1,7,-1
 401.625 26.25 l 1,0,-1
312.875 562.5 m 1,8,-1
 312.875 473.75 l 1,9,-1
 44.125 473.75 l 1,10,-1
 44.125 562.5 l 1,11,-1
 312.875 562.5 l 1,8,-1
-44.625 473.75 m 1,12,-1
 44.125 473.75 l 1,13,-1
 44.125 295 l 1,14,-1
 -44.625 295 l 1,15,-1
 -44.625 473.75 l 1,12,-1
44.125 -62.5 m 1,16,-1
 44.125 26.25 l 1,17,-1
 312.875 26.25 l 1,18,-1
 312.875 -62.5 l 1,19,-1
 44.125 -62.5 l 1,16,-1
EndSplineSet
EndChar

StartChar: colon
Encoding: 58 58 25
Width: 168
VWidth: 1205
Flags: W
LayerCount: 2
Fore
SplineSet
-8.875 -44.625 m 1,0,-1
 -8.875 44.125 l 1,1,-1
 79.875 44.125 l 1,2,-1
 79.875 -44.625 l 1,3,-1
 -8.875 -44.625 l 1,0,-1
-8.875 401.625 m 1,4,-1
 79.875 401.625 l 1,5,-1
 79.875 312.875 l 1,6,-1
 -8.875 312.875 l 1,7,-1
 -8.875 401.625 l 1,4,-1
EndSplineSet
EndChar

StartChar: semicolon
Encoding: 59 59 26
Width: 249
VWidth: 1214
Flags: W
LayerCount: 2
Fore
SplineSet
70.875 -35.75 m 1,0,-1
 70.875 53 l 1,1,-1
 160.875 53 l 1,2,-1
 160.875 -35.75 l 1,3,-1
 70.875 -35.75 l 1,0,-1
-17.875 -124.5 m 1,4,-1
 -17.875 -35.75 l 1,5,-1
 70.875 -35.75 l 1,6,-1
 70.875 -124.5 l 1,7,-1
 -17.875 -124.5 l 1,4,-1
70.875 410.5 m 1,8,-1
 160.875 410.5 l 1,9,-1
 160.875 321.75 l 1,10,-1
 70.875 321.75 l 1,11,-1
 70.875 410.5 l 1,8,-1
EndSplineSet
EndChar

StartChar: less
Encoding: 60 60 27
Width: 410
VWidth: 1187
Flags: W
LayerCount: 2
Fore
SplineSet
-35.75 295 m 1,0,-1
 53 295 l 1,1,-1
 53 205 l 1,2,-1
 -35.75 205 l 1,3,-1
 -35.75 295 l 1,4,-1
 -35.75 295 l 1,0,-1
143 383.75 m 1,5,-1
 143 295 l 1,6,-1
 53 295 l 1,7,-1
 53 383.75 l 1,8,-1
 143 383.75 l 1,9,-1
 143 383.75 l 1,5,-1
231.75 473.75 m 1,10,-1
 231.75 562.5 l 1,11,-1
 321.75 562.5 l 1,12,-1
 321.75 473.75 l 1,13,-1
 231.75 473.75 l 1,14,-1
 231.75 383.75 l 1,15,-1
 143 383.75 l 1,16,-1
 143 473.75 l 1,17,-1
 231.75 473.75 l 1,18,-1
 231.75 473.75 l 1,10,-1
53 205 m 1,19,-1
 143 205 l 1,20,-1
 143 116.25 l 1,21,-1
 53 116.25 l 1,22,-1
 53 205 l 1,23,-1
 53 205 l 1,19,-1
231.75 26.25 m 1,24,-1
 143 26.25 l 1,25,-1
 143 116.25 l 1,26,-1
 231.75 116.25 l 1,27,-1
 231.75 26.25 l 1,28,-1
 321.75 26.25 l 1,29,-1
 321.75 -62.5 l 1,30,-1
 231.75 -62.5 l 1,31,-1
 231.75 26.25 l 1,32,-1
 231.75 26.25 l 1,24,-1
EndSplineSet
EndChar

StartChar: equal
Encoding: 61 61 28
Width: 410
VWidth: 1205
Flags: W
LayerCount: 2
Fore
SplineSet
-35.75 44.125 m 1,0,-1
 -35.75 134.125 l 1,1,-1
 321.75 134.125 l 1,2,-1
 321.75 44.125 l 1,3,-1
 -35.75 44.125 l 1,0,-1
-35.75 312.875 m 1,4,-1
 321.75 312.875 l 1,5,-1
 321.75 222.875 l 1,6,-1
 -35.75 222.875 l 1,7,-1
 -35.75 312.875 l 1,4,-1
EndSplineSet
EndChar

StartChar: greater
Encoding: 62 62 29
Width: 410
VWidth: 1187
Flags: W
LayerCount: 2
Fore
SplineSet
321.75 295 m 1,0,-1
 321.75 205 l 1,1,-1
 231.75 205 l 1,2,-1
 231.75 295 l 1,3,-1
 321.75 295 l 1,0,-1
143 383.75 m 1,4,-1
 231.75 383.75 l 1,5,-1
 231.75 295 l 1,6,-1
 143 295 l 1,7,-1
 143 383.75 l 1,4,-1
53 473.75 m 1,8,-1
 143 473.75 l 1,9,-1
 143 383.75 l 1,10,-1
 53 383.75 l 1,11,-1
 53 473.75 l 1,12,-1
 -35.75 473.75 l 1,13,-1
 -35.75 562.5 l 1,14,-1
 53 562.5 l 1,15,-1
 53 473.75 l 1,8,-1
231.75 205 m 1,16,-1
 231.75 116.25 l 1,17,-1
 143 116.25 l 1,18,-1
 143 205 l 1,19,-1
 231.75 205 l 1,16,-1
53 26.25 m 1,20,-1
 53 -62.5 l 1,21,-1
 -35.75 -62.5 l 1,22,-1
 -35.75 26.25 l 1,23,-1
 53 26.25 l 1,24,-1
 53 116.25 l 1,25,-1
 143 116.25 l 1,26,-1
 143 26.25 l 1,27,-1
 53 26.25 l 1,20,-1
EndSplineSet
EndChar

StartChar: question
Encoding: 63 63 30
Width: 490
VWidth: 1187
Flags: W
LayerCount: 2
Fore
SplineSet
134.125 -63.5 m 1,0,-1
 134.125 26.5 l 1,1,-1
 222.875 26.5 l 1,2,-1
 222.875 -63.5 l 1,3,-1
 134.125 -63.5 l 1,0,-1
134.125 115.25 m 1,4,-1
 134.125 204 l 1,5,-1
 222.875 204 l 1,6,-1
 222.875 115.25 l 1,7,-1
 134.125 115.25 l 1,4,-1
222.875 204 m 1,8,-1
 222.875 294 l 1,9,-1
 312.875 294 l 1,10,-1
 312.875 204 l 1,11,-1
 222.875 204 l 1,8,-1
312.875 472.75 m 1,12,-1
 401.625 472.75 l 1,13,-1
 401.625 294 l 1,14,-1
 312.875 294 l 1,15,-1
 312.875 472.75 l 1,12,-1
44.125 561.5 m 1,16,-1
 312.875 561.5 l 1,17,-1
 312.875 472.75 l 1,18,-1
 44.125 472.75 l 1,19,-1
 44.125 561.5 l 1,16,-1
-44.625 382.75 m 1,20,-1
 -44.625 472.75 l 1,21,-1
 44.125 472.75 l 1,22,-1
 44.125 382.75 l 1,23,-1
 -44.625 382.75 l 1,20,-1
EndSplineSet
EndChar

StartChar: at
Encoding: 64 64 31
Width: 651
VWidth: 1223
Flags: W
LayerCount: 2
Fore
SplineSet
116.25 152 m 1,0,-1
 205 152 l 1,1,-1
 205 62 l 1,2,-1
 116.25 62 l 1,3,-1
 116.25 152 l 1,0,-1
473.75 330.75 m 1,4,-1
 562.5 330.75 l 1,5,-1
 562.5 -26.75 l 1,6,-1
 205 -26.75 l 1,7,-1
 205 62 l 1,8,-1
 473.75 62 l 1,9,-1
 473.75 152 l 1,10,-1
 205 152 l 1,11,-1
 205 240.75 l 1,12,-1
 473.75 240.75 l 1,13,-1
 473.75 330.75 l 1,4,-1
26.25 419.5 m 1,14,-1
 473.75 419.5 l 1,15,-1
 473.75 330.75 l 1,16,-1
 26.25 330.75 l 1,17,-1
 26.25 419.5 l 1,14,-1
-62.5 -115.5 m 1,18,-1
 -62.5 330.75 l 1,19,-1
 26.25 330.75 l 1,20,-1
 26.25 -115.5 l 1,21,-1
 -62.5 -115.5 l 1,18,-1
473.75 -205.5 m 1,22,-1
 26.25 -205.5 l 1,23,-1
 26.25 -115.5 l 1,24,-1
 473.75 -115.5 l 1,25,-1
 473.75 -205.5 l 1,22,-1
EndSplineSet
EndChar

StartChar: A
Encoding: 65 65 32
Width: 490
VWidth: 1187
Flags: W
LayerCount: 2
Fore
SplineSet
312.875 562.5 m 1,0,-1
 312.875 473.75 l 1,1,-1
 44.125 473.75 l 1,2,-1
 44.125 562.5 l 1,3,-1
 312.875 562.5 l 1,0,-1
312.875 473.75 m 1,4,-1
 401.625 473.75 l 1,5,-1
 401.625 -62.5 l 1,6,-1
 312.875 -62.5 l 1,7,-1
 312.875 205 l 1,8,-1
 44.125 205 l 1,9,-1
 44.125 -62.5 l 1,10,-1
 -44.625 -62.5 l 1,11,-1
 -44.625 473.75 l 1,12,-1
 44.125 473.75 l 1,13,-1
 44.125 295 l 1,14,-1
 312.875 295 l 1,15,-1
 312.875 473.75 l 1,4,-1
EndSplineSet
EndChar

StartChar: B
Encoding: 66 66 33
Width: 490
VWidth: 1187
Flags: W
LayerCount: 2
Fore
SplineSet
401.625 295 m 1,0,-1
 312.875 295 l 1,1,-1
 312.875 473.75 l 1,2,-1
 401.625 473.75 l 1,3,-1
 401.625 295 l 1,0,-1
44.125 295 m 1,4,-1
 312.875 295 l 1,5,-1
 312.875 205 l 1,6,-1
 44.125 205 l 1,7,-1
 44.125 26.25 l 1,8,-1
 312.875 26.25 l 1,9,-1
 312.875 -62.5 l 1,10,-1
 -44.625 -62.5 l 1,11,-1
 -44.625 562.5 l 1,12,-1
 312.875 562.5 l 1,13,-1
 312.875 473.75 l 1,14,-1
 44.125 473.75 l 1,15,-1
 44.125 295 l 1,4,-1
401.625 26.25 m 1,16,-1
 312.875 26.25 l 1,17,-1
 312.875 205 l 1,18,-1
 401.625 205 l 1,19,-1
 401.625 26.25 l 1,16,-1
EndSplineSet
EndChar

StartChar: C
Encoding: 67 67 34
Width: 490
VWidth: 1187
Flags: W
LayerCount: 2
Fore
SplineSet
401.625 -62.5 m 1,0,-1
 44.125 -62.5 l 1,1,-1
 44.125 26.25 l 1,2,-1
 401.625 26.25 l 1,3,-1
 401.625 -62.5 l 1,0,-1
-44.625 473.75 m 1,4,-1
 44.125 473.75 l 1,5,-1
 44.125 26.25 l 1,6,-1
 -44.625 26.25 l 1,7,-1
 -44.625 473.75 l 1,4,-1
401.625 562.5 m 1,8,-1
 401.625 473.75 l 1,9,-1
 44.125 473.75 l 1,10,-1
 44.125 562.5 l 1,11,-1
 401.625 562.5 l 1,8,-1
EndSplineSet
EndChar

StartChar: D
Encoding: 68 68 35
Width: 490
VWidth: 1187
Flags: W
LayerCount: 2
Fore
SplineSet
44.125 473.75 m 1,0,-1
 44.125 26.25 l 1,1,-1
 312.875 26.25 l 1,2,-1
 312.875 -62.5 l 1,3,-1
 -44.625 -62.5 l 1,4,-1
 -44.625 562.5 l 1,5,-1
 312.875 562.5 l 1,6,-1
 312.875 473.75 l 1,7,-1
 44.125 473.75 l 1,0,-1
312.875 473.75 m 1,8,-1
 401.625 473.75 l 1,9,-1
 401.625 26.25 l 1,10,-1
 312.875 26.25 l 1,11,-1
 312.875 473.75 l 1,8,-1
EndSplineSet
EndChar

StartChar: E
Encoding: 69 69 36
Width: 490
VWidth: 1187
Flags: W
LayerCount: 2
Fore
SplineSet
401.625 473.75 m 1,0,-1
 44.125 473.75 l 1,1,-1
 44.125 295 l 1,2,-1
 401.625 295 l 1,3,-1
 401.625 205 l 1,4,-1
 44.125 205 l 1,5,-1
 44.125 26.25 l 1,6,-1
 401.625 26.25 l 1,7,-1
 401.625 -62.5 l 1,8,-1
 -44.625 -62.5 l 1,9,-1
 -44.625 562.5 l 1,10,-1
 401.625 562.5 l 1,11,-1
 401.625 473.75 l 1,12,-1
 401.625 473.75 l 1,0,-1
EndSplineSet
EndChar

StartChar: F
Encoding: 70 70 37
Width: 490
VWidth: 1187
Flags: W
LayerCount: 2
Fore
SplineSet
401.625 473.75 m 1,0,-1
 44.125 473.75 l 1,1,-1
 44.125 295 l 1,2,-1
 401.625 295 l 1,3,-1
 401.625 205 l 1,4,-1
 44.125 205 l 1,5,-1
 44.125 -62.5 l 1,6,-1
 -44.625 -62.5 l 1,7,-1
 -44.625 562.5 l 1,8,-1
 401.625 562.5 l 1,9,-1
 401.625 473.75 l 1,10,-1
 401.625 473.75 l 1,0,-1
EndSplineSet
EndChar

StartChar: G
Encoding: 71 71 38
Width: 490
VWidth: 1187
Flags: W
LayerCount: 2
Fore
SplineSet
401.625 -62.5 m 1,0,-1
 44.125 -62.5 l 1,1,-1
 44.125 26.25 l 1,2,-1
 312.875 26.25 l 1,3,-1
 312.875 295 l 1,4,-1
 401.625 295 l 1,5,-1
 401.625 -62.5 l 1,0,-1
-44.625 473.75 m 1,6,-1
 44.125 473.75 l 1,7,-1
 44.125 26.25 l 1,8,-1
 -44.625 26.25 l 1,9,-1
 -44.625 473.75 l 1,6,-1
401.625 562.5 m 1,10,-1
 401.625 473.75 l 1,11,-1
 44.125 473.75 l 1,12,-1
 44.125 562.5 l 1,13,-1
 401.625 562.5 l 1,10,-1
EndSplineSet
EndChar

StartChar: H
Encoding: 72 72 39
Width: 490
VWidth: 1187
Flags: W
LayerCount: 2
Fore
SplineSet
312.875 562.5 m 1,0,-1
 401.625 562.5 l 1,1,-1
 401.625 -62.5 l 1,2,-1
 312.875 -62.5 l 1,3,-1
 312.875 205 l 1,4,-1
 44.125 205 l 1,5,-1
 44.125 -62.5 l 1,6,-1
 -44.625 -62.5 l 1,7,-1
 -44.625 562.5 l 1,8,-1
 44.125 562.5 l 1,9,-1
 44.125 295 l 1,10,-1
 312.875 295 l 1,11,-1
 312.875 562.5 l 1,12,-1
 312.875 562.5 l 1,0,-1
EndSplineSet
EndChar

StartChar: I
Encoding: 73 73 40
Width: 329
VWidth: 1187
Flags: W
LayerCount: 2
Fore
SplineSet
240.75 473.75 m 1,0,-1
 152 473.75 l 1,1,-1
 152 26.25 l 1,2,-1
 240.75 26.25 l 1,3,-1
 240.75 -62.5 l 1,4,-1
 -26.75 -62.5 l 1,5,-1
 -26.75 26.25 l 1,6,-1
 62 26.25 l 1,7,-1
 62 473.75 l 1,8,-1
 -26.75 473.75 l 1,9,-1
 -26.75 562.5 l 1,10,-1
 240.75 562.5 l 1,11,-1
 240.75 473.75 l 1,12,-1
 240.75 473.75 l 1,0,-1
EndSplineSet
EndChar

StartChar: J
Encoding: 74 74 41
Width: 490
VWidth: 1187
Flags: W
LayerCount: 2
Fore
SplineSet
-44.625 205 m 1,0,-1
 44.125 205 l 1,1,-1
 44.125 26.25 l 1,2,-1
 -44.625 26.25 l 1,3,-1
 -44.625 205 l 1,0,-1
44.125 -62.5 m 1,4,-1
 44.125 26.25 l 1,5,-1
 312.875 26.25 l 1,6,-1
 312.875 -62.5 l 1,7,-1
 44.125 -62.5 l 1,4,-1
134.125 562.5 m 1,8,-1
 401.625 562.5 l 1,9,-1
 401.625 26.25 l 1,10,-1
 312.875 26.25 l 1,11,-1
 312.875 473.75 l 1,12,-1
 134.125 473.75 l 1,13,-1
 134.125 562.5 l 1,8,-1
EndSplineSet
EndChar

StartChar: K
Encoding: 75 75 42
Width: 490
VWidth: 1187
Flags: W
LayerCount: 2
Fore
SplineSet
44.125 295 m 1,0,-1
 134.125 295 l 1,1,-1
 134.125 205 l 1,2,-1
 44.125 205 l 1,3,-1
 44.125 -62.5 l 1,4,-1
 -44.625 -62.5 l 1,5,-1
 -44.625 562.5 l 1,6,-1
 44.125 562.5 l 1,7,-1
 44.125 295 l 1,0,-1
222.875 383.75 m 1,8,-1
 222.875 295 l 1,9,-1
 134.125 295 l 1,10,-1
 134.125 383.75 l 1,11,-1
 222.875 383.75 l 1,8,-1
312.875 473.75 m 1,12,-1
 312.875 383.75 l 1,13,-1
 222.875 383.75 l 1,14,-1
 222.875 473.75 l 1,15,-1
 312.875 473.75 l 1,12,-1
401.625 562.5 m 1,16,-1
 401.625 473.75 l 1,17,-1
 312.875 473.75 l 1,18,-1
 312.875 562.5 l 1,19,-1
 401.625 562.5 l 1,16,-1
222.875 116.25 m 1,20,-1
 134.125 116.25 l 1,21,-1
 134.125 205 l 1,22,-1
 222.875 205 l 1,23,-1
 222.875 116.25 l 1,20,-1
312.875 26.25 m 1,24,-1
 222.875 26.25 l 1,25,-1
 222.875 116.25 l 1,26,-1
 312.875 116.25 l 1,27,-1
 312.875 26.25 l 1,24,-1
401.625 -62.5 m 1,28,-1
 312.875 -62.5 l 1,29,-1
 312.875 26.25 l 1,30,-1
 401.625 26.25 l 1,31,-1
 401.625 -62.5 l 1,28,-1
EndSplineSet
EndChar

StartChar: L
Encoding: 76 76 43
Width: 490
VWidth: 1187
Flags: W
LayerCount: 2
Fore
SplineSet
44.125 26.25 m 1,0,-1
 401.625 26.25 l 1,1,-1
 401.625 -62.5 l 1,2,-1
 -44.625 -62.5 l 1,3,-1
 -44.625 562.5 l 1,4,-1
 44.125 562.5 l 1,5,-1
 44.125 26.25 l 1,6,-1
 44.125 26.25 l 1,0,-1
EndSplineSet
EndChar

StartChar: M
Encoding: 77 77 44
Width: 651
VWidth: 1187
Flags: W
LayerCount: 2
Fore
SplineSet
26.25 473.75 m 1,0,-1
 116.25 473.75 l 1,1,-1
 116.25 383.75 l 1,2,-1
 26.25 383.75 l 1,3,-1
 26.25 -62.5 l 1,4,-1
 -62.5 -62.5 l 1,5,-1
 -62.5 562.5 l 1,6,-1
 26.25 562.5 l 1,7,-1
 26.25 473.75 l 1,0,-1
116.25 383.75 m 1,8,-1
 205 383.75 l 1,9,-1
 205 295 l 1,10,-1
 116.25 295 l 1,11,-1
 116.25 383.75 l 1,8,-1
205 205 m 1,12,-1
 205 295 l 1,13,-1
 295 295 l 1,14,-1
 295 205 l 1,15,-1
 205 205 l 1,12,-1
295 295 m 1,16,-1
 295 383.75 l 1,17,-1
 383.75 383.75 l 1,18,-1
 383.75 295 l 1,19,-1
 295 295 l 1,16,-1
473.75 562.5 m 1,20,-1
 562.5 562.5 l 1,21,-1
 562.5 -62.5 l 1,22,-1
 473.75 -62.5 l 1,23,-1
 473.75 383.75 l 1,24,-1
 383.75 383.75 l 1,25,-1
 383.75 473.75 l 1,26,-1
 473.75 473.75 l 1,27,-1
 473.75 562.5 l 1,20,-1
EndSplineSet
EndChar

StartChar: N
Encoding: 78 78 45
Width: 490
VWidth: 1187
Flags: W
LayerCount: 2
Fore
SplineSet
44.125 383.75 m 1,0,-1
 134.125 383.75 l 1,1,-1
 134.125 295 l 1,2,-1
 44.125 295 l 1,3,-1
 44.125 -62.5 l 1,4,-1
 -44.625 -62.5 l 1,5,-1
 -44.625 562.5 l 1,6,-1
 44.125 562.5 l 1,7,-1
 44.125 383.75 l 1,0,-1
134.125 295 m 1,8,-1
 222.875 295 l 1,9,-1
 222.875 205 l 1,10,-1
 134.125 205 l 1,11,-1
 134.125 295 l 1,8,-1
312.875 562.5 m 1,12,-1
 401.625 562.5 l 1,13,-1
 401.625 -62.5 l 1,14,-1
 312.875 -62.5 l 1,15,-1
 312.875 116.25 l 1,16,-1
 222.875 116.25 l 1,17,-1
 222.875 205 l 1,18,-1
 312.875 205 l 1,19,-1
 312.875 562.5 l 1,12,-1
EndSplineSet
EndChar

StartChar: O
Encoding: 79 79 46
Width: 490
VWidth: 1187
Flags: W
LayerCount: 2
Fore
SplineSet
44.125 -62.5 m 1,0,-1
 44.125 26.25 l 1,1,-1
 312.875 26.25 l 1,2,-1
 312.875 -62.5 l 1,3,-1
 44.125 -62.5 l 1,0,-1
-44.625 473.75 m 1,4,-1
 44.125 473.75 l 1,5,-1
 44.125 26.25 l 1,6,-1
 -44.625 26.25 l 1,7,-1
 -44.625 473.75 l 1,4,-1
312.875 562.5 m 1,8,-1
 312.875 473.75 l 1,9,-1
 44.125 473.75 l 1,10,-1
 44.125 562.5 l 1,11,-1
 312.875 562.5 l 1,8,-1
312.875 473.75 m 1,12,-1
 401.625 473.75 l 1,13,-1
 401.625 26.25 l 1,14,-1
 312.875 26.25 l 1,15,-1
 312.875 473.75 l 1,12,-1
EndSplineSet
EndChar

StartChar: P
Encoding: 80 80 47
Width: 490
VWidth: 1187
Flags: W
LayerCount: 2
Fore
SplineSet
44.125 473.75 m 1,0,-1
 44.125 295 l 1,1,-1
 312.875 295 l 1,2,-1
 312.875 205 l 1,3,-1
 44.125 205 l 1,4,-1
 44.125 -62.5 l 1,5,-1
 -44.625 -62.5 l 1,6,-1
 -44.625 562.5 l 1,7,-1
 312.875 562.5 l 1,8,-1
 312.875 473.75 l 1,9,-1
 44.125 473.75 l 1,0,-1
312.875 473.75 m 1,10,-1
 401.625 473.75 l 1,11,-1
 401.625 295 l 1,12,-1
 312.875 295 l 1,13,-1
 312.875 473.75 l 1,10,-1
EndSplineSet
EndChar

StartChar: Q
Encoding: 81 81 48
Width: 490
VWidth: 1196
Flags: W
LayerCount: 2
Fore
SplineSet
312.875 571.375 m 1,0,-1
 312.875 482.625 l 1,1,-1
 44.125 482.625 l 1,2,-1
 44.125 571.375 l 1,3,-1
 312.875 571.375 l 1,0,-1
-44.625 482.625 m 1,4,-1
 44.125 482.625 l 1,5,-1
 44.125 35.125 l 1,6,-1
 -44.625 35.125 l 1,7,-1
 -44.625 482.625 l 1,4,-1
44.125 35.125 m 1,8,-1
 312.875 35.125 l 1,9,-1
 312.875 -53.625 l 1,10,-1
 401.625 -53.625 l 1,11,-1
 401.625 -142.375 l 1,12,-1
 312.875 -142.375 l 1,13,-1
 312.875 -53.625 l 1,14,-1
 44.125 -53.625 l 1,15,-1
 44.125 35.125 l 1,8,-1
401.625 35.125 m 1,16,-1
 312.875 35.125 l 1,17,-1
 312.875 482.625 l 1,18,-1
 401.625 482.625 l 1,19,-1
 401.625 35.125 l 1,16,-1
EndSplineSet
EndChar

StartChar: R
Encoding: 82 82 49
Width: 490
VWidth: 1187
Flags: W
LayerCount: 2
Fore
SplineSet
401.625 295 m 1,0,-1
 312.875 295 l 1,1,-1
 312.875 473.75 l 1,2,-1
 401.625 473.75 l 1,3,-1
 401.625 295 l 1,0,-1
44.125 295 m 1,4,-1
 312.875 295 l 1,5,-1
 312.875 205 l 1,6,-1
 401.625 205 l 1,7,-1
 401.625 -62.5 l 1,8,-1
 312.875 -62.5 l 1,9,-1
 312.875 205 l 1,10,-1
 44.125 205 l 1,11,-1
 44.125 -62.5 l 1,12,-1
 -44.625 -62.5 l 1,13,-1
 -44.625 562.5 l 1,14,-1
 312.875 562.5 l 1,15,-1
 312.875 473.75 l 1,16,-1
 44.125 473.75 l 1,17,-1
 44.125 295 l 1,4,-1
EndSplineSet
EndChar

StartChar: S
Encoding: 83 83 50
Width: 490
VWidth: 1187
Flags: W
LayerCount: 2
Fore
SplineSet
-44.625 -62.5 m 1,0,-1
 -44.625 26.25 l 1,1,-1
 312.875 26.25 l 1,2,-1
 312.875 -62.5 l 1,3,-1
 -44.625 -62.5 l 1,0,-1
401.625 26.25 m 1,4,-1
 312.875 26.25 l 1,5,-1
 312.875 205 l 1,6,-1
 401.625 205 l 1,7,-1
 401.625 26.25 l 1,4,-1
312.875 205 m 1,8,-1
 44.125 205 l 1,9,-1
 44.125 295 l 1,10,-1
 312.875 295 l 1,11,-1
 312.875 205 l 1,8,-1
-44.625 473.75 m 1,12,-1
 44.125 473.75 l 1,13,-1
 44.125 295 l 1,14,-1
 -44.625 295 l 1,15,-1
 -44.625 473.75 l 1,12,-1
401.625 562.5 m 1,16,-1
 401.625 473.75 l 1,17,-1
 44.125 473.75 l 1,18,-1
 44.125 562.5 l 1,19,-1
 401.625 562.5 l 1,16,-1
EndSplineSet
EndChar

StartChar: T
Encoding: 84 84 51
Width: 490
VWidth: 1187
Flags: W
LayerCount: 2
Fore
SplineSet
401.625 562.5 m 1,0,-1
 401.625 473.75 l 1,1,-1
 222.875 473.75 l 1,2,-1
 222.875 -62.5 l 1,3,-1
 134.125 -62.5 l 1,4,-1
 134.125 473.75 l 1,5,-1
 -44.625 473.75 l 1,6,-1
 -44.625 562.5 l 1,7,-1
 401.625 562.5 l 1,8,-1
 401.625 562.5 l 1,0,-1
EndSplineSet
EndChar

StartChar: U
Encoding: 85 85 52
Width: 490
VWidth: 1187
Flags: W
LayerCount: 2
Fore
SplineSet
44.125 -62.5 m 1,0,-1
 44.125 26.25 l 1,1,-1
 312.875 26.25 l 1,2,-1
 312.875 -62.5 l 1,3,-1
 44.125 -62.5 l 1,0,-1
-44.625 562.5 m 1,4,-1
 44.125 562.5 l 1,5,-1
 44.125 26.25 l 1,6,-1
 -44.625 26.25 l 1,7,-1
 -44.625 562.5 l 1,4,-1
312.875 562.5 m 1,8,-1
 401.625 562.5 l 1,9,-1
 401.625 26.25 l 1,10,-1
 312.875 26.25 l 1,11,-1
 312.875 562.5 l 1,8,-1
EndSplineSet
EndChar

StartChar: V
Encoding: 86 86 53
Width: 490
VWidth: 1187
Flags: W
LayerCount: 2
Fore
SplineSet
134.125 116.25 m 1,0,-1
 134.125 26.25 l 1,1,-1
 222.875 26.25 l 1,2,-1
 222.875 -62.5 l 1,3,-1
 134.125 -62.5 l 1,4,-1
 134.125 26.25 l 1,5,-1
 44.125 26.25 l 1,6,-1
 44.125 116.25 l 1,7,-1
 134.125 116.25 l 1,0,-1
222.875 26.25 m 1,8,-1
 222.875 116.25 l 1,9,-1
 312.875 116.25 l 1,10,-1
 312.875 26.25 l 1,11,-1
 222.875 26.25 l 1,8,-1
-44.625 562.5 m 1,12,-1
 44.125 562.5 l 1,13,-1
 44.125 116.25 l 1,14,-1
 -44.625 116.25 l 1,15,-1
 -44.625 562.5 l 1,12,-1
312.875 562.5 m 1,16,-1
 401.625 562.5 l 1,17,-1
 401.625 116.25 l 1,18,-1
 312.875 116.25 l 1,19,-1
 312.875 562.5 l 1,16,-1
EndSplineSet
EndChar

StartChar: W
Encoding: 87 87 54
Width: 651
VWidth: 1187
Flags: W
LayerCount: 2
Fore
SplineSet
-62.5 562.5 m 1,0,-1
 26.25 562.5 l 1,1,-1
 26.25 26.25 l 1,2,-1
 -62.5 26.25 l 1,3,-1
 -62.5 562.5 l 1,0,-1
26.25 -62.5 m 1,4,-1
 26.25 26.25 l 1,5,-1
 116.25 26.25 l 1,6,-1
 116.25 -62.5 l 1,7,-1
 26.25 -62.5 l 1,4,-1
116.25 26.25 m 1,8,-1
 116.25 116.25 l 1,9,-1
 205 116.25 l 1,10,-1
 205 26.25 l 1,11,-1
 116.25 26.25 l 1,8,-1
205 205 m 1,12,-1
 295 205 l 1,13,-1
 295 116.25 l 1,14,-1
 205 116.25 l 1,15,-1
 205 205 l 1,12,-1
295 116.25 m 1,16,-1
 383.75 116.25 l 1,17,-1
 383.75 26.25 l 1,18,-1
 295 26.25 l 1,19,-1
 295 116.25 l 1,16,-1
383.75 -62.5 m 1,20,-1
 383.75 26.25 l 1,21,-1
 473.75 26.25 l 1,22,-1
 473.75 -62.5 l 1,23,-1
 383.75 -62.5 l 1,20,-1
473.75 562.5 m 1,24,-1
 562.5 562.5 l 1,25,-1
 562.5 26.25 l 1,26,-1
 473.75 26.25 l 1,27,-1
 473.75 562.5 l 1,24,-1
EndSplineSet
EndChar

StartChar: X
Encoding: 88 88 55
Width: 490
VWidth: 1187
Flags: W
LayerCount: 2
Fore
SplineSet
-44.625 -62.5 m 1,0,-1
 -44.625 116.25 l 1,1,-1
 44.125 116.25 l 1,2,-1
 44.125 -62.5 l 1,3,-1
 -44.625 -62.5 l 1,0,-1
44.125 116.25 m 1,4,-1
 44.125 205 l 1,5,-1
 134.125 205 l 1,6,-1
 134.125 116.25 l 1,7,-1
 44.125 116.25 l 1,4,-1
134.125 295 m 1,8,-1
 222.875 295 l 1,9,-1
 222.875 205 l 1,10,-1
 134.125 205 l 1,11,-1
 134.125 295 l 1,8,-1
312.875 116.25 m 1,12,-1
 222.875 116.25 l 1,13,-1
 222.875 205 l 1,14,-1
 312.875 205 l 1,15,-1
 312.875 116.25 l 1,12,-1
401.625 -62.5 m 1,16,-1
 312.875 -62.5 l 1,17,-1
 312.875 116.25 l 1,18,-1
 401.625 116.25 l 1,19,-1
 401.625 -62.5 l 1,16,-1
44.125 383.75 m 1,20,-1
 134.125 383.75 l 1,21,-1
 134.125 295 l 1,22,-1
 44.125 295 l 1,23,-1
 44.125 383.75 l 1,20,-1
-44.625 562.5 m 1,24,-1
 44.125 562.5 l 1,25,-1
 44.125 383.75 l 1,26,-1
 -44.625 383.75 l 1,27,-1
 -44.625 562.5 l 1,24,-1
312.875 383.75 m 1,28,-1
 312.875 295 l 1,29,-1
 222.875 295 l 1,30,-1
 222.875 383.75 l 1,31,-1
 312.875 383.75 l 1,28,-1
401.625 562.5 m 1,32,-1
 401.625 383.75 l 1,33,-1
 312.875 383.75 l 1,34,-1
 312.875 562.5 l 1,35,-1
 401.625 562.5 l 1,32,-1
EndSplineSet
EndChar

StartChar: Y
Encoding: 89 89 56
Width: 490
VWidth: 1187
Flags: W
LayerCount: 2
Fore
SplineSet
134.125 -62.5 m 1,0,-1
 134.125 205 l 1,1,-1
 222.875 205 l 1,2,-1
 222.875 -62.5 l 1,3,-1
 134.125 -62.5 l 1,0,-1
44.125 295 m 1,4,-1
 134.125 295 l 1,5,-1
 134.125 205 l 1,6,-1
 44.125 205 l 1,7,-1
 44.125 295 l 1,4,-1
-44.625 562.5 m 1,8,-1
 44.125 562.5 l 1,9,-1
 44.125 295 l 1,10,-1
 -44.625 295 l 1,11,-1
 -44.625 562.5 l 1,8,-1
222.875 205 m 1,12,-1
 222.875 295 l 1,13,-1
 312.875 295 l 1,14,-1
 312.875 205 l 1,15,-1
 222.875 205 l 1,12,-1
312.875 562.5 m 1,16,-1
 401.625 562.5 l 1,17,-1
 401.625 295 l 1,18,-1
 312.875 295 l 1,19,-1
 312.875 562.5 l 1,16,-1
EndSplineSet
EndChar

StartChar: Z
Encoding: 90 90 57
Width: 490
VWidth: 1187
Flags: W
LayerCount: 2
Fore
SplineSet
-44.625 -62.5 m 1,0,-1
 -44.625 116.25 l 1,1,-1
 44.125 116.25 l 1,2,-1
 44.125 26.25 l 1,3,-1
 401.625 26.25 l 1,4,-1
 401.625 -62.5 l 1,5,-1
 -44.625 -62.5 l 1,0,-1
44.125 116.25 m 1,6,-1
 44.125 205 l 1,7,-1
 134.125 205 l 1,8,-1
 134.125 116.25 l 1,9,-1
 44.125 116.25 l 1,6,-1
134.125 205 m 1,10,-1
 134.125 295 l 1,11,-1
 222.875 295 l 1,12,-1
 222.875 205 l 1,13,-1
 134.125 205 l 1,10,-1
222.875 295 m 1,14,-1
 222.875 383.75 l 1,15,-1
 312.875 383.75 l 1,16,-1
 312.875 295 l 1,17,-1
 222.875 295 l 1,14,-1
-44.625 562.5 m 1,18,-1
 401.625 562.5 l 1,19,-1
 401.625 383.75 l 1,20,-1
 312.875 383.75 l 1,21,-1
 312.875 473.75 l 1,22,-1
 -44.625 473.75 l 1,23,-1
 -44.625 562.5 l 1,18,-1
EndSplineSet
EndChar

StartChar: bracketleft
Encoding: 91 91 58
Width: 249
VWidth: 1187
Flags: W
LayerCount: 2
Fore
SplineSet
160.875 -151.25 m 1,0,-1
 -17.875 -151.25 l 1,1,-1
 -17.875 651.25 l 1,2,-1
 160.875 651.25 l 1,3,-1
 160.875 562.5 l 1,4,-1
 70.875 562.5 l 1,5,-1
 70.875 -62.5 l 1,6,-1
 160.875 -62.5 l 1,7,-1
 160.875 -151.25 l 1,8,-1
 160.875 -151.25 l 1,0,-1
EndSplineSet
EndChar

StartChar: backslash
Encoding: 92 92 59
Width: 731
VWidth: 1196
Flags: W
LayerCount: 2
Fore
SplineSet
642.375 -142.375 m 1,0,-1
 553.625 -142.375 l 1,1,-1
 553.625 -53.625 l 1,2,-1
 642.375 -53.625 l 1,3,-1
 642.375 -142.375 l 1,4,-1
 642.375 -142.375 l 1,0,-1
553.625 -53.625 m 1,5,-1
 464.875 -53.625 l 1,6,-1
 464.875 35.125 l 1,7,-1
 553.625 35.125 l 1,8,-1
 553.625 -53.625 l 1,9,-1
 553.625 -53.625 l 1,5,-1
464.875 35.125 m 1,10,-1
 374.875 35.125 l 1,11,-1
 374.875 125.125 l 1,12,-1
 464.875 125.125 l 1,13,-1
 464.875 35.125 l 1,14,-1
 464.875 35.125 l 1,10,-1
374.875 125.125 m 1,15,-1
 286.125 125.125 l 1,16,-1
 286.125 213.875 l 1,17,-1
 374.875 213.875 l 1,18,-1
 374.875 125.125 l 1,19,-1
 374.875 125.125 l 1,15,-1
286.125 213.875 m 1,20,-1
 196.125 213.875 l 1,21,-1
 196.125 303.875 l 1,22,-1
 286.125 303.875 l 1,23,-1
 286.125 213.875 l 1,24,-1
 286.125 213.875 l 1,20,-1
196.125 303.875 m 1,25,-1
 107.375 303.875 l 1,26,-1
 107.375 392.625 l 1,27,-1
 196.125 392.625 l 1,28,-1
 196.125 303.875 l 1,29,-1
 196.125 303.875 l 1,25,-1
107.375 392.625 m 1,30,-1
 17.375 392.625 l 1,31,-1
 17.375 482.625 l 1,32,-1
 107.375 482.625 l 1,33,-1
 107.375 392.625 l 1,34,-1
 107.375 392.625 l 1,30,-1
17.375 571.375 m 1,35,-1
 17.375 482.625 l 1,36,-1
 -71.375 482.625 l 1,37,-1
 -71.375 571.375 l 1,38,-1
 17.375 571.375 l 1,39,-1
 17.375 571.375 l 1,35,-1
EndSplineSet
EndChar

StartChar: bracketright
Encoding: 93 93 60
Width: 249
VWidth: 1187
Flags: W
LayerCount: 2
Fore
SplineSet
-17.875 -151.25 m 1,0,-1
 -17.875 -62.5 l 1,1,-1
 72.125 -62.5 l 1,2,-1
 72.125 562.5 l 1,3,-1
 -17.875 562.5 l 1,4,-1
 -17.875 651.25 l 1,5,-1
 160.875 651.25 l 1,6,-1
 160.875 -151.25 l 1,7,-1
 -17.875 -151.25 l 1,8,-1
 -17.875 -151.25 l 1,0,-1
EndSplineSet
EndChar

StartChar: asciicircum
Encoding: 94 94 61
Width: 490
VWidth: 1151
Flags: W
LayerCount: 2
Fore
SplineSet
134.125 526.75 m 1,0,-1
 222.875 526.75 l 1,1,-1
 222.875 438 l 1,2,-1
 134.125 438 l 1,3,-1
 134.125 526.75 l 1,0,-1
44.125 348 m 1,4,-1
 44.125 438 l 1,5,-1
 134.125 438 l 1,6,-1
 134.125 348 l 1,7,-1
 44.125 348 l 1,4,-1
222.875 438 m 1,8,-1
 312.875 438 l 1,9,-1
 312.875 348 l 1,10,-1
 222.875 348 l 1,11,-1
 222.875 438 l 1,8,-1
-44.625 259.25 m 1,12,-1
 -44.625 348 l 1,13,-1
 44.125 348 l 1,14,-1
 44.125 259.25 l 1,15,-1
 -44.625 259.25 l 1,12,-1
312.875 348 m 1,16,-1
 401.625 348 l 1,17,-1
 401.625 259.25 l 1,18,-1
 312.875 259.25 l 1,19,-1
 312.875 348 l 1,16,-1
EndSplineSet
EndChar

StartChar: underscore
Encoding: 95 95 62
Width: 651
VWidth: 1241
Flags: W
LayerCount: 2
Fore
SplineSet
562.5 -8.875 m 1,0,-1
 -62.5 -8.875 l 1,1,-1
 -62.5 79.875 l 1,2,-1
 562.5 79.875 l 1,3,-1
 562.5 -8.875 l 1,4,-1
 562.5 -8.875 l 1,0,-1
EndSplineSet
EndChar

StartChar: grave
Encoding: 96 96 63
Width: 249
VWidth: 1089
Flags: W
LayerCount: 2
Fore
SplineSet
70.875 643.125 m 1,0,-1
 160.875 643.125 l 1,1,-1
 160.875 553.125 l 1,2,-1
 70.875 553.125 l 1,3,-1
 70.875 643.125 l 1,0,-1
-17.875 731.875 m 1,4,-1
 70.875 731.875 l 1,5,-1
 70.875 643.125 l 1,6,-1
 -17.875 643.125 l 1,7,-1
 -17.875 731.875 l 1,4,-1
EndSplineSet
EndChar

StartChar: a
Encoding: 97 97 64
Width: 490
VWidth: 1205
Flags: W
LayerCount: 2
Fore
SplineSet
-44.625 134.125 m 1,0,-1
 44.125 134.125 l 1,1,-1
 44.125 44.125 l 1,2,-1
 -44.625 44.125 l 1,3,-1
 -44.625 134.125 l 1,0,-1
312.875 312.875 m 1,4,-1
 401.625 312.875 l 1,5,-1
 401.625 -44.625 l 1,6,-1
 44.125 -44.625 l 1,7,-1
 44.125 44.125 l 1,8,-1
 312.875 44.125 l 1,9,-1
 312.875 134.125 l 1,10,-1
 44.125 134.125 l 1,11,-1
 44.125 222.875 l 1,12,-1
 312.875 222.875 l 1,13,-1
 312.875 312.875 l 1,4,-1
44.125 401.625 m 1,14,-1
 312.875 401.625 l 1,15,-1
 312.875 312.875 l 1,16,-1
 44.125 312.875 l 1,17,-1
 44.125 401.625 l 1,14,-1
EndSplineSet
EndChar

StartChar: b
Encoding: 98 98 65
Width: 490
VWidth: 1187
Flags: W
LayerCount: 2
Fore
SplineSet
44.125 295 m 1,0,-1
 44.125 26.25 l 1,1,-1
 312.875 26.25 l 1,2,-1
 312.875 -62.5 l 1,3,-1
 -44.625 -62.5 l 1,4,-1
 -44.625 562.5 l 1,5,-1
 44.125 562.5 l 1,6,-1
 44.125 383.75 l 1,7,-1
 312.875 383.75 l 1,8,-1
 312.875 295 l 1,9,-1
 44.125 295 l 1,0,-1
312.875 295 m 1,10,-1
 401.625 295 l 1,11,-1
 401.625 26.25 l 1,12,-1
 312.875 26.25 l 1,13,-1
 312.875 295 l 1,10,-1
EndSplineSet
EndChar

StartChar: c
Encoding: 99 99 66
Width: 490
VWidth: 1205
Flags: W
LayerCount: 2
Fore
SplineSet
-44.625 312.875 m 1,0,-1
 44.125 312.875 l 1,1,-1
 44.125 44.125 l 1,2,-1
 -44.625 44.125 l 1,3,-1
 -44.625 312.875 l 1,0,-1
401.625 401.625 m 1,4,-1
 401.625 312.875 l 1,5,-1
 44.125 312.875 l 1,6,-1
 44.125 401.625 l 1,7,-1
 401.625 401.625 l 1,4,-1
401.625 -44.625 m 1,8,-1
 44.125 -44.625 l 1,9,-1
 44.125 44.125 l 1,10,-1
 401.625 44.125 l 1,11,-1
 401.625 -44.625 l 1,8,-1
EndSplineSet
EndChar

StartChar: d
Encoding: 100 100 67
Width: 490
VWidth: 1187
Flags: W
LayerCount: 2
Fore
SplineSet
312.875 295 m 1,0,-1
 44.125 295 l 1,1,-1
 44.125 383.75 l 1,2,-1
 312.875 383.75 l 1,3,-1
 312.875 562.5 l 1,4,-1
 401.625 562.5 l 1,5,-1
 401.625 -62.5 l 1,6,-1
 44.125 -62.5 l 1,7,-1
 44.125 26.25 l 1,8,-1
 312.875 26.25 l 1,9,-1
 312.875 295 l 1,10,-1
 312.875 295 l 1,0,-1
44.125 295 m 1,11,-1
 44.125 26.25 l 1,12,-1
 -44.625 26.25 l 1,13,-1
 -44.625 295 l 1,14,-1
 44.125 295 l 1,15,-1
 44.125 295 l 1,11,-1
EndSplineSet
EndChar

StartChar: e
Encoding: 101 101 68
Width: 490
VWidth: 1205
Flags: W
LayerCount: 2
Fore
SplineSet
312.875 312.875 m 1,0,-1
 44.125 312.875 l 1,1,-1
 44.125 401.625 l 1,2,-1
 312.875 401.625 l 1,3,-1
 312.875 312.875 l 1,0,-1
401.625 312.875 m 1,4,-1
 401.625 134.125 l 1,5,-1
 44.125 134.125 l 1,6,-1
 44.125 44.125 l 1,7,-1
 -44.625 44.125 l 1,8,-1
 -44.625 312.875 l 1,9,-1
 44.125 312.875 l 1,10,-1
 44.125 222.875 l 1,11,-1
 312.875 222.875 l 1,12,-1
 312.875 312.875 l 1,13,-1
 401.625 312.875 l 1,4,-1
44.125 -44.625 m 1,14,-1
 44.125 44.125 l 1,15,-1
 401.625 44.125 l 1,16,-1
 401.625 -44.625 l 1,17,-1
 44.125 -44.625 l 1,14,-1
EndSplineSet
EndChar

StartChar: f
Encoding: 102 102 69
Width: 410
VWidth: 1187
Flags: W
LayerCount: 2
Fore
SplineSet
-35.75 -62.5 m 1,0,-1
 -35.75 473.75 l 1,1,-1
 53 473.75 l 1,2,-1
 53 295 l 1,3,-1
 231.75 295 l 1,4,-1
 231.75 205 l 1,5,-1
 53 205 l 1,6,-1
 53 -62.5 l 1,7,-1
 -35.75 -62.5 l 1,0,-1
53 562.5 m 1,8,-1
 231.75 562.5 l 1,9,-1
 231.75 473.75 l 1,10,-1
 53 473.75 l 1,11,-1
 53 562.5 l 1,8,-1
231.75 473.75 m 1,12,-1
 321.75 473.75 l 1,13,-1
 321.75 383.75 l 1,14,-1
 231.75 383.75 l 1,15,-1
 231.75 473.75 l 1,12,-1
EndSplineSet
EndChar

StartChar: g
Encoding: 103 103 70
Width: 490
VWidth: 1223
Flags: W
LayerCount: 2
Fore
SplineSet
-44.625 330.75 m 1,0,-1
 44.125 330.75 l 1,1,-1
 44.125 62 l 1,2,-1
 -44.625 62 l 1,3,-1
 -44.625 330.75 l 1,0,-1
44.125 419.5 m 1,4,-1
 401.625 419.5 l 1,5,-1
 401.625 -115.5 l 1,6,-1
 312.875 -115.5 l 1,7,-1
 312.875 -26.75 l 1,8,-1
 44.125 -26.75 l 1,9,-1
 44.125 62 l 1,10,-1
 312.875 62 l 1,11,-1
 312.875 330.75 l 1,12,-1
 44.125 330.75 l 1,13,-1
 44.125 419.5 l 1,4,-1
44.125 -205.5 m 1,14,-1
 44.125 -115.5 l 1,15,-1
 312.875 -115.5 l 1,16,-1
 312.875 -205.5 l 1,17,-1
 44.125 -205.5 l 1,14,-1
EndSplineSet
EndChar

StartChar: h
Encoding: 104 104 71
Width: 490
VWidth: 1187
Flags: W
LayerCount: 2
Fore
SplineSet
44.125 295 m 1,0,-1
 44.125 -62.5 l 1,1,-1
 -44.625 -62.5 l 1,2,-1
 -44.625 562.5 l 1,3,-1
 44.125 562.5 l 1,4,-1
 44.125 383.75 l 1,5,-1
 312.875 383.75 l 1,6,-1
 312.875 295 l 1,7,-1
 44.125 295 l 1,0,-1
312.875 295 m 1,8,-1
 401.625 295 l 1,9,-1
 401.625 -62.5 l 1,10,-1
 312.875 -62.5 l 1,11,-1
 312.875 295 l 1,8,-1
EndSplineSet
EndChar

StartChar: i
Encoding: 105 105 72
Width: 168
VWidth: 1187
Flags: W
LayerCount: 2
Fore
SplineSet
-8.875 -62.5 m 1,0,-1
 -8.875 383.75 l 1,1,-1
 79.875 383.75 l 1,2,-1
 79.875 -62.5 l 1,3,-1
 -8.875 -62.5 l 1,0,-1
-8.875 562.5 m 1,4,-1
 79.875 562.5 l 1,5,-1
 79.875 473.75 l 1,6,-1
 -8.875 473.75 l 1,7,-1
 -8.875 562.5 l 1,4,-1
EndSplineSet
EndChar

StartChar: j
Encoding: 106 106 73
Width: 249
VWidth: 1196
Flags: W
LayerCount: 2
Fore
SplineSet
70.875 -53.625 m 1,0,-1
 70.875 392.625 l 1,1,-1
 160.875 392.625 l 1,2,-1
 160.875 -53.625 l 1,3,-1
 70.875 -53.625 l 1,4,-1
 70.875 -142.375 l 1,5,-1
 -17.875 -142.375 l 1,6,-1
 -17.875 -53.625 l 1,7,-1
 70.875 -53.625 l 1,0,-1
70.875 571.375 m 1,8,-1
 160.875 571.375 l 1,9,-1
 160.875 482.625 l 1,10,-1
 70.875 482.625 l 1,11,-1
 70.875 571.375 l 1,8,-1
EndSplineSet
EndChar

StartChar: k
Encoding: 107 107 74
Width: 410
VWidth: 1187
Flags: W
LayerCount: 2
Fore
SplineSet
53 205 m 1,0,-1
 143 205 l 1,1,-1
 143 116.25 l 1,2,-1
 53 116.25 l 1,3,-1
 53 -62.5 l 1,4,-1
 -35.75 -62.5 l 1,5,-1
 -35.75 562.5 l 1,6,-1
 53 562.5 l 1,7,-1
 53 205 l 1,0,-1
231.75 26.25 m 1,8,-1
 143 26.25 l 1,9,-1
 143 116.25 l 1,10,-1
 231.75 116.25 l 1,11,-1
 231.75 26.25 l 1,8,-1
321.75 -62.5 m 1,12,-1
 231.75 -62.5 l 1,13,-1
 231.75 26.25 l 1,14,-1
 321.75 26.25 l 1,15,-1
 321.75 -62.5 l 1,12,-1
231.75 295 m 1,16,-1
 231.75 205 l 1,17,-1
 143 205 l 1,18,-1
 143 295 l 1,19,-1
 231.75 295 l 1,16,-1
321.75 383.75 m 1,20,-1
 321.75 295 l 1,21,-1
 231.75 295 l 1,22,-1
 231.75 383.75 l 1,23,-1
 321.75 383.75 l 1,20,-1
EndSplineSet
EndChar

StartChar: l
Encoding: 108 108 75
Width: 249
VWidth: 1187
Flags: W
LayerCount: 2
Fore
SplineSet
70.875 26.25 m 1,0,-1
 160.875 26.25 l 1,1,-1
 160.875 -62.5 l 1,2,-1
 70.875 -62.5 l 1,3,-1
 70.875 26.25 l 1,0,-1
-17.875 562.5 m 1,4,-1
 70.875 562.5 l 1,5,-1
 70.875 26.25 l 1,6,-1
 -17.875 26.25 l 1,7,-1
 -17.875 562.5 l 1,4,-1
EndSplineSet
EndChar

StartChar: m
Encoding: 109 109 76
Width: 651
VWidth: 1205
Flags: W
LayerCount: 2
Fore
SplineSet
473.75 312.875 m 1,0,-1
 562.5 312.875 l 1,1,-1
 562.5 -44.625 l 1,2,-1
 473.75 -44.625 l 1,3,-1
 473.75 312.875 l 1,0,-1
-62.5 401.625 m 1,4,-1
 473.75 401.625 l 1,5,-1
 473.75 312.875 l 1,6,-1
 295 312.875 l 1,7,-1
 295 -44.625 l 1,8,-1
 205 -44.625 l 1,9,-1
 205 312.875 l 1,10,-1
 26.25 312.875 l 1,11,-1
 26.25 -44.625 l 1,12,-1
 -62.5 -44.625 l 1,13,-1
 -62.5 401.625 l 1,4,-1
EndSplineSet
EndChar

StartChar: n
Encoding: 110 110 77
Width: 490
VWidth: 1205
Flags: W
LayerCount: 2
Fore
SplineSet
312.875 312.875 m 1,0,-1
 401.625 312.875 l 1,1,-1
 401.625 -44.625 l 1,2,-1
 312.875 -44.625 l 1,3,-1
 312.875 312.875 l 1,0,-1
312.875 312.875 m 1,4,-1
 44.125 312.875 l 1,5,-1
 44.125 -44.625 l 1,6,-1
 -44.625 -44.625 l 1,7,-1
 -44.625 401.625 l 1,8,-1
 312.875 401.625 l 1,9,-1
 312.875 312.875 l 1,4,-1
EndSplineSet
EndChar

StartChar: o
Encoding: 111 111 78
Width: 490
VWidth: 1205
Flags: W
LayerCount: 2
Fore
SplineSet
-44.625 312.875 m 1,0,-1
 44.125 312.875 l 1,1,-1
 44.125 44.125 l 1,2,-1
 -44.625 44.125 l 1,3,-1
 -44.625 312.875 l 1,0,-1
44.125 -44.625 m 1,4,-1
 44.125 44.125 l 1,5,-1
 312.875 44.125 l 1,6,-1
 312.875 -44.625 l 1,7,-1
 44.125 -44.625 l 1,4,-1
312.875 312.875 m 1,8,-1
 401.625 312.875 l 1,9,-1
 401.625 44.125 l 1,10,-1
 312.875 44.125 l 1,11,-1
 312.875 312.875 l 1,8,-1
312.875 401.625 m 1,12,-1
 312.875 312.875 l 1,13,-1
 44.125 312.875 l 1,14,-1
 44.125 401.625 l 1,15,-1
 312.875 401.625 l 1,12,-1
EndSplineSet
EndChar

StartChar: p
Encoding: 112 112 79
Width: 490
VWidth: 1223
Flags: W
LayerCount: 2
Fore
SplineSet
44.125 330.75 m 1,0,-1
 44.125 62 l 1,1,-1
 312.875 62 l 1,2,-1
 312.875 -26.75 l 1,3,-1
 44.125 -26.75 l 1,4,-1
 44.125 -205.5 l 1,5,-1
 -44.625 -205.5 l 1,6,-1
 -44.625 419.5 l 1,7,-1
 312.875 419.5 l 1,8,-1
 312.875 330.75 l 1,9,-1
 44.125 330.75 l 1,0,-1
312.875 330.75 m 1,10,-1
 401.625 330.75 l 1,11,-1
 401.625 62 l 1,12,-1
 312.875 62 l 1,13,-1
 312.875 330.75 l 1,10,-1
EndSplineSet
EndChar

StartChar: q
Encoding: 113 113 80
Width: 490
VWidth: 1223
Flags: W
LayerCount: 2
Fore
SplineSet
312.875 330.75 m 1,0,-1
 44.125 330.75 l 1,1,-1
 44.125 419.5 l 1,2,-1
 401.625 419.5 l 1,3,-1
 401.625 -205.5 l 1,4,-1
 312.875 -205.5 l 1,5,-1
 312.875 -26.75 l 1,6,-1
 44.125 -26.75 l 1,7,-1
 44.125 62 l 1,8,-1
 312.875 62 l 1,9,-1
 312.875 330.75 l 1,10,-1
 312.875 330.75 l 1,0,-1
44.125 330.75 m 1,11,-1
 44.125 62 l 1,12,-1
 -44.625 62 l 1,13,-1
 -44.625 330.75 l 1,14,-1
 44.125 330.75 l 1,15,-1
 44.125 330.75 l 1,11,-1
EndSplineSet
EndChar

StartChar: r
Encoding: 114 114 81
Width: 329
VWidth: 1205
Flags: W
LayerCount: 2
Fore
SplineSet
-26.75 -44.625 m 1,0,-1
 -26.75 312.875 l 1,1,-1
 62 312.875 l 1,2,-1
 62 -44.625 l 1,3,-1
 -26.75 -44.625 l 1,0,-1
62 401.625 m 1,4,-1
 240.75 401.625 l 1,5,-1
 240.75 312.875 l 1,6,-1
 62 312.875 l 1,7,-1
 62 401.625 l 1,4,-1
EndSplineSet
EndChar

StartChar: s
Encoding: 115 115 82
Width: 490
VWidth: 1205
Flags: W
LayerCount: 2
Fore
SplineSet
-44.625 44.125 m 1,0,-1
 312.875 44.125 l 1,1,-1
 312.875 -44.625 l 1,2,-1
 -44.625 -44.625 l 1,3,-1
 -44.625 44.125 l 1,0,-1
312.875 44.125 m 1,4,-1
 312.875 134.125 l 1,5,-1
 401.625 134.125 l 1,6,-1
 401.625 44.125 l 1,7,-1
 312.875 44.125 l 1,4,-1
44.125 134.125 m 1,8,-1
 44.125 222.875 l 1,9,-1
 312.875 222.875 l 1,10,-1
 312.875 134.125 l 1,11,-1
 44.125 134.125 l 1,8,-1
44.125 312.875 m 1,12,-1
 44.125 222.875 l 1,13,-1
 -44.625 222.875 l 1,14,-1
 -44.625 312.875 l 1,15,-1
 44.125 312.875 l 1,12,-1
401.625 312.875 m 1,16,-1
 44.125 312.875 l 1,17,-1
 44.125 401.625 l 1,18,-1
 401.625 401.625 l 1,19,-1
 401.625 312.875 l 1,16,-1
EndSplineSet
EndChar

StartChar: t
Encoding: 116 116 83
Width: 329
VWidth: 1196
Flags: W
LayerCount: 2
Fore
SplineSet
240.75 -53.625 m 1,0,-1
 62 -53.625 l 1,1,-1
 62 35.125 l 1,2,-1
 240.75 35.125 l 1,3,-1
 240.75 -53.625 l 1,0,-1
240.75 303.875 m 1,4,-1
 62 303.875 l 1,5,-1
 62 35.125 l 1,6,-1
 -26.75 35.125 l 1,7,-1
 -26.75 482.625 l 1,8,-1
 62 482.625 l 1,9,-1
 62 392.625 l 1,10,-1
 240.75 392.625 l 1,11,-1
 240.75 303.875 l 1,4,-1
EndSplineSet
EndChar

StartChar: u
Encoding: 117 117 84
Width: 490
VWidth: 1205
Flags: W
LayerCount: 2
Fore
SplineSet
-44.625 401.625 m 1,0,-1
 44.125 401.625 l 1,1,-1
 44.125 44.125 l 1,2,-1
 -44.625 44.125 l 1,3,-1
 -44.625 401.625 l 1,0,-1
44.125 -44.625 m 1,4,-1
 44.125 44.125 l 1,5,-1
 312.875 44.125 l 1,6,-1
 312.875 -44.625 l 1,7,-1
 44.125 -44.625 l 1,4,-1
312.875 401.625 m 1,8,-1
 401.625 401.625 l 1,9,-1
 401.625 44.125 l 1,10,-1
 312.875 44.125 l 1,11,-1
 312.875 401.625 l 1,8,-1
EndSplineSet
EndChar

StartChar: v
Encoding: 118 118 85
Width: 490
VWidth: 1205
Flags: W
LayerCount: 2
Fore
SplineSet
134.125 -44.625 m 1,0,-1
 134.125 44.125 l 1,1,-1
 222.875 44.125 l 1,2,-1
 222.875 -44.625 l 1,3,-1
 134.125 -44.625 l 1,0,-1
44.125 134.125 m 1,4,-1
 134.125 134.125 l 1,5,-1
 134.125 44.125 l 1,6,-1
 44.125 44.125 l 1,7,-1
 44.125 134.125 l 1,4,-1
222.875 44.125 m 1,8,-1
 222.875 134.125 l 1,9,-1
 312.875 134.125 l 1,10,-1
 312.875 44.125 l 1,11,-1
 222.875 44.125 l 1,8,-1
312.875 401.625 m 1,12,-1
 401.625 401.625 l 1,13,-1
 401.625 134.125 l 1,14,-1
 312.875 134.125 l 1,15,-1
 312.875 401.625 l 1,12,-1
-44.625 401.625 m 1,16,-1
 44.125 401.625 l 1,17,-1
 44.125 134.125 l 1,18,-1
 -44.625 134.125 l 1,19,-1
 -44.625 401.625 l 1,16,-1
EndSplineSet
EndChar

StartChar: w
Encoding: 119 119 86
Width: 651
VWidth: 1205
Flags: W
LayerCount: 2
Fore
SplineSet
-62.5 401.625 m 1,0,-1
 26.25 401.625 l 1,1,-1
 26.25 44.125 l 1,2,-1
 -62.5 44.125 l 1,3,-1
 -62.5 401.625 l 1,0,-1
26.25 -44.625 m 1,4,-1
 26.25 44.125 l 1,5,-1
 116.25 44.125 l 1,6,-1
 116.25 -44.625 l 1,7,-1
 26.25 -44.625 l 1,4,-1
116.25 44.125 m 1,8,-1
 116.25 134.125 l 1,9,-1
 205 134.125 l 1,10,-1
 205 44.125 l 1,11,-1
 116.25 44.125 l 1,8,-1
205 222.875 m 1,12,-1
 295 222.875 l 1,13,-1
 295 134.125 l 1,14,-1
 205 134.125 l 1,15,-1
 205 222.875 l 1,12,-1
295 134.125 m 1,16,-1
 383.75 134.125 l 1,17,-1
 383.75 44.125 l 1,18,-1
 295 44.125 l 1,19,-1
 295 134.125 l 1,16,-1
383.75 -44.625 m 1,20,-1
 383.75 44.125 l 1,21,-1
 473.75 44.125 l 1,22,-1
 473.75 -44.625 l 1,23,-1
 383.75 -44.625 l 1,20,-1
473.75 401.625 m 1,24,-1
 562.5 401.625 l 1,25,-1
 562.5 44.125 l 1,26,-1
 473.75 44.125 l 1,27,-1
 473.75 401.625 l 1,24,-1
EndSplineSet
EndChar

StartChar: x
Encoding: 120 120 87
Width: 490
VWidth: 1205
Flags: W
LayerCount: 2
Fore
SplineSet
-44.625 -44.625 m 1,0,-1
 -44.625 44.125 l 1,1,-1
 44.125 44.125 l 1,2,-1
 44.125 -44.625 l 1,3,-1
 -44.625 -44.625 l 1,0,-1
44.125 44.125 m 1,4,-1
 44.125 134.125 l 1,5,-1
 134.125 134.125 l 1,6,-1
 134.125 44.125 l 1,7,-1
 44.125 44.125 l 1,4,-1
134.125 222.875 m 1,8,-1
 222.875 222.875 l 1,9,-1
 222.875 134.125 l 1,10,-1
 134.125 134.125 l 1,11,-1
 134.125 222.875 l 1,8,-1
312.875 44.125 m 1,12,-1
 222.875 44.125 l 1,13,-1
 222.875 134.125 l 1,14,-1
 312.875 134.125 l 1,15,-1
 312.875 44.125 l 1,12,-1
401.625 -44.625 m 1,16,-1
 312.875 -44.625 l 1,17,-1
 312.875 44.125 l 1,18,-1
 401.625 44.125 l 1,19,-1
 401.625 -44.625 l 1,16,-1
44.125 312.875 m 1,20,-1
 134.125 312.875 l 1,21,-1
 134.125 222.875 l 1,22,-1
 44.125 222.875 l 1,23,-1
 44.125 312.875 l 1,20,-1
-44.625 401.625 m 1,24,-1
 44.125 401.625 l 1,25,-1
 44.125 312.875 l 1,26,-1
 -44.625 312.875 l 1,27,-1
 -44.625 401.625 l 1,24,-1
312.875 312.875 m 1,28,-1
 312.875 222.875 l 1,29,-1
 222.875 222.875 l 1,30,-1
 222.875 312.875 l 1,31,-1
 312.875 312.875 l 1,28,-1
401.625 401.625 m 1,32,-1
 401.625 312.875 l 1,33,-1
 312.875 312.875 l 1,34,-1
 312.875 401.625 l 1,35,-1
 401.625 401.625 l 1,32,-1
EndSplineSet
EndChar

StartChar: y
Encoding: 121 121 88
Width: 490
VWidth: 1223
Flags: W
LayerCount: 2
Fore
SplineSet
-44.625 419.5 m 1,0,-1
 44.125 419.5 l 1,1,-1
 44.125 62 l 1,2,-1
 -44.625 62 l 1,3,-1
 -44.625 419.5 l 1,0,-1
312.875 419.5 m 1,4,-1
 401.625 419.5 l 1,5,-1
 401.625 -115.5 l 1,6,-1
 312.875 -115.5 l 1,7,-1
 312.875 -26.75 l 1,8,-1
 44.125 -26.75 l 1,9,-1
 44.125 62 l 1,10,-1
 312.875 62 l 1,11,-1
 312.875 419.5 l 1,4,-1
44.125 -205.5 m 1,12,-1
 44.125 -115.5 l 1,13,-1
 312.875 -115.5 l 1,14,-1
 312.875 -205.5 l 1,15,-1
 44.125 -205.5 l 1,12,-1
EndSplineSet
EndChar

StartChar: z
Encoding: 122 122 89
Width: 490
VWidth: 1205
Flags: W
LayerCount: 2
Fore
SplineSet
134.125 134.125 m 1,0,-1
 134.125 44.125 l 1,1,-1
 401.625 44.125 l 1,2,-1
 401.625 -44.625 l 1,3,-1
 -44.625 -44.625 l 1,4,-1
 -44.625 44.125 l 1,5,-1
 44.125 44.125 l 1,6,-1
 44.125 134.125 l 1,7,-1
 134.125 134.125 l 1,0,-1
222.875 134.125 m 1,8,-1
 134.125 134.125 l 1,9,-1
 134.125 222.875 l 1,10,-1
 222.875 222.875 l 1,11,-1
 222.875 134.125 l 1,8,-1
312.875 222.875 m 1,12,-1
 222.875 222.875 l 1,13,-1
 222.875 312.875 l 1,14,-1
 -44.625 312.875 l 1,15,-1
 -44.625 401.625 l 1,16,-1
 401.625 401.625 l 1,17,-1
 401.625 312.875 l 1,18,-1
 312.875 312.875 l 1,19,-1
 312.875 222.875 l 1,12,-1
EndSplineSet
EndChar

StartChar: braceleft
Encoding: 123 123 90
Width: 329
VWidth: 1187
Flags: W
LayerCount: 2
Fore
SplineSet
240.75 -151.25 m 1,0,-1
 152 -151.25 l 1,1,-1
 152 -62.5 l 1,2,-1
 240.75 -62.5 l 1,3,-1
 240.75 -151.25 l 1,0,-1
240.75 651.25 m 1,4,-1
 240.75 562.5 l 1,5,-1
 152 562.5 l 1,6,-1
 152 651.25 l 1,7,-1
 240.75 651.25 l 1,4,-1
-26.75 205 m 1,8,-1
 -26.75 295 l 1,9,-1
 62 295 l 1,10,-1
 62 562.5 l 1,11,-1
 152 562.5 l 1,12,-1
 152 -62.5 l 1,13,-1
 62 -62.5 l 1,14,-1
 62 205 l 1,15,-1
 -26.75 205 l 1,8,-1
EndSplineSet
EndChar

StartChar: bar
Encoding: 124 124 91
Width: 168
VWidth: 1205
Flags: W
LayerCount: 2
Fore
SplineSet
79.875 580.375 m 1,0,-1
 79.875 -223.375 l 1,1,-1
 -8.875 -223.375 l 1,2,-1
 -8.875 580.375 l 1,3,-1
 79.875 580.375 l 1,4,-1
 79.875 580.375 l 1,0,-1
EndSplineSet
EndChar

StartChar: braceright
Encoding: 125 125 92
Width: 329
VWidth: 1187
Flags: W
LayerCount: 2
Fore
SplineSet
-26.75 -151.25 m 1,0,-1
 -26.75 -62.5 l 1,1,-1
 62 -62.5 l 1,2,-1
 62 -151.25 l 1,3,-1
 -26.75 -151.25 l 1,4,-1
 -26.75 -151.25 l 1,0,-1
-26.75 651.25 m 1,5,-1
 62 651.25 l 1,6,-1
 62 562.5 l 1,7,-1
 -26.75 562.5 l 1,8,-1
 -26.75 651.25 l 1,9,-1
 -26.75 651.25 l 1,5,-1
240.75 205 m 1,10,-1
 152 205 l 1,11,-1
 152 -62.5 l 1,12,-1
 62 -62.5 l 1,13,-1
 62 562.5 l 1,14,-1
 152 562.5 l 1,15,-1
 152 295 l 1,16,-1
 240.75 295 l 1,17,-1
 240.75 205 l 1,18,-1
 240.75 205 l 1,10,-1
EndSplineSet
EndChar

StartChar: asciitilde
Encoding: 126 126 93
Width: 571
VWidth: 1196
Flags: W
LayerCount: 2
Fore
SplineSet
392.625 303.875 m 1,0,-1
 482.625 303.875 l 1,1,-1
 482.625 213.875 l 1,2,-1
 392.625 213.875 l 1,3,-1
 392.625 303.875 l 1,0,-1
-53.625 125.125 m 1,4,-1
 -53.625 213.875 l 1,5,-1
 35.125 213.875 l 1,6,-1
 35.125 125.125 l 1,7,-1
 -53.625 125.125 l 1,4,-1
213.875 303.875 m 1,8,-1
 213.875 213.875 l 1,9,-1
 392.625 213.875 l 1,10,-1
 392.625 125.125 l 1,11,-1
 213.875 125.125 l 1,12,-1
 213.875 213.875 l 1,13,-1
 35.125 213.875 l 1,14,-1
 35.125 303.875 l 1,15,-1
 213.875 303.875 l 1,8,-1
EndSplineSet
EndChar

StartChar: exclamdown
Encoding: 161 161 95
Width: 168
VWidth: 1223
Flags: W
LayerCount: 2
Fore
SplineSet
-8.875 -205.5 m 1,0,-1
 -8.875 240.75 l 1,1,-1
 79.875 240.75 l 1,2,-1
 79.875 -205.5 l 1,3,-1
 -8.875 -205.5 l 1,0,-1
-8.875 419.5 m 1,4,-1
 79.875 419.5 l 1,5,-1
 79.875 330.75 l 1,6,-1
 -8.875 330.75 l 1,7,-1
 -8.875 419.5 l 1,4,-1
EndSplineSet
EndChar

StartChar: cent
Encoding: 162 162 96
Width: 490
VWidth: 1205
Flags: W
LayerCount: 2
Fore
SplineSet
401.625 402.75 m 1,0,-1
 401.625 312.75 l 1,1,-1
 44.125 312.75 l 1,2,-1
 44.125 402.75 l 1,3,-1
 134.125 402.75 l 1,4,-1
 134.125 491.5 l 1,5,-1
 222.875 491.5 l 1,6,-1
 222.875 402.75 l 1,7,-1
 401.625 402.75 l 1,0,-1
-44.625 312.75 m 1,8,-1
 44.125 312.75 l 1,9,-1
 44.125 45.25 l 1,10,-1
 -44.625 45.25 l 1,11,-1
 -44.625 312.75 l 1,8,-1
134.125 -44.75 m 1,12,-1
 44.125 -44.75 l 1,13,-1
 44.125 45.25 l 1,14,-1
 401.625 45.25 l 1,15,-1
 401.625 -44.75 l 1,16,-1
 222.875 -44.75 l 1,17,-1
 222.875 -133.5 l 1,18,-1
 134.125 -133.5 l 1,19,-1
 134.125 -44.75 l 1,12,-1
EndSplineSet
EndChar

StartChar: sterling
Encoding: 163 163 97
Width: 490
VWidth: 1187
Flags: W
LayerCount: 2
Fore
SplineSet
134.125 562.5 m 1,0,-1
 312.875 562.5 l 1,1,-1
 312.875 473.75 l 1,2,-1
 134.125 473.75 l 1,3,-1
 134.125 562.5 l 1,0,-1
401.625 383.75 m 1,4,-1
 312.875 383.75 l 1,5,-1
 312.875 473.75 l 1,6,-1
 401.625 473.75 l 1,7,-1
 401.625 383.75 l 1,4,-1
44.125 295 m 1,8,-1
 44.125 473.75 l 1,9,-1
 134.125 473.75 l 1,10,-1
 134.125 295 l 1,11,-1
 222.875 295 l 1,12,-1
 222.875 205 l 1,13,-1
 134.125 205 l 1,14,-1
 134.125 26.25 l 1,15,-1
 401.625 26.25 l 1,16,-1
 401.625 -62.5 l 1,17,-1
 44.125 -62.5 l 1,18,-1
 44.125 205 l 1,19,-1
 -44.625 205 l 1,20,-1
 -44.625 295 l 1,21,-1
 44.125 295 l 1,8,-1
EndSplineSet
EndChar

StartChar: currency
Encoding: 164 164 98
Width: 410
VWidth: 1178
Flags: W
LayerCount: 2
Fore
SplineSet
-35.75 374.875 m 1,0,-1
 53 374.875 l 1,1,-1
 53 196.125 l 1,2,-1
 -35.75 196.125 l 1,3,-1
 -35.75 374.875 l 1,0,-1
53 107.375 m 1,4,-1
 53 196.125 l 1,5,-1
 231.75 196.125 l 1,6,-1
 231.75 107.375 l 1,7,-1
 53 107.375 l 1,4,-1
321.75 196.125 m 1,8,-1
 231.75 196.125 l 1,9,-1
 231.75 374.875 l 1,10,-1
 321.75 374.875 l 1,11,-1
 321.75 196.125 l 1,8,-1
53 464.875 m 1,12,-1
 231.75 464.875 l 1,13,-1
 231.75 374.875 l 1,14,-1
 53 374.875 l 1,15,-1
 53 464.875 l 1,12,-1
-35.75 553.625 m 1,16,-1
 53 553.625 l 1,17,-1
 53 464.875 l 1,18,-1
 -35.75 464.875 l 1,19,-1
 -35.75 553.625 l 1,16,-1
321.75 553.625 m 1,20,-1
 321.75 464.875 l 1,21,-1
 231.75 464.875 l 1,22,-1
 231.75 553.625 l 1,23,-1
 321.75 553.625 l 1,20,-1
-35.75 17.375 m 1,24,-1
 -35.75 107.375 l 1,25,-1
 53 107.375 l 1,26,-1
 53 17.375 l 1,27,-1
 -35.75 17.375 l 1,24,-1
321.75 17.375 m 1,28,-1
 231.75 17.375 l 1,29,-1
 231.75 107.375 l 1,30,-1
 321.75 107.375 l 1,31,-1
 321.75 17.375 l 1,28,-1
EndSplineSet
EndChar

StartChar: yen
Encoding: 165 165 99
Width: 490
VWidth: 1187
Flags: W
LayerCount: 2
Fore
SplineSet
134.125 116.25 m 1,0,-1
 134.125 205 l 1,1,-1
 222.875 205 l 1,2,-1
 222.875 116.25 l 1,3,-1
 312.875 116.25 l 1,4,-1
 312.875 26.25 l 1,5,-1
 222.875 26.25 l 1,6,-1
 222.875 -62.5 l 1,7,-1
 134.125 -62.5 l 1,8,-1
 134.125 26.25 l 1,9,-1
 44.125 26.25 l 1,10,-1
 44.125 116.25 l 1,11,-1
 134.125 116.25 l 1,0,-1
-44.625 562.5 m 1,12,-1
 44.125 562.5 l 1,13,-1
 44.125 295 l 1,14,-1
 -44.625 295 l 1,15,-1
 -44.625 562.5 l 1,12,-1
312.875 562.5 m 1,16,-1
 401.625 562.5 l 1,17,-1
 401.625 295 l 1,18,-1
 312.875 295 l 1,19,-1
 312.875 562.5 l 1,16,-1
44.125 295 m 1,20,-1
 134.125 295 l 1,21,-1
 134.125 205 l 1,22,-1
 44.125 205 l 1,23,-1
 44.125 295 l 1,20,-1
222.875 205 m 1,24,-1
 222.875 295 l 1,25,-1
 312.875 295 l 1,26,-1
 312.875 205 l 1,27,-1
 222.875 205 l 1,24,-1
EndSplineSet
EndChar

StartChar: brokenbar
Encoding: 166 166 100
Width: 168
VWidth: 1205
Flags: W
LayerCount: 2
Fore
SplineSet
-8.875 580.375 m 1,0,-1
 79.875 580.375 l 1,1,-1
 79.875 222.875 l 1,2,-1
 -8.875 222.875 l 1,3,-1
 -8.875 580.375 l 1,0,-1
-8.875 -223.375 m 1,4,-1
 -8.875 134.125 l 1,5,-1
 79.875 134.125 l 1,6,-1
 79.875 -223.375 l 1,7,-1
 -8.875 -223.375 l 1,4,-1
EndSplineSet
EndChar

StartChar: section
Encoding: 167 167 101
Width: 490
VWidth: 1196
Flags: W
LayerCount: 2
Fore
SplineSet
312.875 303.875 m 1,0,-1
 44.125 303.875 l 1,1,-1
 44.125 392.625 l 1,2,-1
 312.875 392.625 l 1,3,-1
 312.875 303.875 l 1,0,-1
401.625 125.125 m 1,4,-1
 312.875 125.125 l 1,5,-1
 312.875 303.875 l 1,6,-1
 401.625 303.875 l 1,7,-1
 401.625 125.125 l 1,4,-1
-44.625 482.625 m 1,8,-1
 44.125 482.625 l 1,9,-1
 44.125 392.625 l 1,10,-1
 -44.625 392.625 l 1,11,-1
 -44.625 482.625 l 1,8,-1
401.625 571.375 m 1,12,-1
 401.625 482.625 l 1,13,-1
 44.125 482.625 l 1,14,-1
 44.125 571.375 l 1,15,-1
 401.625 571.375 l 1,12,-1
-44.625 -142.375 m 1,16,-1
 -44.625 -53.625 l 1,17,-1
 312.875 -53.625 l 1,18,-1
 312.875 -142.375 l 1,19,-1
 -44.625 -142.375 l 1,16,-1
312.875 -53.625 m 1,20,-1
 312.875 35.125 l 1,21,-1
 401.625 35.125 l 1,22,-1
 401.625 -53.625 l 1,23,-1
 312.875 -53.625 l 1,20,-1
44.125 125.125 m 1,24,-1
 312.875 125.125 l 1,25,-1
 312.875 35.125 l 1,26,-1
 44.125 35.125 l 1,27,-1
 44.125 125.125 l 1,24,-1
-44.625 303.875 m 1,28,-1
 44.125 303.875 l 1,29,-1
 44.125 125.125 l 1,30,-1
 -44.625 125.125 l 1,31,-1
 -44.625 303.875 l 1,28,-1
EndSplineSet
EndChar

StartChar: dieresis
Encoding: 168 168 102
Width: 329
VWidth: 1098
Flags: W
LayerCount: 2
Fore
SplineSet
-26.75 562 m 1,0,-1
 -26.75 652 l 1,1,-1
 62 652 l 1,2,-1
 62 562 l 1,3,-1
 -26.75 562 l 1,0,-1
152 652 m 1,4,-1
 240.75 652 l 1,5,-1
 240.75 562 l 1,6,-1
 152 562 l 1,7,-1
 152 652 l 1,4,-1
EndSplineSet
EndChar

StartChar: copyright
Encoding: 169 169 103
Width: 490
VWidth: 1205
Flags: W
LayerCount: 2
Fore
SplineSet
66.625 245.375 m 1,0,-1
 134.125 245.375 l 1,1,-1
 134.125 111.625 l 1,2,-1
 66.625 111.625 l 1,3,-1
 66.625 245.375 l 1,0,-1
134.125 44.125 m 1,4,-1
 134.125 111.625 l 1,5,-1
 267.875 111.625 l 1,6,-1
 267.875 44.125 l 1,7,-1
 134.125 44.125 l 1,4,-1
134.125 312.875 m 1,8,-1
 267.875 312.875 l 1,9,-1
 267.875 245.375 l 1,10,-1
 134.125 245.375 l 1,11,-1
 134.125 312.875 l 1,8,-1
179.125 401.625 m 256,12,13
 225.375 401.625 225.375 401.625 266 384.125 c 128,-1,14
 306.625 366.625 306.625 366.625 336.625 336.625 c 128,-1,15
 366.625 306.625 366.625 306.625 384.125 266 c 128,-1,16
 401.625 225.375 401.625 225.375 401.625 179.125 c 256,17,18
 401.625 132.875 401.625 132.875 384.125 92.25 c 128,-1,19
 366.625 51.625 366.625 51.625 336.625 21 c 128,-1,20
 306.625 -9.625 306.625 -9.625 266 -27.125 c 128,-1,21
 225.375 -44.625 225.375 -44.625 179.125 -44.625 c 256,22,23
 132.875 -44.625 132.875 -44.625 92.25 -27.125 c 128,-1,24
 51.625 -9.625 51.625 -9.625 21 21 c 128,-1,25
 -9.625 51.625 -9.625 51.625 -27.125 92.25 c 128,-1,26
 -44.625 132.875 -44.625 132.875 -44.625 179.125 c 256,27,28
 -44.625 225.375 -44.625 225.375 -27.125 266 c 128,-1,29
 -9.625 306.625 -9.625 306.625 21 336.625 c 128,-1,30
 51.625 366.625 51.625 366.625 92.25 384.125 c 128,-1,31
 132.875 401.625 132.875 401.625 179.125 401.625 c 256,12,13
319.125 37.875 m 0,32,33
 376.625 95.375 376.625 95.375 376.625 179.125 c 0,34,35
 376.625 219.125 376.625 219.125 362.25 254.75 c 128,-1,36
 347.875 290.375 347.875 290.375 319.125 319.125 c 256,37,38
 290.375 347.875 290.375 347.875 254.75 362.25 c 128,-1,39
 219.125 376.625 219.125 376.625 179.125 376.625 c 0,40,41
 95.375 376.625 95.375 376.625 37.875 319.125 c 0,42,43
 9.125 290.375 9.125 290.375 -5.25 254.75 c 128,-1,44
 -19.625 219.125 -19.625 219.125 -19.625 179.125 c 0,45,46
 -19.625 95.375 -19.625 95.375 37.875 37.875 c 256,47,48
 95.375 -19.625 95.375 -19.625 179.125 -19.625 c 0,49,50
 219.125 -19.625 219.125 -19.625 254.75 -5.25 c 128,-1,51
 290.375 9.125 290.375 9.125 319.125 37.875 c 0,32,33
EndSplineSet
EndChar

StartChar: ordfeminine
Encoding: 170 170 104
Width: 410
VWidth: 1169
Flags: W
LayerCount: 2
Fore
SplineSet
53 544.625 m 1,0,-1
 231.75 544.625 l 1,1,-1
 231.75 455.875 l 1,2,-1
 53 455.875 l 1,3,-1
 53 544.625 l 1,0,-1
231.75 455.875 m 1,4,-1
 321.75 455.875 l 1,5,-1
 321.75 98.375 l 1,6,-1
 53 98.375 l 1,7,-1
 53 187.125 l 1,8,-1
 231.75 187.125 l 1,9,-1
 231.75 277.125 l 1,10,-1
 53 277.125 l 1,11,-1
 53 365.875 l 1,12,-1
 231.75 365.875 l 1,13,-1
 231.75 455.875 l 1,4,-1
-35.75 277.125 m 1,14,-1
 53 277.125 l 1,15,-1
 53 187.125 l 1,16,-1
 -35.75 187.125 l 1,17,-1
 -35.75 277.125 l 1,14,-1
EndSplineSet
EndChar

StartChar: guillemotleft
Encoding: 171 171 105
Width: 571
VWidth: 1187
Flags: W
LayerCount: 2
Fore
SplineSet
213.875 473.75 m 1,0,-1
 213.875 383.75 l 1,1,-1
 125.125 383.75 l 1,2,-1
 125.125 473.75 l 1,3,-1
 213.875 473.75 l 1,0,-1
125.125 383.75 m 1,4,-1
 125.125 295 l 1,5,-1
 35.125 295 l 1,6,-1
 35.125 383.75 l 1,7,-1
 125.125 383.75 l 1,4,-1
35.125 205 m 1,8,-1
 125.125 205 l 1,9,-1
 125.125 116.25 l 1,10,-1
 35.125 116.25 l 1,11,-1
 35.125 205 l 1,8,-1
-53.625 295 m 1,12,-1
 35.125 295 l 1,13,-1
 35.125 205 l 1,14,-1
 -53.625 205 l 1,15,-1
 -53.625 295 l 1,12,-1
125.125 26.25 m 1,16,-1
 125.125 116.25 l 1,17,-1
 213.875 116.25 l 1,18,-1
 213.875 26.25 l 1,19,-1
 125.125 26.25 l 1,16,-1
482.625 473.75 m 1,20,-1
 482.625 383.75 l 1,21,-1
 392.625 383.75 l 1,22,-1
 392.625 473.75 l 1,23,-1
 482.625 473.75 l 1,20,-1
482.625 26.25 m 1,24,-1
 392.625 26.25 l 1,25,-1
 392.625 116.25 l 1,26,-1
 482.625 116.25 l 1,27,-1
 482.625 26.25 l 1,24,-1
213.875 295 m 1,28,-1
 303.875 295 l 1,29,-1
 303.875 205 l 1,30,-1
 213.875 205 l 1,31,-1
 213.875 295 l 1,28,-1
392.625 383.75 m 1,32,-1
 392.625 295 l 1,33,-1
 303.875 295 l 1,34,-1
 303.875 383.75 l 1,35,-1
 392.625 383.75 l 1,32,-1
392.625 116.25 m 1,36,-1
 303.875 116.25 l 1,37,-1
 303.875 205 l 1,38,-1
 392.625 205 l 1,39,-1
 392.625 116.25 l 1,36,-1
EndSplineSet
EndChar

StartChar: logicalnot
Encoding: 172 172 106
Width: 491
VWidth: 1205
Flags: W
LayerCount: 2
Fore
SplineSet
-44.75 312.875 m 1,0,-1
 402.75 312.875 l 1,1,-1
 402.75 44.125 l 1,2,-1
 312.75 44.125 l 1,3,-1
 312.75 222.875 l 1,4,-1
 -44.75 222.875 l 1,5,-1
 -44.75 312.875 l 1,6,-1
 -44.75 312.875 l 1,0,-1
EndSplineSet
EndChar

StartChar: registered
Encoding: 174 174 107
Width: 329
VWidth: 1187
Flags: W
LayerCount: 2
Fore
SplineSet
62 272.5 m 1,0,-1
 107 272.5 l 1,1,-1
 107 182.5 l 1,2,-1
 62 182.5 l 1,3,-1
 62 272.5 l 1,0,-1
152 317.5 m 1,4,-1
 152 272.5 l 1,5,-1
 107 272.5 l 1,6,-1
 107 317.5 l 1,7,-1
 152 317.5 l 1,4,-1
107 383.75 m 256,8,9
 134.5 383.75 134.5 383.75 158.875 373.125 c 128,-1,10
 183.25 362.5 183.25 362.5 201.375 344.375 c 128,-1,11
 219.5 326.25 219.5 326.25 230.125 301.875 c 128,-1,12
 240.75 277.5 240.75 277.5 240.75 250 c 256,13,14
 240.75 222.5 240.75 222.5 230.125 198.125 c 128,-1,15
 219.5 173.75 219.5 173.75 201.375 155.625 c 128,-1,16
 183.25 137.5 183.25 137.5 158.875 126.875 c 128,-1,17
 134.5 116.25 134.5 116.25 107 116.25 c 256,18,19
 79.5 116.25 79.5 116.25 55.125 126.875 c 128,-1,20
 30.75 137.5 30.75 137.5 12.625 155.625 c 128,-1,21
 -5.5 173.75 -5.5 173.75 -16.125 198.125 c 128,-1,22
 -26.75 222.5 -26.75 222.5 -26.75 250 c 256,23,24
 -26.75 277.5 -26.75 277.5 -16.125 301.875 c 128,-1,25
 -5.5 326.25 -5.5 326.25 12.625 344.375 c 128,-1,26
 30.75 362.5 30.75 362.5 55.125 373.125 c 128,-1,27
 79.5 383.75 79.5 383.75 107 383.75 c 256,8,9
107 141.25 m 256,28,29
 152 141.25 152 141.25 183.875 173.125 c 128,-1,30
 215.75 205 215.75 205 215.75 250 c 256,31,32
 215.75 295 215.75 295 183.875 326.875 c 128,-1,33
 152 358.75 152 358.75 107 358.75 c 256,34,35
 62 358.75 62 358.75 30.125 326.875 c 128,-1,36
 -1.75 295 -1.75 295 -1.75 250 c 256,37,38
 -1.75 205 -1.75 205 30.125 173.125 c 128,-1,39
 62 141.25 62 141.25 107 141.25 c 256,28,29
EndSplineSet
EndChar

StartChar: macron
Encoding: 175 175 108
Width: 329
VWidth: 1098
Flags: W
LayerCount: 2
Fore
SplineSet
-26.75 562 m 1,0,-1
 -26.75 652 l 1,1,-1
 240.75 652 l 1,2,-1
 240.75 562 l 1,3,-1
 -26.75 562 l 1,4,-1
 -26.75 562 l 1,0,-1
EndSplineSet
EndChar

StartChar: degree
Encoding: 176 176 109
Width: 410
VWidth: 1160
Flags: W
LayerCount: 2
Fore
SplineSet
-35.75 447 m 1,0,-1
 53 447 l 1,1,-1
 53 268.25 l 1,2,-1
 -35.75 268.25 l 1,3,-1
 -35.75 447 l 1,0,-1
231.75 535.75 m 1,4,-1
 231.75 447 l 1,5,-1
 53 447 l 1,6,-1
 53 535.75 l 1,7,-1
 231.75 535.75 l 1,4,-1
231.75 447 m 1,8,-1
 321.75 447 l 1,9,-1
 321.75 268.25 l 1,10,-1
 231.75 268.25 l 1,11,-1
 231.75 447 l 1,8,-1
53 178.25 m 1,12,-1
 53 268.25 l 1,13,-1
 231.75 268.25 l 1,14,-1
 231.75 178.25 l 1,15,-1
 53 178.25 l 1,12,-1
EndSplineSet
EndChar

StartChar: plusminus
Encoding: 177 177 110
Width: 490
VWidth: 1187
Flags: W
LayerCount: 2
Fore
SplineSet
222.875 383.75 m 1,0,-1
 401.625 383.75 l 1,1,-1
 401.625 295 l 1,2,-1
 222.875 295 l 1,3,-1
 222.875 116.25 l 1,4,-1
 134.125 116.25 l 1,5,-1
 134.125 295 l 1,6,-1
 -44.625 295 l 1,7,-1
 -44.625 383.75 l 1,8,-1
 134.125 383.75 l 1,9,-1
 134.125 562.5 l 1,10,-1
 222.875 562.5 l 1,11,-1
 222.875 383.75 l 1,0,-1
-44.625 -62.5 m 1,12,-1
 -44.625 26.25 l 1,13,-1
 401.625 26.25 l 1,14,-1
 401.625 -62.5 l 1,15,-1
 -44.625 -62.5 l 1,12,-1
EndSplineSet
EndChar

StartChar: uni00B2
Encoding: 178 178 111
Width: 329
VWidth: 1169
Flags: W
LayerCount: 2
Fore
SplineSet
-26.75 544.625 m 1,0,-1
 152 544.625 l 1,1,-1
 152 455.875 l 1,2,-1
 -26.75 455.875 l 1,3,-1
 -26.75 544.625 l 1,0,-1
240.75 455.875 m 1,4,-1
 240.75 365.875 l 1,5,-1
 152 365.875 l 1,6,-1
 152 455.875 l 1,7,-1
 240.75 455.875 l 1,4,-1
152 365.875 m 1,8,-1
 152 277.125 l 1,9,-1
 62 277.125 l 1,10,-1
 62 365.875 l 1,11,-1
 152 365.875 l 1,8,-1
-26.75 277.125 m 1,12,-1
 62 277.125 l 1,13,-1
 62 187.125 l 1,14,-1
 240.75 187.125 l 1,15,-1
 240.75 98.375 l 1,16,-1
 -26.75 98.375 l 1,17,-1
 -26.75 277.125 l 1,12,-1
EndSplineSet
EndChar

StartChar: uni00B3
Encoding: 179 179 112
Width: 329
VWidth: 1169
Flags: W
LayerCount: 2
Fore
SplineSet
-26.75 544.625 m 1,0,-1
 152 544.625 l 1,1,-1
 152 455.875 l 1,2,-1
 -26.75 455.875 l 1,3,-1
 -26.75 544.625 l 1,0,-1
240.75 455.875 m 1,4,-1
 240.75 365.875 l 1,5,-1
 152 365.875 l 1,6,-1
 152 455.875 l 1,7,-1
 240.75 455.875 l 1,4,-1
-26.75 365.875 m 1,8,-1
 152 365.875 l 1,9,-1
 152 277.125 l 1,10,-1
 -26.75 277.125 l 1,11,-1
 -26.75 365.875 l 1,8,-1
240.75 187.125 m 1,12,-1
 152 187.125 l 1,13,-1
 152 277.125 l 1,14,-1
 240.75 277.125 l 1,15,-1
 240.75 187.125 l 1,12,-1
-26.75 98.375 m 1,16,-1
 -26.75 187.125 l 1,17,-1
 152 187.125 l 1,18,-1
 152 98.375 l 1,19,-1
 -26.75 98.375 l 1,16,-1
EndSplineSet
EndChar

StartChar: acute
Encoding: 180 180 113
Width: 249
VWidth: 1089
Flags: W
LayerCount: 2
Fore
SplineSet
70.875 643.125 m 1,0,-1
 70.875 553.125 l 1,1,-1
 -17.875 553.125 l 1,2,-1
 -17.875 643.125 l 1,3,-1
 70.875 643.125 l 1,4,-1
 70.875 643.125 l 1,0,-1
160.875 731.875 m 1,5,-1
 160.875 643.125 l 1,6,-1
 70.875 643.125 l 1,7,-1
 70.875 731.875 l 1,8,-1
 160.875 731.875 l 1,9,-1
 160.875 731.875 l 1,5,-1
EndSplineSet
EndChar

StartChar: mu
Encoding: 181 181 114
Width: 490
VWidth: 1214
Flags: W
LayerCount: 2
Fore
SplineSet
44.125 410.5 m 1,0,-1
 44.125 53 l 1,1,-1
 312.875 53 l 1,2,-1
 312.875 -35.75 l 1,3,-1
 44.125 -35.75 l 1,4,-1
 44.125 -124.5 l 1,5,-1
 -44.625 -124.5 l 1,6,-1
 -44.625 410.5 l 1,7,-1
 44.125 410.5 l 1,0,-1
312.875 410.5 m 1,8,-1
 401.625 410.5 l 1,9,-1
 401.625 53 l 1,10,-1
 312.875 53 l 1,11,-1
 312.875 410.5 l 1,8,-1
EndSplineSet
EndChar

StartChar: paragraph
Encoding: 182 182 115
Width: 490
VWidth: 1205
Flags: W
LayerCount: 2
Fore
SplineSet
312.875 580.375 m 1,0,-1
 401.625 580.375 l 1,1,-1
 401.625 -223.375 l 1,2,-1
 312.875 -223.375 l 1,3,-1
 312.875 580.375 l 1,0,-1
44.125 491.625 m 1,4,-1
 44.125 580.375 l 1,5,-1
 222.875 580.375 l 1,6,-1
 222.875 -223.375 l 1,7,-1
 134.125 -223.375 l 1,8,-1
 134.125 134.125 l 1,9,-1
 44.125 134.125 l 1,10,-1
 44.125 222.875 l 1,11,-1
 -44.625 222.875 l 1,12,-1
 -44.625 491.625 l 1,13,-1
 44.125 491.625 l 1,4,-1
EndSplineSet
EndChar

StartChar: periodcentered
Encoding: 183 183 116
Width: 168
VWidth: 1205
Flags: W
LayerCount: 2
Fore
SplineSet
79.875 134.125 m 1,0,-1
 -8.875 134.125 l 1,1,-1
 -8.875 222.875 l 1,2,-1
 79.875 222.875 l 1,3,-1
 79.875 134.125 l 1,4,-1
 79.875 134.125 l 1,0,-1
EndSplineSet
EndChar

StartChar: cedilla
Encoding: 184 184 117
Width: 249
VWidth: 1267
Flags: W
LayerCount: 2
Fore
SplineSet
70.875 17.875 m 1,0,-1
 160.875 17.875 l 1,1,-1
 160.875 -70.875 l 1,2,-1
 70.875 -70.875 l 1,3,-1
 70.875 17.875 l 1,0,-1
-17.875 -160.875 m 1,4,-1
 -17.875 -70.875 l 1,5,-1
 70.875 -70.875 l 1,6,-1
 70.875 -160.875 l 1,7,-1
 -17.875 -160.875 l 1,4,-1
EndSplineSet
EndChar

StartChar: uni00B9
Encoding: 185 185 118
Width: 249
VWidth: 1169
Flags: W
LayerCount: 2
Fore
SplineSet
-17.875 544.625 m 1,0,-1
 160.875 544.625 l 1,1,-1
 160.875 98.375 l 1,2,-1
 70.875 98.375 l 1,3,-1
 70.875 455.875 l 1,4,-1
 -17.875 455.875 l 1,5,-1
 -17.875 544.625 l 1,6,-1
 -17.875 544.625 l 1,0,-1
EndSplineSet
EndChar

StartChar: ordmasculine
Encoding: 186 186 119
Width: 410
VWidth: 1169
Flags: W
LayerCount: 2
Fore
SplineSet
-35.75 455.875 m 1,0,-1
 53 455.875 l 1,1,-1
 53 187.125 l 1,2,-1
 -35.75 187.125 l 1,3,-1
 -35.75 455.875 l 1,0,-1
53 98.375 m 1,4,-1
 53 187.125 l 1,5,-1
 231.75 187.125 l 1,6,-1
 231.75 98.375 l 1,7,-1
 53 98.375 l 1,4,-1
231.75 455.875 m 1,8,-1
 321.75 455.875 l 1,9,-1
 321.75 187.125 l 1,10,-1
 231.75 187.125 l 1,11,-1
 231.75 455.875 l 1,8,-1
231.75 544.625 m 1,12,-1
 231.75 455.875 l 1,13,-1
 53 455.875 l 1,14,-1
 53 544.625 l 1,15,-1
 231.75 544.625 l 1,12,-1
EndSplineSet
EndChar

StartChar: guillemotright
Encoding: 187 187 120
Width: 571
VWidth: 1187
Flags: W
LayerCount: 2
Fore
SplineSet
213.875 473.75 m 1,0,-1
 303.875 473.75 l 1,1,-1
 303.875 383.75 l 1,2,-1
 213.875 383.75 l 1,3,-1
 213.875 473.75 l 1,4,-1
 213.875 473.75 l 1,0,-1
303.875 383.75 m 1,5,-1
 392.625 383.75 l 1,6,-1
 392.625 295 l 1,7,-1
 303.875 295 l 1,8,-1
 303.875 383.75 l 1,9,-1
 303.875 383.75 l 1,5,-1
392.625 205 m 1,10,-1
 392.625 116.25 l 1,11,-1
 303.875 116.25 l 1,12,-1
 303.875 205 l 1,13,-1
 392.625 205 l 1,14,-1
 392.625 205 l 1,10,-1
482.625 295 m 1,15,-1
 482.625 205 l 1,16,-1
 392.625 205 l 1,17,-1
 392.625 295 l 1,18,-1
 482.625 295 l 1,19,-1
 482.625 295 l 1,15,-1
303.875 26.25 m 1,20,-1
 213.875 26.25 l 1,21,-1
 213.875 116.25 l 1,22,-1
 303.875 116.25 l 1,23,-1
 303.875 26.25 l 1,24,-1
 303.875 26.25 l 1,20,-1
-53.625 473.75 m 1,25,-1
 35.125 473.75 l 1,26,-1
 35.125 383.75 l 1,27,-1
 -53.625 383.75 l 1,28,-1
 -53.625 473.75 l 1,29,-1
 -53.625 473.75 l 1,25,-1
-53.625 26.25 m 1,30,-1
 -53.625 116.25 l 1,31,-1
 35.125 116.25 l 1,32,-1
 35.125 26.25 l 1,33,-1
 -53.625 26.25 l 1,34,-1
 -53.625 26.25 l 1,30,-1
213.875 295 m 1,35,-1
 213.875 205 l 1,36,-1
 125.125 205 l 1,37,-1
 125.125 295 l 1,38,-1
 213.875 295 l 1,39,-1
 213.875 295 l 1,35,-1
35.125 383.75 m 1,40,-1
 125.125 383.75 l 1,41,-1
 125.125 295 l 1,42,-1
 35.125 295 l 1,43,-1
 35.125 383.75 l 1,44,-1
 35.125 383.75 l 1,40,-1
35.125 116.25 m 1,45,-1
 35.125 205 l 1,46,-1
 125.125 205 l 1,47,-1
 125.125 116.25 l 1,48,-1
 35.125 116.25 l 1,49,-1
 35.125 116.25 l 1,45,-1
EndSplineSet
EndChar

StartChar: onequarter
Encoding: 188 188 121
Width: 973
VWidth: 1178
Flags: W
LayerCount: 2
Fore
SplineSet
259.25 196.125 m 1,0,-1
 259.25 284.875 l 1,1,-1
 348 284.875 l 1,2,-1
 348 196.125 l 1,3,-1
 259.25 196.125 l 1,0,-1
169.25 106.125 m 1,4,-1
 169.25 196.125 l 1,5,-1
 259.25 196.125 l 1,6,-1
 259.25 106.125 l 1,7,-1
 169.25 106.125 l 1,4,-1
80.5 17.375 m 1,8,-1
 80.5 106.125 l 1,9,-1
 169.25 106.125 l 1,10,-1
 169.25 17.375 l 1,11,-1
 80.5 17.375 l 1,8,-1
-9.5 -71.375 m 1,12,-1
 -9.5 17.375 l 1,13,-1
 80.5 17.375 l 1,14,-1
 80.5 -71.375 l 1,15,-1
 -9.5 -71.375 l 1,12,-1
438 374.875 m 1,16,-1
 438 463.625 l 1,17,-1
 526.75 463.625 l 1,18,-1
 526.75 374.875 l 1,19,-1
 438 374.875 l 1,16,-1
348 284.875 m 1,20,-1
 348 374.875 l 1,21,-1
 438 374.875 l 1,22,-1
 438 284.875 l 1,23,-1
 348 284.875 l 1,20,-1
615.5 553.625 m 1,24,-1
 615.5 463.625 l 1,25,-1
 526.75 463.625 l 1,26,-1
 526.75 553.625 l 1,27,-1
 615.5 553.625 l 1,24,-1
705.5 642.375 m 1,28,-1
 705.5 553.625 l 1,29,-1
 615.5 553.625 l 1,30,-1
 615.5 642.375 l 1,31,-1
 705.5 642.375 l 1,28,-1
-9.5 196.125 m 1,32,-1
 -9.5 553.625 l 1,33,-1
 -98.25 553.625 l 1,34,-1
 -98.25 642.375 l 1,35,-1
 80.5 642.375 l 1,36,-1
 80.5 196.125 l 1,37,-1
 -9.5 196.125 l 1,32,-1
794.25 374.875 m 1,38,-1
 884.25 374.875 l 1,39,-1
 884.25 -71.375 l 1,40,-1
 794.25 -71.375 l 1,41,-1
 794.25 106.125 l 1,42,-1
 615.5 106.125 l 1,43,-1
 615.5 374.875 l 1,44,-1
 705.5 374.875 l 1,45,-1
 705.5 196.125 l 1,46,-1
 794.25 196.125 l 1,47,-1
 794.25 374.875 l 1,38,-1
EndSplineSet
EndChar

StartChar: onehalf
Encoding: 189 189 122
Width: 973
VWidth: 1178
Flags: W
LayerCount: 2
Fore
SplineSet
348 284.875 m 1,0,-1
 348 374.875 l 1,1,-1
 438 374.875 l 1,2,-1
 438 284.875 l 1,3,-1
 348 284.875 l 1,0,-1
438 374.875 m 1,4,-1
 438 463.625 l 1,5,-1
 526.75 463.625 l 1,6,-1
 526.75 374.875 l 1,7,-1
 438 374.875 l 1,4,-1
169.25 106.125 m 1,8,-1
 169.25 196.125 l 1,9,-1
 259.25 196.125 l 1,10,-1
 259.25 106.125 l 1,11,-1
 169.25 106.125 l 1,8,-1
259.25 196.125 m 1,12,-1
 259.25 284.875 l 1,13,-1
 348 284.875 l 1,14,-1
 348 196.125 l 1,15,-1
 259.25 196.125 l 1,12,-1
705.5 642.375 m 1,16,-1
 705.5 553.625 l 1,17,-1
 615.5 553.625 l 1,18,-1
 615.5 642.375 l 1,19,-1
 705.5 642.375 l 1,16,-1
615.5 553.625 m 1,20,-1
 615.5 463.625 l 1,21,-1
 526.75 463.625 l 1,22,-1
 526.75 553.625 l 1,23,-1
 615.5 553.625 l 1,20,-1
-9.5 -71.375 m 1,24,-1
 -9.5 17.375 l 1,25,-1
 80.5 17.375 l 1,26,-1
 80.5 -71.375 l 1,27,-1
 -9.5 -71.375 l 1,24,-1
80.5 17.375 m 1,28,-1
 80.5 106.125 l 1,29,-1
 169.25 106.125 l 1,30,-1
 169.25 17.375 l 1,31,-1
 80.5 17.375 l 1,28,-1
-9.5 196.125 m 1,32,-1
 -9.5 553.625 l 1,33,-1
 -98.25 553.625 l 1,34,-1
 -98.25 642.375 l 1,35,-1
 80.5 642.375 l 1,36,-1
 80.5 196.125 l 1,37,-1
 -9.5 196.125 l 1,32,-1
884.25 284.875 m 1,38,-1
 884.25 196.125 l 1,39,-1
 794.25 196.125 l 1,40,-1
 794.25 284.875 l 1,41,-1
 884.25 284.875 l 1,38,-1
794.25 196.125 m 1,42,-1
 794.25 106.125 l 1,43,-1
 705.5 106.125 l 1,44,-1
 705.5 196.125 l 1,45,-1
 794.25 196.125 l 1,42,-1
615.5 106.125 m 1,46,-1
 705.5 106.125 l 1,47,-1
 705.5 17.375 l 1,48,-1
 884.25 17.375 l 1,49,-1
 884.25 -71.375 l 1,50,-1
 615.5 -71.375 l 1,51,-1
 615.5 106.125 l 1,46,-1
615.5 374.875 m 1,52,-1
 794.25 374.875 l 1,53,-1
 794.25 284.875 l 1,54,-1
 615.5 284.875 l 1,55,-1
 615.5 374.875 l 1,52,-1
EndSplineSet
EndChar

StartChar: threequarters
Encoding: 190 190 123
Width: 973
VWidth: 1178
Flags: W
LayerCount: 2
Fore
SplineSet
348 284.875 m 1,0,-1
 348 374.875 l 1,1,-1
 438 374.875 l 1,2,-1
 438 284.875 l 1,3,-1
 348 284.875 l 1,0,-1
259.25 196.125 m 1,4,-1
 259.25 284.875 l 1,5,-1
 348 284.875 l 1,6,-1
 348 196.125 l 1,7,-1
 259.25 196.125 l 1,4,-1
80.5 17.375 m 1,8,-1
 80.5 106.125 l 1,9,-1
 169.25 106.125 l 1,10,-1
 169.25 17.375 l 1,11,-1
 80.5 17.375 l 1,8,-1
-9.5 -71.375 m 1,12,-1
 -9.5 17.375 l 1,13,-1
 80.5 17.375 l 1,14,-1
 80.5 -71.375 l 1,15,-1
 -9.5 -71.375 l 1,12,-1
169.25 106.125 m 1,16,-1
 169.25 196.125 l 1,17,-1
 259.25 196.125 l 1,18,-1
 259.25 106.125 l 1,19,-1
 169.25 106.125 l 1,16,-1
438 374.875 m 1,20,-1
 438 463.625 l 1,21,-1
 526.75 463.625 l 1,22,-1
 526.75 374.875 l 1,23,-1
 438 374.875 l 1,20,-1
615.5 553.625 m 1,24,-1
 615.5 463.625 l 1,25,-1
 526.75 463.625 l 1,26,-1
 526.75 553.625 l 1,27,-1
 615.5 553.625 l 1,24,-1
794.25 374.875 m 1,28,-1
 884.25 374.875 l 1,29,-1
 884.25 -71.375 l 1,30,-1
 794.25 -71.375 l 1,31,-1
 794.25 106.125 l 1,32,-1
 615.5 106.125 l 1,33,-1
 615.5 374.875 l 1,34,-1
 705.5 374.875 l 1,35,-1
 705.5 196.125 l 1,36,-1
 794.25 196.125 l 1,37,-1
 794.25 374.875 l 1,28,-1
705.5 642.375 m 1,38,-1
 705.5 553.625 l 1,39,-1
 615.5 553.625 l 1,40,-1
 615.5 642.375 l 1,41,-1
 705.5 642.375 l 1,38,-1
-98.25 642.375 m 1,42,-1
 80.5 642.375 l 1,43,-1
 80.5 553.625 l 1,44,-1
 -98.25 553.625 l 1,45,-1
 -98.25 642.375 l 1,42,-1
169.25 553.625 m 1,46,-1
 169.25 463.625 l 1,47,-1
 80.5 463.625 l 1,48,-1
 80.5 553.625 l 1,49,-1
 169.25 553.625 l 1,46,-1
-98.25 463.625 m 1,50,-1
 80.5 463.625 l 1,51,-1
 80.5 374.875 l 1,52,-1
 -98.25 374.875 l 1,53,-1
 -98.25 463.625 l 1,50,-1
169.25 374.875 m 1,54,-1
 169.25 284.875 l 1,55,-1
 80.5 284.875 l 1,56,-1
 80.5 374.875 l 1,57,-1
 169.25 374.875 l 1,54,-1
80.5 284.875 m 1,58,-1
 80.5 196.125 l 1,59,-1
 -98.25 196.125 l 1,60,-1
 -98.25 284.875 l 1,61,-1
 80.5 284.875 l 1,58,-1
EndSplineSet
EndChar

StartChar: questiondown
Encoding: 191 191 124
Width: 490
VWidth: 1223
Flags: W
LayerCount: 2
Fore
SplineSet
222.875 419.5 m 1,0,-1
 222.875 330.75 l 1,1,-1
 134.125 330.75 l 1,2,-1
 134.125 419.5 l 1,3,-1
 222.875 419.5 l 1,0,-1
222.875 240.75 m 1,4,-1
 222.875 152 l 1,5,-1
 134.125 152 l 1,6,-1
 134.125 240.75 l 1,7,-1
 222.875 240.75 l 1,4,-1
134.125 152 m 1,8,-1
 134.125 62 l 1,9,-1
 44.125 62 l 1,10,-1
 44.125 152 l 1,11,-1
 134.125 152 l 1,8,-1
44.125 -115.5 m 1,12,-1
 -44.625 -115.5 l 1,13,-1
 -44.625 62 l 1,14,-1
 44.125 62 l 1,15,-1
 44.125 -115.5 l 1,12,-1
312.875 -205.5 m 1,16,-1
 44.125 -205.5 l 1,17,-1
 44.125 -115.5 l 1,18,-1
 312.875 -115.5 l 1,19,-1
 312.875 -205.5 l 1,16,-1
401.625 -26.75 m 1,20,-1
 401.625 -115.5 l 1,21,-1
 312.875 -115.5 l 1,22,-1
 312.875 -26.75 l 1,23,-1
 401.625 -26.75 l 1,20,-1
EndSplineSet
EndChar

StartChar: Agrave
Encoding: 192 192 125
Width: 490
VWidth: 1160
Flags: W
LayerCount: 2
Fore
SplineSet
134.125 714.5 m 1,0,-1
 222.875 714.5 l 1,1,-1
 222.875 624.5 l 1,2,-1
 134.125 624.5 l 1,3,-1
 134.125 714.5 l 1,0,-1
44.125 803.25 m 1,4,-1
 134.125 803.25 l 1,5,-1
 134.125 714.5 l 1,6,-1
 44.125 714.5 l 1,7,-1
 44.125 803.25 l 1,4,-1
312.875 535.75 m 1,8,-1
 312.875 447 l 1,9,-1
 44.125 447 l 1,10,-1
 44.125 535.75 l 1,11,-1
 312.875 535.75 l 1,8,-1
312.875 447 m 1,12,-1
 401.625 447 l 1,13,-1
 401.625 -89.25 l 1,14,-1
 312.875 -89.25 l 1,15,-1
 312.875 178.25 l 1,16,-1
 44.125 178.25 l 1,17,-1
 44.125 -89.25 l 1,18,-1
 -44.625 -89.25 l 1,19,-1
 -44.625 447 l 1,20,-1
 44.125 447 l 1,21,-1
 44.125 268.25 l 1,22,-1
 312.875 268.25 l 1,23,-1
 312.875 447 l 1,12,-1
EndSplineSet
EndChar

StartChar: Aacute
Encoding: 193 193 126
Width: 490
VWidth: 1160
Flags: W
LayerCount: 2
Fore
SplineSet
222.875 714.5 m 1,0,-1
 222.875 624.5 l 1,1,-1
 134.125 624.5 l 1,2,-1
 134.125 714.5 l 1,3,-1
 222.875 714.5 l 1,4,-1
 222.875 714.5 l 1,0,-1
312.875 803.25 m 1,5,-1
 312.875 714.5 l 1,6,-1
 222.875 714.5 l 1,7,-1
 222.875 803.25 l 1,8,-1
 312.875 803.25 l 1,9,-1
 312.875 803.25 l 1,5,-1
312.875 535.75 m 1,10,-1
 44.125 535.75 l 1,11,-1
 44.125 447 l 1,12,-1
 312.875 447 l 1,13,-1
 312.875 535.75 l 1,14,-1
 312.875 535.75 l 1,10,-1
312.875 447 m 1,15,-1
 312.875 268.25 l 1,16,-1
 44.125 268.25 l 1,17,-1
 44.125 447 l 1,18,-1
 -44.625 447 l 1,19,-1
 -44.625 -89.25 l 1,20,-1
 44.125 -89.25 l 1,21,-1
 44.125 178.25 l 1,22,-1
 312.875 178.25 l 1,23,-1
 312.875 -89.25 l 1,24,-1
 401.625 -89.25 l 1,25,-1
 401.625 447 l 1,26,-1
 312.875 447 l 1,27,-1
 312.875 447 l 1,15,-1
EndSplineSet
EndChar

StartChar: Acircumflex
Encoding: 194 194 127
Width: 490
VWidth: 1160
Flags: W
LayerCount: 2
Fore
SplineSet
44.125 624.5 m 1,0,-1
 44.125 714.5 l 1,1,-1
 134.125 714.5 l 1,2,-1
 134.125 624.5 l 1,3,-1
 44.125 624.5 l 1,0,-1
134.125 803.25 m 1,4,-1
 222.875 803.25 l 1,5,-1
 222.875 714.5 l 1,6,-1
 134.125 714.5 l 1,7,-1
 134.125 803.25 l 1,4,-1
222.875 714.5 m 1,8,-1
 312.875 714.5 l 1,9,-1
 312.875 624.5 l 1,10,-1
 222.875 624.5 l 1,11,-1
 222.875 714.5 l 1,8,-1
312.875 535.75 m 1,12,-1
 312.875 447 l 1,13,-1
 44.125 447 l 1,14,-1
 44.125 535.75 l 1,15,-1
 312.875 535.75 l 1,12,-1
312.875 447 m 1,16,-1
 401.625 447 l 1,17,-1
 401.625 -89.25 l 1,18,-1
 312.875 -89.25 l 1,19,-1
 312.875 178.25 l 1,20,-1
 44.125 178.25 l 1,21,-1
 44.125 -89.25 l 1,22,-1
 -44.625 -89.25 l 1,23,-1
 -44.625 447 l 1,24,-1
 44.125 447 l 1,25,-1
 44.125 268.25 l 1,26,-1
 312.875 268.25 l 1,27,-1
 312.875 447 l 1,16,-1
EndSplineSet
EndChar

StartChar: Atilde
Encoding: 195 195 128
Width: 490
VWidth: 1169
Flags: W
LayerCount: 2
Fore
SplineSet
312.875 633.375 m 1,0,-1
 44.125 633.375 l 1,1,-1
 44.125 723.375 l 1,2,-1
 312.875 723.375 l 1,3,-1
 312.875 633.375 l 1,4,-1
 312.875 633.375 l 1,0,-1
312.875 544.625 m 1,5,-1
 44.125 544.625 l 1,6,-1
 44.125 455.875 l 1,7,-1
 312.875 455.875 l 1,8,-1
 312.875 544.625 l 1,9,-1
 312.875 544.625 l 1,5,-1
312.875 455.875 m 1,10,-1
 312.875 277.125 l 1,11,-1
 44.125 277.125 l 1,12,-1
 44.125 455.875 l 1,13,-1
 -44.625 455.875 l 1,14,-1
 -44.625 -80.375 l 1,15,-1
 44.125 -80.375 l 1,16,-1
 44.125 187.125 l 1,17,-1
 312.875 187.125 l 1,18,-1
 312.875 -80.375 l 1,19,-1
 401.625 -80.375 l 1,20,-1
 401.625 455.875 l 1,21,-1
 312.875 455.875 l 1,22,-1
 312.875 455.875 l 1,10,-1
EndSplineSet
EndChar

StartChar: Adieresis
Encoding: 196 196 129
Width: 490
VWidth: 1169
Flags: W
LayerCount: 2
Fore
SplineSet
44.125 633.375 m 1,0,-1
 44.125 723.375 l 1,1,-1
 134.125 723.375 l 1,2,-1
 134.125 633.375 l 1,3,-1
 44.125 633.375 l 1,0,-1
222.875 723.375 m 1,4,-1
 312.875 723.375 l 1,5,-1
 312.875 633.375 l 1,6,-1
 222.875 633.375 l 1,7,-1
 222.875 723.375 l 1,4,-1
312.875 544.625 m 1,8,-1
 312.875 455.875 l 1,9,-1
 44.125 455.875 l 1,10,-1
 44.125 544.625 l 1,11,-1
 312.875 544.625 l 1,8,-1
312.875 455.875 m 1,12,-1
 401.625 455.875 l 1,13,-1
 401.625 -80.375 l 1,14,-1
 312.875 -80.375 l 1,15,-1
 312.875 187.125 l 1,16,-1
 44.125 187.125 l 1,17,-1
 44.125 -80.375 l 1,18,-1
 -44.625 -80.375 l 1,19,-1
 -44.625 455.875 l 1,20,-1
 44.125 455.875 l 1,21,-1
 44.125 277.125 l 1,22,-1
 312.875 277.125 l 1,23,-1
 312.875 455.875 l 1,12,-1
EndSplineSet
EndChar

StartChar: Aring
Encoding: 197 197 130
Width: 490
VWidth: 1151
Flags: W
LayerCount: 2
Fore
SplineSet
134.125 615.5 m 1,0,-1
 134.125 705.5 l 1,1,-1
 222.875 705.5 l 1,2,-1
 222.875 615.5 l 1,3,-1
 134.125 615.5 l 1,0,-1
44.125 794.25 m 1,4,-1
 134.125 794.25 l 1,5,-1
 134.125 705.5 l 1,6,-1
 44.125 705.5 l 1,7,-1
 44.125 794.25 l 1,4,-1
222.875 884.25 m 1,8,-1
 222.875 794.25 l 1,9,-1
 134.125 794.25 l 1,10,-1
 134.125 884.25 l 1,11,-1
 222.875 884.25 l 1,8,-1
222.875 794.25 m 1,12,-1
 312.875 794.25 l 1,13,-1
 312.875 705.5 l 1,14,-1
 222.875 705.5 l 1,15,-1
 222.875 794.25 l 1,12,-1
312.875 526.75 m 1,16,-1
 312.875 438 l 1,17,-1
 44.125 438 l 1,18,-1
 44.125 526.75 l 1,19,-1
 312.875 526.75 l 1,16,-1
312.875 438 m 1,20,-1
 401.625 438 l 1,21,-1
 401.625 -98.25 l 1,22,-1
 312.875 -98.25 l 1,23,-1
 312.875 169.25 l 1,24,-1
 44.125 169.25 l 1,25,-1
 44.125 -98.25 l 1,26,-1
 -44.625 -98.25 l 1,27,-1
 -44.625 438 l 1,28,-1
 44.125 438 l 1,29,-1
 44.125 259.25 l 1,30,-1
 312.875 259.25 l 1,31,-1
 312.875 438 l 1,20,-1
EndSplineSet
EndChar

StartChar: AE
Encoding: 198 198 131
Width: 812
VWidth: 1187
Flags: W
LayerCount: 2
Fore
SplineSet
365.875 562.5 m 1,0,-1
 723.375 562.5 l 1,1,-1
 723.375 473.75 l 1,2,-1
 365.875 473.75 l 1,3,-1
 365.875 562.5 l 1,0,-1
365.875 473.75 m 1,4,-1
 365.875 295 l 1,5,-1
 723.375 295 l 1,6,-1
 723.375 205 l 1,7,-1
 365.875 205 l 1,8,-1
 365.875 26.25 l 1,9,-1
 723.375 26.25 l 1,10,-1
 723.375 -62.5 l 1,11,-1
 277.125 -62.5 l 1,12,-1
 277.125 205 l 1,13,-1
 8.375 205 l 1,14,-1
 8.375 -62.5 l 1,15,-1
 -80.375 -62.5 l 1,16,-1
 -80.375 473.75 l 1,17,-1
 8.375 473.75 l 1,18,-1
 8.375 295 l 1,19,-1
 277.125 295 l 1,20,-1
 277.125 473.75 l 1,21,-1
 8.375 473.75 l 1,22,-1
 8.375 562.5 l 1,23,-1
 277.125 562.5 l 1,24,-1
 277.125 473.75 l 1,25,-1
 365.875 473.75 l 1,4,-1
EndSplineSet
EndChar

StartChar: Ccedilla
Encoding: 199 199 132
Width: 490
VWidth: 1205
Flags: W
LayerCount: 2
Fore
SplineSet
401.625 580.375 m 1,0,-1
 401.625 491.625 l 1,1,-1
 44.125 491.625 l 1,2,-1
 44.125 580.375 l 1,3,-1
 401.625 580.375 l 1,0,-1
222.875 -44.625 m 1,4,-1
 44.125 -44.625 l 1,5,-1
 44.125 44.125 l 1,6,-1
 401.625 44.125 l 1,7,-1
 401.625 -44.625 l 1,8,-1
 312.875 -44.625 l 1,9,-1
 312.875 -133.375 l 1,10,-1
 222.875 -133.375 l 1,11,-1
 222.875 -44.625 l 1,4,-1
-44.625 491.625 m 1,12,-1
 44.125 491.625 l 1,13,-1
 44.125 44.125 l 1,14,-1
 -44.625 44.125 l 1,15,-1
 -44.625 491.625 l 1,12,-1
134.125 -223.375 m 1,16,-1
 134.125 -133.375 l 1,17,-1
 222.875 -133.375 l 1,18,-1
 222.875 -223.375 l 1,19,-1
 134.125 -223.375 l 1,16,-1
EndSplineSet
EndChar

StartChar: Egrave
Encoding: 200 200 133
Width: 490
VWidth: 1160
Flags: W
LayerCount: 2
Fore
SplineSet
401.625 447 m 1,0,-1
 44.125 447 l 1,1,-1
 44.125 268.25 l 1,2,-1
 401.625 268.25 l 1,3,-1
 401.625 178.25 l 1,4,-1
 44.125 178.25 l 1,5,-1
 44.125 -0.5 l 1,6,-1
 401.625 -0.5 l 1,7,-1
 401.625 -89.25 l 1,8,-1
 -44.625 -89.25 l 1,9,-1
 -44.625 535.75 l 1,10,-1
 401.625 535.75 l 1,11,-1
 401.625 447 l 1,0,-1
222.875 714.5 m 1,12,-1
 222.875 624.5 l 1,13,-1
 134.125 624.5 l 1,14,-1
 134.125 714.5 l 1,15,-1
 222.875 714.5 l 1,12,-1
134.125 803.25 m 1,16,-1
 134.125 714.5 l 1,17,-1
 44.125 714.5 l 1,18,-1
 44.125 803.25 l 1,19,-1
 134.125 803.25 l 1,16,-1
EndSplineSet
EndChar

StartChar: Eacute
Encoding: 201 201 134
Width: 490
VWidth: 1160
Flags: W
LayerCount: 2
Fore
SplineSet
401.625 447 m 1,0,-1
 401.625 535.75 l 1,1,-1
 -44.625 535.75 l 1,2,-1
 -44.625 -89.25 l 1,3,-1
 401.625 -89.25 l 1,4,-1
 401.625 -0.5 l 1,5,-1
 44.125 -0.5 l 1,6,-1
 44.125 178.25 l 1,7,-1
 401.625 178.25 l 1,8,-1
 401.625 268.25 l 1,9,-1
 44.125 268.25 l 1,10,-1
 44.125 447 l 1,11,-1
 401.625 447 l 1,12,-1
 401.625 447 l 1,0,-1
222.875 714.5 m 1,13,-1
 222.875 624.5 l 1,14,-1
 134.125 624.5 l 1,15,-1
 134.125 714.5 l 1,16,-1
 222.875 714.5 l 1,13,-1
312.875 803.25 m 1,17,-1
 312.875 714.5 l 1,18,-1
 222.875 714.5 l 1,19,-1
 222.875 803.25 l 1,20,-1
 312.875 803.25 l 1,17,-1
EndSplineSet
EndChar

StartChar: Ecircumflex
Encoding: 202 202 135
Width: 490
VWidth: 1160
Flags: W
LayerCount: 2
Fore
SplineSet
401.625 447 m 1,0,-1
 44.125 447 l 1,1,-1
 44.125 268.25 l 1,2,-1
 401.625 268.25 l 1,3,-1
 401.625 178.25 l 1,4,-1
 44.125 178.25 l 1,5,-1
 44.125 -0.5 l 1,6,-1
 401.625 -0.5 l 1,7,-1
 401.625 -89.25 l 1,8,-1
 -44.625 -89.25 l 1,9,-1
 -44.625 535.75 l 1,10,-1
 401.625 535.75 l 1,11,-1
 401.625 447 l 1,0,-1
44.125 714.5 m 1,12,-1
 134.125 714.5 l 1,13,-1
 134.125 624.5 l 1,14,-1
 44.125 624.5 l 1,15,-1
 44.125 714.5 l 1,12,-1
222.875 803.25 m 1,16,-1
 222.875 714.5 l 1,17,-1
 134.125 714.5 l 1,18,-1
 134.125 803.25 l 1,19,-1
 222.875 803.25 l 1,16,-1
312.875 714.5 m 1,20,-1
 312.875 624.5 l 1,21,-1
 222.875 624.5 l 1,22,-1
 222.875 714.5 l 1,23,-1
 312.875 714.5 l 1,20,-1
EndSplineSet
EndChar

StartChar: Edieresis
Encoding: 203 203 136
Width: 490
VWidth: 1169
Flags: W
LayerCount: 2
Fore
SplineSet
401.625 455.875 m 1,0,-1
 44.125 455.875 l 1,1,-1
 44.125 277.125 l 1,2,-1
 401.625 277.125 l 1,3,-1
 401.625 187.125 l 1,4,-1
 44.125 187.125 l 1,5,-1
 44.125 8.375 l 1,6,-1
 401.625 8.375 l 1,7,-1
 401.625 -80.375 l 1,8,-1
 -44.625 -80.375 l 1,9,-1
 -44.625 544.625 l 1,10,-1
 401.625 544.625 l 1,11,-1
 401.625 455.875 l 1,0,-1
44.125 723.375 m 1,12,-1
 134.125 723.375 l 1,13,-1
 134.125 633.375 l 1,14,-1
 44.125 633.375 l 1,15,-1
 44.125 723.375 l 1,12,-1
312.875 723.375 m 1,16,-1
 312.875 633.375 l 1,17,-1
 222.875 633.375 l 1,18,-1
 222.875 723.375 l 1,19,-1
 312.875 723.375 l 1,16,-1
EndSplineSet
EndChar

StartChar: Igrave
Encoding: 204 204 137
Width: 329
VWidth: 1160
Flags: W
LayerCount: 2
Fore
SplineSet
62 714.5 m 1,0,-1
 152 714.5 l 1,1,-1
 152 624.5 l 1,2,-1
 62 624.5 l 1,3,-1
 62 714.5 l 1,0,-1
-26.75 803.25 m 1,4,-1
 62 803.25 l 1,5,-1
 62 714.5 l 1,6,-1
 -26.75 714.5 l 1,7,-1
 -26.75 803.25 l 1,4,-1
240.75 447 m 1,8,-1
 152 447 l 1,9,-1
 152 -0.5 l 1,10,-1
 240.75 -0.5 l 1,11,-1
 240.75 -89.25 l 1,12,-1
 -26.75 -89.25 l 1,13,-1
 -26.75 -0.5 l 1,14,-1
 62 -0.5 l 1,15,-1
 62 447 l 1,16,-1
 -26.75 447 l 1,17,-1
 -26.75 535.75 l 1,18,-1
 240.75 535.75 l 1,19,-1
 240.75 447 l 1,8,-1
EndSplineSet
EndChar

StartChar: Iacute
Encoding: 205 205 138
Width: 329
VWidth: 1160
Flags: W
LayerCount: 2
Fore
SplineSet
152 714.5 m 1,0,-1
 152 624.5 l 1,1,-1
 62 624.5 l 1,2,-1
 62 714.5 l 1,3,-1
 152 714.5 l 1,4,-1
 152 714.5 l 1,0,-1
240.75 803.25 m 1,5,-1
 240.75 714.5 l 1,6,-1
 152 714.5 l 1,7,-1
 152 803.25 l 1,8,-1
 240.75 803.25 l 1,9,-1
 240.75 803.25 l 1,5,-1
240.75 447 m 1,10,-1
 240.75 535.75 l 1,11,-1
 -26.75 535.75 l 1,12,-1
 -26.75 447 l 1,13,-1
 62 447 l 1,14,-1
 62 -0.5 l 1,15,-1
 -26.75 -0.5 l 1,16,-1
 -26.75 -89.25 l 1,17,-1
 240.75 -89.25 l 1,18,-1
 240.75 -0.5 l 1,19,-1
 152 -0.5 l 1,20,-1
 152 447 l 1,21,-1
 240.75 447 l 1,22,-1
 240.75 447 l 1,10,-1
EndSplineSet
EndChar

StartChar: Icircumflex
Encoding: 206 206 139
Width: 329
VWidth: 1160
Flags: W
LayerCount: 2
Fore
SplineSet
-26.75 624.5 m 1,0,-1
 -26.75 714.5 l 1,1,-1
 62 714.5 l 1,2,-1
 62 624.5 l 1,3,-1
 -26.75 624.5 l 1,0,-1
62 803.25 m 1,4,-1
 152 803.25 l 1,5,-1
 152 714.5 l 1,6,-1
 62 714.5 l 1,7,-1
 62 803.25 l 1,4,-1
152 714.5 m 1,8,-1
 240.75 714.5 l 1,9,-1
 240.75 624.5 l 1,10,-1
 152 624.5 l 1,11,-1
 152 714.5 l 1,8,-1
240.75 447 m 1,12,-1
 152 447 l 1,13,-1
 152 -0.5 l 1,14,-1
 240.75 -0.5 l 1,15,-1
 240.75 -89.25 l 1,16,-1
 -26.75 -89.25 l 1,17,-1
 -26.75 -0.5 l 1,18,-1
 62 -0.5 l 1,19,-1
 62 447 l 1,20,-1
 -26.75 447 l 1,21,-1
 -26.75 535.75 l 1,22,-1
 240.75 535.75 l 1,23,-1
 240.75 447 l 1,12,-1
EndSplineSet
EndChar

StartChar: Idieresis
Encoding: 207 207 140
Width: 329
VWidth: 1169
Flags: W
LayerCount: 2
Fore
SplineSet
-26.75 633.375 m 1,0,-1
 -26.75 723.375 l 1,1,-1
 62 723.375 l 1,2,-1
 62 633.375 l 1,3,-1
 -26.75 633.375 l 1,0,-1
152 723.375 m 1,4,-1
 240.75 723.375 l 1,5,-1
 240.75 633.375 l 1,6,-1
 152 633.375 l 1,7,-1
 152 723.375 l 1,4,-1
240.75 455.875 m 1,8,-1
 152 455.875 l 1,9,-1
 152 8.375 l 1,10,-1
 240.75 8.375 l 1,11,-1
 240.75 -80.375 l 1,12,-1
 -26.75 -80.375 l 1,13,-1
 -26.75 8.375 l 1,14,-1
 62 8.375 l 1,15,-1
 62 455.875 l 1,16,-1
 -26.75 455.875 l 1,17,-1
 -26.75 544.625 l 1,18,-1
 240.75 544.625 l 1,19,-1
 240.75 455.875 l 1,8,-1
EndSplineSet
EndChar

StartChar: Eth
Encoding: 208 208 141
Width: 571
VWidth: 1187
Flags: W
LayerCount: 2
Fore
SplineSet
125.125 205 m 1,0,-1
 125.125 26.25 l 1,1,-1
 392.625 26.25 l 1,2,-1
 392.625 -62.5 l 1,3,-1
 35.125 -62.5 l 1,4,-1
 35.125 205 l 1,5,-1
 -53.625 205 l 1,6,-1
 -53.625 295 l 1,7,-1
 35.125 295 l 1,8,-1
 35.125 562.5 l 1,9,-1
 392.625 562.5 l 1,10,-1
 392.625 473.75 l 1,11,-1
 125.125 473.75 l 1,12,-1
 125.125 295 l 1,13,-1
 213.875 295 l 1,14,-1
 213.875 205 l 1,15,-1
 125.125 205 l 1,0,-1
392.625 473.75 m 1,16,-1
 482.625 473.75 l 1,17,-1
 482.625 26.25 l 1,18,-1
 392.625 26.25 l 1,19,-1
 392.625 473.75 l 1,16,-1
EndSplineSet
EndChar

StartChar: Ntilde
Encoding: 209 209 142
Width: 490
VWidth: 1169
Flags: W
LayerCount: 2
Fore
SplineSet
44.125 365.875 m 1,0,-1
 134.125 365.875 l 1,1,-1
 134.125 277.125 l 1,2,-1
 44.125 277.125 l 1,3,-1
 44.125 -80.375 l 1,4,-1
 -44.625 -80.375 l 1,5,-1
 -44.625 544.625 l 1,6,-1
 44.125 544.625 l 1,7,-1
 44.125 365.875 l 1,0,-1
134.125 277.125 m 1,8,-1
 222.875 277.125 l 1,9,-1
 222.875 187.125 l 1,10,-1
 134.125 187.125 l 1,11,-1
 134.125 277.125 l 1,8,-1
312.875 544.625 m 1,12,-1
 401.625 544.625 l 1,13,-1
 401.625 -80.375 l 1,14,-1
 312.875 -80.375 l 1,15,-1
 312.875 98.375 l 1,16,-1
 222.875 98.375 l 1,17,-1
 222.875 187.125 l 1,18,-1
 312.875 187.125 l 1,19,-1
 312.875 544.625 l 1,12,-1
312.875 723.375 m 1,20,-1
 312.875 633.375 l 1,21,-1
 44.125 633.375 l 1,22,-1
 44.125 723.375 l 1,23,-1
 312.875 723.375 l 1,20,-1
EndSplineSet
EndChar

StartChar: Ograve
Encoding: 210 210 143
Width: 490
VWidth: 1160
Flags: W
LayerCount: 2
Fore
SplineSet
222.875 714.5 m 1,0,-1
 222.875 624.5 l 1,1,-1
 134.125 624.5 l 1,2,-1
 134.125 714.5 l 1,3,-1
 222.875 714.5 l 1,0,-1
134.125 803.25 m 1,4,-1
 134.125 714.5 l 1,5,-1
 44.125 714.5 l 1,6,-1
 44.125 803.25 l 1,7,-1
 134.125 803.25 l 1,4,-1
44.125 -89.25 m 1,8,-1
 44.125 -0.5 l 1,9,-1
 312.875 -0.5 l 1,10,-1
 312.875 -89.25 l 1,11,-1
 44.125 -89.25 l 1,8,-1
-44.625 447 m 1,12,-1
 44.125 447 l 1,13,-1
 44.125 -0.5 l 1,14,-1
 -44.625 -0.5 l 1,15,-1
 -44.625 447 l 1,12,-1
312.875 535.75 m 1,16,-1
 312.875 447 l 1,17,-1
 44.125 447 l 1,18,-1
 44.125 535.75 l 1,19,-1
 312.875 535.75 l 1,16,-1
312.875 447 m 1,20,-1
 401.625 447 l 1,21,-1
 401.625 -0.5 l 1,22,-1
 312.875 -0.5 l 1,23,-1
 312.875 447 l 1,20,-1
EndSplineSet
EndChar

StartChar: Oacute
Encoding: 211 211 144
Width: 490
VWidth: 1160
Flags: W
LayerCount: 2
Fore
SplineSet
222.875 714.5 m 1,0,-1
 222.875 624.5 l 1,1,-1
 134.125 624.5 l 1,2,-1
 134.125 714.5 l 1,3,-1
 222.875 714.5 l 1,0,-1
312.875 803.25 m 1,4,-1
 312.875 714.5 l 1,5,-1
 222.875 714.5 l 1,6,-1
 222.875 803.25 l 1,7,-1
 312.875 803.25 l 1,4,-1
44.125 -89.25 m 1,8,-1
 312.875 -89.25 l 1,9,-1
 312.875 -0.5 l 1,10,-1
 44.125 -0.5 l 1,11,-1
 44.125 -89.25 l 1,12,-1
 44.125 -89.25 l 1,8,-1
-44.625 447 m 1,13,-1
 -44.625 -0.5 l 1,14,-1
 44.125 -0.5 l 1,15,-1
 44.125 447 l 1,16,-1
 -44.625 447 l 1,17,-1
 -44.625 447 l 1,13,-1
312.875 535.75 m 1,18,-1
 44.125 535.75 l 1,19,-1
 44.125 447 l 1,20,-1
 312.875 447 l 1,21,-1
 312.875 535.75 l 1,22,-1
 312.875 535.75 l 1,18,-1
312.875 447 m 1,23,-1
 312.875 -0.5 l 1,24,-1
 401.625 -0.5 l 1,25,-1
 401.625 447 l 1,26,-1
 312.875 447 l 1,27,-1
 312.875 447 l 1,23,-1
EndSplineSet
EndChar

StartChar: Ocircumflex
Encoding: 212 212 145
Width: 490
VWidth: 1160
Flags: W
LayerCount: 2
Fore
SplineSet
44.125 714.5 m 1,0,-1
 134.125 714.5 l 1,1,-1
 134.125 624.5 l 1,2,-1
 44.125 624.5 l 1,3,-1
 44.125 714.5 l 1,0,-1
222.875 803.25 m 1,4,-1
 222.875 714.5 l 1,5,-1
 134.125 714.5 l 1,6,-1
 134.125 803.25 l 1,7,-1
 222.875 803.25 l 1,4,-1
312.875 714.5 m 1,8,-1
 312.875 624.5 l 1,9,-1
 222.875 624.5 l 1,10,-1
 222.875 714.5 l 1,11,-1
 312.875 714.5 l 1,8,-1
44.125 -89.25 m 1,12,-1
 44.125 -0.5 l 1,13,-1
 312.875 -0.5 l 1,14,-1
 312.875 -89.25 l 1,15,-1
 44.125 -89.25 l 1,12,-1
-44.625 447 m 1,16,-1
 44.125 447 l 1,17,-1
 44.125 -0.5 l 1,18,-1
 -44.625 -0.5 l 1,19,-1
 -44.625 447 l 1,16,-1
312.875 535.75 m 1,20,-1
 312.875 447 l 1,21,-1
 44.125 447 l 1,22,-1
 44.125 535.75 l 1,23,-1
 312.875 535.75 l 1,20,-1
312.875 447 m 1,24,-1
 401.625 447 l 1,25,-1
 401.625 -0.5 l 1,26,-1
 312.875 -0.5 l 1,27,-1
 312.875 447 l 1,24,-1
EndSplineSet
EndChar

StartChar: Otilde
Encoding: 213 213 146
Width: 490
VWidth: 1169
Flags: W
LayerCount: 2
Fore
SplineSet
312.875 633.375 m 1,0,-1
 44.125 633.375 l 1,1,-1
 44.125 723.375 l 1,2,-1
 312.875 723.375 l 1,3,-1
 312.875 633.375 l 1,0,-1
44.125 -80.375 m 1,4,-1
 312.875 -80.375 l 1,5,-1
 312.875 8.375 l 1,6,-1
 44.125 8.375 l 1,7,-1
 44.125 -80.375 l 1,8,-1
 44.125 -80.375 l 1,4,-1
-44.625 455.875 m 1,9,-1
 -44.625 8.375 l 1,10,-1
 44.125 8.375 l 1,11,-1
 44.125 455.875 l 1,12,-1
 -44.625 455.875 l 1,13,-1
 -44.625 455.875 l 1,9,-1
312.875 544.625 m 1,14,-1
 44.125 544.625 l 1,15,-1
 44.125 455.875 l 1,16,-1
 312.875 455.875 l 1,17,-1
 312.875 544.625 l 1,18,-1
 312.875 544.625 l 1,14,-1
312.875 455.875 m 1,19,-1
 312.875 8.375 l 1,20,-1
 401.625 8.375 l 1,21,-1
 401.625 455.875 l 1,22,-1
 312.875 455.875 l 1,23,-1
 312.875 455.875 l 1,19,-1
EndSplineSet
EndChar

StartChar: Odieresis
Encoding: 214 214 147
Width: 490
VWidth: 1169
Flags: W
LayerCount: 2
Fore
SplineSet
44.125 723.375 m 1,0,-1
 134.125 723.375 l 1,1,-1
 134.125 633.375 l 1,2,-1
 44.125 633.375 l 1,3,-1
 44.125 723.375 l 1,0,-1
312.875 723.375 m 1,4,-1
 312.875 633.375 l 1,5,-1
 222.875 633.375 l 1,6,-1
 222.875 723.375 l 1,7,-1
 312.875 723.375 l 1,4,-1
44.125 -80.375 m 1,8,-1
 44.125 8.375 l 1,9,-1
 312.875 8.375 l 1,10,-1
 312.875 -80.375 l 1,11,-1
 44.125 -80.375 l 1,8,-1
-44.625 455.875 m 1,12,-1
 44.125 455.875 l 1,13,-1
 44.125 8.375 l 1,14,-1
 -44.625 8.375 l 1,15,-1
 -44.625 455.875 l 1,12,-1
312.875 544.625 m 1,16,-1
 312.875 455.875 l 1,17,-1
 44.125 455.875 l 1,18,-1
 44.125 544.625 l 1,19,-1
 312.875 544.625 l 1,16,-1
312.875 455.875 m 1,20,-1
 401.625 455.875 l 1,21,-1
 401.625 8.375 l 1,22,-1
 312.875 8.375 l 1,23,-1
 312.875 455.875 l 1,20,-1
EndSplineSet
EndChar

StartChar: multiply
Encoding: 215 215 148
Width: 490
VWidth: 1205
Flags: W
LayerCount: 2
Fore
SplineSet
-44.625 -44.625 m 1,0,-1
 -44.625 44.125 l 1,1,-1
 44.125 44.125 l 1,2,-1
 44.125 -44.625 l 1,3,-1
 -44.625 -44.625 l 1,0,-1
44.125 44.125 m 1,4,-1
 44.125 134.125 l 1,5,-1
 134.125 134.125 l 1,6,-1
 134.125 44.125 l 1,7,-1
 44.125 44.125 l 1,4,-1
134.125 222.875 m 1,8,-1
 222.875 222.875 l 1,9,-1
 222.875 134.125 l 1,10,-1
 134.125 134.125 l 1,11,-1
 134.125 222.875 l 1,8,-1
312.875 44.125 m 1,12,-1
 222.875 44.125 l 1,13,-1
 222.875 134.125 l 1,14,-1
 312.875 134.125 l 1,15,-1
 312.875 44.125 l 1,12,-1
401.625 -44.625 m 1,16,-1
 312.875 -44.625 l 1,17,-1
 312.875 44.125 l 1,18,-1
 401.625 44.125 l 1,19,-1
 401.625 -44.625 l 1,16,-1
44.125 312.875 m 1,20,-1
 134.125 312.875 l 1,21,-1
 134.125 222.875 l 1,22,-1
 44.125 222.875 l 1,23,-1
 44.125 312.875 l 1,20,-1
-44.625 401.625 m 1,24,-1
 44.125 401.625 l 1,25,-1
 44.125 312.875 l 1,26,-1
 -44.625 312.875 l 1,27,-1
 -44.625 401.625 l 1,24,-1
312.875 312.875 m 1,28,-1
 312.875 222.875 l 1,29,-1
 222.875 222.875 l 1,30,-1
 222.875 312.875 l 1,31,-1
 312.875 312.875 l 1,28,-1
401.625 401.625 m 1,32,-1
 401.625 312.875 l 1,33,-1
 312.875 312.875 l 1,34,-1
 312.875 401.625 l 1,35,-1
 401.625 401.625 l 1,32,-1
EndSplineSet
EndChar

StartChar: Oslash
Encoding: 216 216 149
Width: 490
VWidth: 1187
Flags: W
LayerCount: 2
Fore
SplineSet
44.125 -62.5 m 1,0,-1
 44.125 26.25 l 1,1,-1
 312.875 26.25 l 1,2,-1
 312.875 -62.5 l 1,3,-1
 44.125 -62.5 l 1,0,-1
312.875 562.5 m 1,4,-1
 312.875 473.75 l 1,5,-1
 44.125 473.75 l 1,6,-1
 44.125 562.5 l 1,7,-1
 312.875 562.5 l 1,4,-1
312.875 473.75 m 1,8,-1
 401.625 473.75 l 1,9,-1
 401.625 26.25 l 1,10,-1
 312.875 26.25 l 1,11,-1
 312.875 295 l 1,12,-1
 222.875 295 l 1,13,-1
 222.875 383.75 l 1,14,-1
 312.875 383.75 l 1,15,-1
 312.875 473.75 l 1,8,-1
134.125 116.25 m 1,16,-1
 44.125 116.25 l 1,17,-1
 44.125 26.25 l 1,18,-1
 -44.625 26.25 l 1,19,-1
 -44.625 473.75 l 1,20,-1
 44.125 473.75 l 1,21,-1
 44.125 205 l 1,22,-1
 134.125 205 l 1,23,-1
 134.125 116.25 l 1,16,-1
134.125 205 m 1,24,-1
 134.125 295 l 1,25,-1
 222.875 295 l 1,26,-1
 222.875 205 l 1,27,-1
 134.125 205 l 1,24,-1
EndSplineSet
EndChar

StartChar: Ugrave
Encoding: 217 217 150
Width: 490
VWidth: 1160
Flags: W
LayerCount: 2
Fore
SplineSet
222.875 714.5 m 1,0,-1
 222.875 624.5 l 1,1,-1
 134.125 624.5 l 1,2,-1
 134.125 714.5 l 1,3,-1
 222.875 714.5 l 1,0,-1
134.125 803.25 m 1,4,-1
 134.125 714.5 l 1,5,-1
 44.125 714.5 l 1,6,-1
 44.125 803.25 l 1,7,-1
 134.125 803.25 l 1,4,-1
44.125 -89.25 m 1,8,-1
 44.125 -0.5 l 1,9,-1
 312.875 -0.5 l 1,10,-1
 312.875 -89.25 l 1,11,-1
 44.125 -89.25 l 1,8,-1
-44.625 535.75 m 1,12,-1
 44.125 535.75 l 1,13,-1
 44.125 -0.5 l 1,14,-1
 -44.625 -0.5 l 1,15,-1
 -44.625 535.75 l 1,12,-1
312.875 535.75 m 1,16,-1
 401.625 535.75 l 1,17,-1
 401.625 -0.5 l 1,18,-1
 312.875 -0.5 l 1,19,-1
 312.875 535.75 l 1,16,-1
EndSplineSet
EndChar

StartChar: Uacute
Encoding: 218 218 151
Width: 490
VWidth: 1160
Flags: W
LayerCount: 2
Fore
SplineSet
222.875 714.5 m 1,0,-1
 222.875 624.5 l 1,1,-1
 134.125 624.5 l 1,2,-1
 134.125 714.5 l 1,3,-1
 222.875 714.5 l 1,0,-1
312.875 803.25 m 1,4,-1
 312.875 714.5 l 1,5,-1
 222.875 714.5 l 1,6,-1
 222.875 803.25 l 1,7,-1
 312.875 803.25 l 1,4,-1
44.125 -89.25 m 1,8,-1
 312.875 -89.25 l 1,9,-1
 312.875 -0.5 l 1,10,-1
 44.125 -0.5 l 1,11,-1
 44.125 -89.25 l 1,12,-1
 44.125 -89.25 l 1,8,-1
-44.625 535.75 m 1,13,-1
 -44.625 -0.5 l 1,14,-1
 44.125 -0.5 l 1,15,-1
 44.125 535.75 l 1,16,-1
 -44.625 535.75 l 1,17,-1
 -44.625 535.75 l 1,13,-1
312.875 535.75 m 1,18,-1
 312.875 -0.5 l 1,19,-1
 401.625 -0.5 l 1,20,-1
 401.625 535.75 l 1,21,-1
 312.875 535.75 l 1,22,-1
 312.875 535.75 l 1,18,-1
EndSplineSet
EndChar

StartChar: Ucircumflex
Encoding: 219 219 152
Width: 490
VWidth: 1160
Flags: W
LayerCount: 2
Fore
SplineSet
44.125 714.5 m 1,0,-1
 134.125 714.5 l 1,1,-1
 134.125 624.5 l 1,2,-1
 44.125 624.5 l 1,3,-1
 44.125 714.5 l 1,0,-1
222.875 803.25 m 1,4,-1
 222.875 714.5 l 1,5,-1
 134.125 714.5 l 1,6,-1
 134.125 803.25 l 1,7,-1
 222.875 803.25 l 1,4,-1
312.875 714.5 m 1,8,-1
 312.875 624.5 l 1,9,-1
 222.875 624.5 l 1,10,-1
 222.875 714.5 l 1,11,-1
 312.875 714.5 l 1,8,-1
44.125 -89.25 m 1,12,-1
 44.125 -0.5 l 1,13,-1
 312.875 -0.5 l 1,14,-1
 312.875 -89.25 l 1,15,-1
 44.125 -89.25 l 1,12,-1
-44.625 535.75 m 1,16,-1
 44.125 535.75 l 1,17,-1
 44.125 -0.5 l 1,18,-1
 -44.625 -0.5 l 1,19,-1
 -44.625 535.75 l 1,16,-1
312.875 535.75 m 1,20,-1
 401.625 535.75 l 1,21,-1
 401.625 -0.5 l 1,22,-1
 312.875 -0.5 l 1,23,-1
 312.875 535.75 l 1,20,-1
EndSplineSet
EndChar

StartChar: Udieresis
Encoding: 220 220 153
Width: 490
VWidth: 1169
Flags: W
LayerCount: 2
Fore
SplineSet
44.125 723.375 m 1,0,-1
 134.125 723.375 l 1,1,-1
 134.125 633.375 l 1,2,-1
 44.125 633.375 l 1,3,-1
 44.125 723.375 l 1,0,-1
312.875 723.375 m 1,4,-1
 312.875 633.375 l 1,5,-1
 222.875 633.375 l 1,6,-1
 222.875 723.375 l 1,7,-1
 312.875 723.375 l 1,4,-1
44.125 -80.375 m 1,8,-1
 44.125 8.375 l 1,9,-1
 312.875 8.375 l 1,10,-1
 312.875 -80.375 l 1,11,-1
 44.125 -80.375 l 1,8,-1
-44.625 544.625 m 1,12,-1
 44.125 544.625 l 1,13,-1
 44.125 8.375 l 1,14,-1
 -44.625 8.375 l 1,15,-1
 -44.625 544.625 l 1,12,-1
312.875 544.625 m 1,16,-1
 401.625 544.625 l 1,17,-1
 401.625 8.375 l 1,18,-1
 312.875 8.375 l 1,19,-1
 312.875 544.625 l 1,16,-1
EndSplineSet
EndChar

StartChar: Yacute
Encoding: 221 221 154
Width: 490
VWidth: 1160
Flags: W
LayerCount: 2
Fore
SplineSet
134.125 -89.25 m 1,0,-1
 222.875 -89.25 l 1,1,-1
 222.875 178.25 l 1,2,-1
 134.125 178.25 l 1,3,-1
 134.125 -89.25 l 1,0,-1
44.125 268.25 m 1,4,-1
 44.125 178.25 l 1,5,-1
 134.125 178.25 l 1,6,-1
 134.125 268.25 l 1,7,-1
 44.125 268.25 l 1,4,-1
-44.625 535.75 m 1,8,-1
 -44.625 268.25 l 1,9,-1
 44.125 268.25 l 1,10,-1
 44.125 535.75 l 1,11,-1
 -44.625 535.75 l 1,8,-1
222.875 178.25 m 1,12,-1
 312.875 178.25 l 1,13,-1
 312.875 268.25 l 1,14,-1
 222.875 268.25 l 1,15,-1
 222.875 178.25 l 1,12,-1
312.875 535.75 m 1,16,-1
 312.875 268.25 l 1,17,-1
 401.625 268.25 l 1,18,-1
 401.625 535.75 l 1,19,-1
 312.875 535.75 l 1,16,-1
222.875 714.5 m 1,20,-1
 222.875 624.5 l 1,21,-1
 134.125 624.5 l 1,22,-1
 134.125 714.5 l 1,23,-1
 222.875 714.5 l 1,20,-1
312.875 803.25 m 1,24,-1
 312.875 714.5 l 1,25,-1
 222.875 714.5 l 1,26,-1
 222.875 803.25 l 1,27,-1
 312.875 803.25 l 1,24,-1
EndSplineSet
EndChar

StartChar: Thorn
Encoding: 222 222 155
Width: 490
VWidth: 1187
Flags: W
LayerCount: 2
Fore
SplineSet
44.125 383.75 m 1,0,-1
 44.125 116.25 l 1,1,-1
 312.875 116.25 l 1,2,-1
 312.875 26.25 l 1,3,-1
 44.125 26.25 l 1,4,-1
 44.125 -62.5 l 1,5,-1
 -44.625 -62.5 l 1,6,-1
 -44.625 562.5 l 1,7,-1
 44.125 562.5 l 1,8,-1
 44.125 473.75 l 1,9,-1
 312.875 473.75 l 1,10,-1
 312.875 383.75 l 1,11,-1
 44.125 383.75 l 1,0,-1
312.875 383.75 m 1,12,-1
 401.625 383.75 l 1,13,-1
 401.625 116.25 l 1,14,-1
 312.875 116.25 l 1,15,-1
 312.875 383.75 l 1,12,-1
EndSplineSet
EndChar

StartChar: germandbls
Encoding: 223 223 156
Width: 490
VWidth: 1205
Flags: W
LayerCount: 2
Fore
SplineSet
-44.625 -133.5 m 1,0,-1
 -44.625 401.5 l 1,1,-1
 44.125 401.5 l 1,2,-1
 44.125 -133.5 l 1,3,-1
 -44.625 -133.5 l 1,0,-1
44.125 491.5 m 1,4,-1
 312.875 491.5 l 1,5,-1
 312.875 401.5 l 1,6,-1
 44.125 401.5 l 1,7,-1
 44.125 491.5 l 1,4,-1
401.625 401.5 m 1,8,-1
 401.625 312.75 l 1,9,-1
 312.875 312.75 l 1,10,-1
 312.875 401.5 l 1,11,-1
 401.625 401.5 l 1,8,-1
134.125 312.75 m 1,12,-1
 312.875 312.75 l 1,13,-1
 312.875 222.75 l 1,14,-1
 134.125 222.75 l 1,15,-1
 134.125 312.75 l 1,12,-1
401.625 44 m 1,16,-1
 312.875 44 l 1,17,-1
 312.875 222.75 l 1,18,-1
 401.625 222.75 l 1,19,-1
 401.625 44 l 1,16,-1
134.125 -44.75 m 1,20,-1
 134.125 44 l 1,21,-1
 312.875 44 l 1,22,-1
 312.875 -44.75 l 1,23,-1
 134.125 -44.75 l 1,20,-1
EndSplineSet
EndChar

StartChar: agrave
Encoding: 224 224 157
Width: 490
VWidth: 1178
Flags: W
LayerCount: 2
Fore
SplineSet
134.125 553.625 m 1,0,-1
 222.875 553.625 l 1,1,-1
 222.875 464.875 l 1,2,-1
 134.125 464.875 l 1,3,-1
 134.125 553.625 l 1,0,-1
44.125 642.375 m 1,4,-1
 134.125 642.375 l 1,5,-1
 134.125 553.625 l 1,6,-1
 44.125 553.625 l 1,7,-1
 44.125 642.375 l 1,4,-1
-44.625 107.375 m 1,8,-1
 44.125 107.375 l 1,9,-1
 44.125 17.375 l 1,10,-1
 -44.625 17.375 l 1,11,-1
 -44.625 107.375 l 1,8,-1
312.875 286.125 m 1,12,-1
 401.625 286.125 l 1,13,-1
 401.625 -71.375 l 1,14,-1
 44.125 -71.375 l 1,15,-1
 44.125 17.375 l 1,16,-1
 312.875 17.375 l 1,17,-1
 312.875 107.375 l 1,18,-1
 44.125 107.375 l 1,19,-1
 44.125 196.125 l 1,20,-1
 312.875 196.125 l 1,21,-1
 312.875 286.125 l 1,12,-1
44.125 374.875 m 1,22,-1
 312.875 374.875 l 1,23,-1
 312.875 286.125 l 1,24,-1
 44.125 286.125 l 1,25,-1
 44.125 374.875 l 1,22,-1
EndSplineSet
EndChar

StartChar: aacute
Encoding: 225 225 158
Width: 490
VWidth: 1178
Flags: W
LayerCount: 2
Fore
SplineSet
222.875 553.625 m 1,0,-1
 222.875 464.875 l 1,1,-1
 134.125 464.875 l 1,2,-1
 134.125 553.625 l 1,3,-1
 222.875 553.625 l 1,4,-1
 222.875 553.625 l 1,0,-1
312.875 642.375 m 1,5,-1
 312.875 553.625 l 1,6,-1
 222.875 553.625 l 1,7,-1
 222.875 642.375 l 1,8,-1
 312.875 642.375 l 1,9,-1
 312.875 642.375 l 1,5,-1
-44.625 107.375 m 1,10,-1
 -44.625 17.375 l 1,11,-1
 44.125 17.375 l 1,12,-1
 44.125 107.375 l 1,13,-1
 -44.625 107.375 l 1,14,-1
 -44.625 107.375 l 1,10,-1
312.875 286.125 m 1,15,-1
 312.875 196.125 l 1,16,-1
 44.125 196.125 l 1,17,-1
 44.125 107.375 l 1,18,-1
 312.875 107.375 l 1,19,-1
 312.875 17.375 l 1,20,-1
 44.125 17.375 l 1,21,-1
 44.125 -71.375 l 1,22,-1
 401.625 -71.375 l 1,23,-1
 401.625 286.125 l 1,24,-1
 312.875 286.125 l 1,25,-1
 312.875 286.125 l 1,15,-1
44.125 374.875 m 1,26,-1
 44.125 286.125 l 1,27,-1
 312.875 286.125 l 1,28,-1
 312.875 374.875 l 1,29,-1
 44.125 374.875 l 1,30,-1
 44.125 374.875 l 1,26,-1
EndSplineSet
EndChar

StartChar: acircumflex
Encoding: 226 226 159
Width: 490
VWidth: 1178
Flags: W
LayerCount: 2
Fore
SplineSet
44.125 464.875 m 1,0,-1
 44.125 553.625 l 1,1,-1
 134.125 553.625 l 1,2,-1
 134.125 464.875 l 1,3,-1
 44.125 464.875 l 1,0,-1
134.125 642.375 m 1,4,-1
 222.875 642.375 l 1,5,-1
 222.875 553.625 l 1,6,-1
 134.125 553.625 l 1,7,-1
 134.125 642.375 l 1,4,-1
222.875 553.625 m 1,8,-1
 312.875 553.625 l 1,9,-1
 312.875 464.875 l 1,10,-1
 222.875 464.875 l 1,11,-1
 222.875 553.625 l 1,8,-1
-44.625 107.375 m 1,12,-1
 44.125 107.375 l 1,13,-1
 44.125 17.375 l 1,14,-1
 -44.625 17.375 l 1,15,-1
 -44.625 107.375 l 1,12,-1
312.875 286.125 m 1,16,-1
 401.625 286.125 l 1,17,-1
 401.625 -71.375 l 1,18,-1
 44.125 -71.375 l 1,19,-1
 44.125 17.375 l 1,20,-1
 312.875 17.375 l 1,21,-1
 312.875 107.375 l 1,22,-1
 44.125 107.375 l 1,23,-1
 44.125 196.125 l 1,24,-1
 312.875 196.125 l 1,25,-1
 312.875 286.125 l 1,16,-1
44.125 374.875 m 1,26,-1
 312.875 374.875 l 1,27,-1
 312.875 286.125 l 1,28,-1
 44.125 286.125 l 1,29,-1
 44.125 374.875 l 1,26,-1
EndSplineSet
EndChar

StartChar: atilde
Encoding: 227 227 160
Width: 490
VWidth: 1187
Flags: W
LayerCount: 2
Fore
SplineSet
312.875 473.75 m 1,0,-1
 44.125 473.75 l 1,1,-1
 44.125 562.5 l 1,2,-1
 312.875 562.5 l 1,3,-1
 312.875 473.75 l 1,4,-1
 312.875 473.75 l 1,0,-1
-44.625 116.25 m 1,5,-1
 -44.625 26.25 l 1,6,-1
 44.125 26.25 l 1,7,-1
 44.125 116.25 l 1,8,-1
 -44.625 116.25 l 1,9,-1
 -44.625 116.25 l 1,5,-1
312.875 295 m 1,10,-1
 312.875 205 l 1,11,-1
 44.125 205 l 1,12,-1
 44.125 116.25 l 1,13,-1
 312.875 116.25 l 1,14,-1
 312.875 26.25 l 1,15,-1
 44.125 26.25 l 1,16,-1
 44.125 -62.5 l 1,17,-1
 401.625 -62.5 l 1,18,-1
 401.625 295 l 1,19,-1
 312.875 295 l 1,20,-1
 312.875 295 l 1,10,-1
44.125 383.75 m 1,21,-1
 44.125 295 l 1,22,-1
 312.875 295 l 1,23,-1
 312.875 383.75 l 1,24,-1
 44.125 383.75 l 1,25,-1
 44.125 383.75 l 1,21,-1
EndSplineSet
EndChar

StartChar: adieresis
Encoding: 228 228 161
Width: 490
VWidth: 1187
Flags: W
LayerCount: 2
Fore
SplineSet
44.125 473.75 m 1,0,-1
 44.125 562.5 l 1,1,-1
 134.125 562.5 l 1,2,-1
 134.125 473.75 l 1,3,-1
 44.125 473.75 l 1,0,-1
222.875 562.5 m 1,4,-1
 312.875 562.5 l 1,5,-1
 312.875 473.75 l 1,6,-1
 222.875 473.75 l 1,7,-1
 222.875 562.5 l 1,4,-1
-44.625 116.25 m 1,8,-1
 44.125 116.25 l 1,9,-1
 44.125 26.25 l 1,10,-1
 -44.625 26.25 l 1,11,-1
 -44.625 116.25 l 1,8,-1
312.875 295 m 1,12,-1
 401.625 295 l 1,13,-1
 401.625 -62.5 l 1,14,-1
 44.125 -62.5 l 1,15,-1
 44.125 26.25 l 1,16,-1
 312.875 26.25 l 1,17,-1
 312.875 116.25 l 1,18,-1
 44.125 116.25 l 1,19,-1
 44.125 205 l 1,20,-1
 312.875 205 l 1,21,-1
 312.875 295 l 1,12,-1
44.125 383.75 m 1,22,-1
 312.875 383.75 l 1,23,-1
 312.875 295 l 1,24,-1
 44.125 295 l 1,25,-1
 44.125 383.75 l 1,22,-1
EndSplineSet
EndChar

StartChar: aring
Encoding: 229 229 162
Width: 490
VWidth: 1169
Flags: W
LayerCount: 2
Fore
SplineSet
134.125 455.875 m 1,0,-1
 134.125 544.625 l 1,1,-1
 222.875 544.625 l 1,2,-1
 222.875 455.875 l 1,3,-1
 134.125 455.875 l 1,0,-1
44.125 633.375 m 1,4,-1
 134.125 633.375 l 1,5,-1
 134.125 544.625 l 1,6,-1
 44.125 544.625 l 1,7,-1
 44.125 633.375 l 1,4,-1
222.875 723.375 m 1,8,-1
 222.875 633.375 l 1,9,-1
 134.125 633.375 l 1,10,-1
 134.125 723.375 l 1,11,-1
 222.875 723.375 l 1,8,-1
222.875 633.375 m 1,12,-1
 312.875 633.375 l 1,13,-1
 312.875 544.625 l 1,14,-1
 222.875 544.625 l 1,15,-1
 222.875 633.375 l 1,12,-1
-44.625 98.375 m 1,16,-1
 44.125 98.375 l 1,17,-1
 44.125 8.375 l 1,18,-1
 -44.625 8.375 l 1,19,-1
 -44.625 98.375 l 1,16,-1
312.875 277.125 m 1,20,-1
 401.625 277.125 l 1,21,-1
 401.625 -80.375 l 1,22,-1
 44.125 -80.375 l 1,23,-1
 44.125 8.375 l 1,24,-1
 312.875 8.375 l 1,25,-1
 312.875 98.375 l 1,26,-1
 44.125 98.375 l 1,27,-1
 44.125 187.125 l 1,28,-1
 312.875 187.125 l 1,29,-1
 312.875 277.125 l 1,20,-1
44.125 365.875 m 1,30,-1
 312.875 365.875 l 1,31,-1
 312.875 277.125 l 1,32,-1
 44.125 277.125 l 1,33,-1
 44.125 365.875 l 1,30,-1
EndSplineSet
EndChar

StartChar: ae
Encoding: 230 230 163
Width: 812
VWidth: 1205
Flags: W
LayerCount: 2
Fore
SplineSet
-80.375 134.125 m 1,0,-1
 8.375 134.125 l 1,1,-1
 8.375 44.125 l 1,2,-1
 -80.375 44.125 l 1,3,-1
 -80.375 134.125 l 1,0,-1
723.375 134.125 m 1,4,-1
 365.875 134.125 l 1,5,-1
 365.875 44.125 l 1,6,-1
 723.375 44.125 l 1,7,-1
 723.375 -44.625 l 1,8,-1
 8.375 -44.625 l 1,9,-1
 8.375 44.125 l 1,10,-1
 277.125 44.125 l 1,11,-1
 277.125 134.125 l 1,12,-1
 8.375 134.125 l 1,13,-1
 8.375 222.875 l 1,14,-1
 277.125 222.875 l 1,15,-1
 277.125 312.875 l 1,16,-1
 365.875 312.875 l 1,17,-1
 365.875 401.625 l 1,18,-1
 633.375 401.625 l 1,19,-1
 633.375 312.875 l 1,20,-1
 365.875 312.875 l 1,21,-1
 365.875 222.875 l 1,22,-1
 633.375 222.875 l 1,23,-1
 633.375 312.875 l 1,24,-1
 723.375 312.875 l 1,25,-1
 723.375 134.125 l 1,4,-1
8.375 401.625 m 1,26,-1
 277.125 401.625 l 1,27,-1
 277.125 312.875 l 1,28,-1
 8.375 312.875 l 1,29,-1
 8.375 401.625 l 1,26,-1
EndSplineSet
EndChar

StartChar: ccedilla
Encoding: 231 231 164
Width: 490
VWidth: 1223
Flags: W
LayerCount: 2
Fore
SplineSet
401.625 419.5 m 1,0,-1
 401.625 330.75 l 1,1,-1
 44.125 330.75 l 1,2,-1
 44.125 419.5 l 1,3,-1
 401.625 419.5 l 1,0,-1
222.875 -26.75 m 1,4,-1
 44.125 -26.75 l 1,5,-1
 44.125 62 l 1,6,-1
 401.625 62 l 1,7,-1
 401.625 -26.75 l 1,8,-1
 312.875 -26.75 l 1,9,-1
 312.875 -115.5 l 1,10,-1
 222.875 -115.5 l 1,11,-1
 222.875 -26.75 l 1,4,-1
-44.625 330.75 m 1,12,-1
 44.125 330.75 l 1,13,-1
 44.125 62 l 1,14,-1
 -44.625 62 l 1,15,-1
 -44.625 330.75 l 1,12,-1
134.125 -205.5 m 1,16,-1
 134.125 -115.5 l 1,17,-1
 222.875 -115.5 l 1,18,-1
 222.875 -205.5 l 1,19,-1
 134.125 -205.5 l 1,16,-1
EndSplineSet
EndChar

StartChar: egrave
Encoding: 232 232 165
Width: 490
VWidth: 1178
Flags: W
LayerCount: 2
Fore
SplineSet
312.875 374.875 m 1,0,-1
 312.875 286.125 l 1,1,-1
 44.125 286.125 l 1,2,-1
 44.125 374.875 l 1,3,-1
 312.875 374.875 l 1,0,-1
312.875 286.125 m 1,4,-1
 401.625 286.125 l 1,5,-1
 401.625 107.375 l 1,6,-1
 44.125 107.375 l 1,7,-1
 44.125 17.375 l 1,8,-1
 -44.625 17.375 l 1,9,-1
 -44.625 286.125 l 1,10,-1
 44.125 286.125 l 1,11,-1
 44.125 196.125 l 1,12,-1
 312.875 196.125 l 1,13,-1
 312.875 286.125 l 1,4,-1
401.625 -71.375 m 1,14,-1
 44.125 -71.375 l 1,15,-1
 44.125 17.375 l 1,16,-1
 401.625 17.375 l 1,17,-1
 401.625 -71.375 l 1,14,-1
222.875 553.625 m 1,18,-1
 222.875 464.875 l 1,19,-1
 134.125 464.875 l 1,20,-1
 134.125 553.625 l 1,21,-1
 222.875 553.625 l 1,18,-1
134.125 642.375 m 1,22,-1
 134.125 553.625 l 1,23,-1
 44.125 553.625 l 1,24,-1
 44.125 642.375 l 1,25,-1
 134.125 642.375 l 1,22,-1
EndSplineSet
EndChar

StartChar: eacute
Encoding: 233 233 166
Width: 490
VWidth: 1178
Flags: W
LayerCount: 2
Fore
SplineSet
312.875 374.875 m 1,0,-1
 44.125 374.875 l 1,1,-1
 44.125 286.125 l 1,2,-1
 312.875 286.125 l 1,3,-1
 312.875 374.875 l 1,4,-1
 312.875 374.875 l 1,0,-1
312.875 286.125 m 1,5,-1
 312.875 196.125 l 1,6,-1
 44.125 196.125 l 1,7,-1
 44.125 286.125 l 1,8,-1
 -44.625 286.125 l 1,9,-1
 -44.625 17.375 l 1,10,-1
 44.125 17.375 l 1,11,-1
 44.125 107.375 l 1,12,-1
 401.625 107.375 l 1,13,-1
 401.625 286.125 l 1,14,-1
 312.875 286.125 l 1,15,-1
 312.875 286.125 l 1,5,-1
401.625 -71.375 m 1,16,-1
 401.625 17.375 l 1,17,-1
 44.125 17.375 l 1,18,-1
 44.125 -71.375 l 1,19,-1
 401.625 -71.375 l 1,20,-1
 401.625 -71.375 l 1,16,-1
222.875 553.625 m 1,21,-1
 222.875 464.875 l 1,22,-1
 134.125 464.875 l 1,23,-1
 134.125 553.625 l 1,24,-1
 222.875 553.625 l 1,21,-1
312.875 642.375 m 1,25,-1
 312.875 553.625 l 1,26,-1
 222.875 553.625 l 1,27,-1
 222.875 642.375 l 1,28,-1
 312.875 642.375 l 1,25,-1
EndSplineSet
EndChar

StartChar: ecircumflex
Encoding: 234 234 167
Width: 490
VWidth: 1178
Flags: W
LayerCount: 2
Fore
SplineSet
312.875 374.875 m 1,0,-1
 312.875 286.125 l 1,1,-1
 44.125 286.125 l 1,2,-1
 44.125 374.875 l 1,3,-1
 312.875 374.875 l 1,0,-1
312.875 286.125 m 1,4,-1
 401.625 286.125 l 1,5,-1
 401.625 107.375 l 1,6,-1
 44.125 107.375 l 1,7,-1
 44.125 17.375 l 1,8,-1
 -44.625 17.375 l 1,9,-1
 -44.625 286.125 l 1,10,-1
 44.125 286.125 l 1,11,-1
 44.125 196.125 l 1,12,-1
 312.875 196.125 l 1,13,-1
 312.875 286.125 l 1,4,-1
401.625 -71.375 m 1,14,-1
 44.125 -71.375 l 1,15,-1
 44.125 17.375 l 1,16,-1
 401.625 17.375 l 1,17,-1
 401.625 -71.375 l 1,14,-1
44.125 553.625 m 1,18,-1
 134.125 553.625 l 1,19,-1
 134.125 464.875 l 1,20,-1
 44.125 464.875 l 1,21,-1
 44.125 553.625 l 1,18,-1
222.875 642.375 m 1,22,-1
 222.875 553.625 l 1,23,-1
 134.125 553.625 l 1,24,-1
 134.125 642.375 l 1,25,-1
 222.875 642.375 l 1,22,-1
312.875 553.625 m 1,26,-1
 312.875 464.875 l 1,27,-1
 222.875 464.875 l 1,28,-1
 222.875 553.625 l 1,29,-1
 312.875 553.625 l 1,26,-1
EndSplineSet
EndChar

StartChar: edieresis
Encoding: 235 235 168
Width: 490
VWidth: 1187
Flags: W
LayerCount: 2
Fore
SplineSet
312.875 383.75 m 1,0,-1
 312.875 295 l 1,1,-1
 44.125 295 l 1,2,-1
 44.125 383.75 l 1,3,-1
 312.875 383.75 l 1,0,-1
312.875 295 m 1,4,-1
 401.625 295 l 1,5,-1
 401.625 116.25 l 1,6,-1
 44.125 116.25 l 1,7,-1
 44.125 26.25 l 1,8,-1
 -44.625 26.25 l 1,9,-1
 -44.625 295 l 1,10,-1
 44.125 295 l 1,11,-1
 44.125 205 l 1,12,-1
 312.875 205 l 1,13,-1
 312.875 295 l 1,4,-1
401.625 -62.5 m 1,14,-1
 44.125 -62.5 l 1,15,-1
 44.125 26.25 l 1,16,-1
 401.625 26.25 l 1,17,-1
 401.625 -62.5 l 1,14,-1
44.125 562.5 m 1,18,-1
 134.125 562.5 l 1,19,-1
 134.125 473.75 l 1,20,-1
 44.125 473.75 l 1,21,-1
 44.125 562.5 l 1,18,-1
312.875 562.5 m 1,22,-1
 312.875 473.75 l 1,23,-1
 222.875 473.75 l 1,24,-1
 222.875 562.5 l 1,25,-1
 312.875 562.5 l 1,22,-1
EndSplineSet
EndChar

StartChar: igrave
Encoding: 236 236 169
Width: 249
VWidth: 1178
Flags: W
LayerCount: 2
Fore
SplineSet
70.875 553.625 m 1,0,-1
 160.875 553.625 l 1,1,-1
 160.875 464.875 l 1,2,-1
 70.875 464.875 l 1,3,-1
 70.875 553.625 l 1,0,-1
-17.875 642.375 m 1,4,-1
 70.875 642.375 l 1,5,-1
 70.875 553.625 l 1,6,-1
 -17.875 553.625 l 1,7,-1
 -17.875 642.375 l 1,4,-1
70.875 -71.375 m 1,8,-1
 70.875 374.875 l 1,9,-1
 160.875 374.875 l 1,10,-1
 160.875 -71.375 l 1,11,-1
 70.875 -71.375 l 1,8,-1
EndSplineSet
EndChar

StartChar: iacute
Encoding: 237 237 170
Width: 249
VWidth: 1178
Flags: W
LayerCount: 2
Fore
SplineSet
70.875 553.625 m 1,0,-1
 70.875 464.875 l 1,1,-1
 -17.875 464.875 l 1,2,-1
 -17.875 553.625 l 1,3,-1
 70.875 553.625 l 1,4,-1
 70.875 553.625 l 1,0,-1
160.875 642.375 m 1,5,-1
 160.875 553.625 l 1,6,-1
 70.875 553.625 l 1,7,-1
 70.875 642.375 l 1,8,-1
 160.875 642.375 l 1,9,-1
 160.875 642.375 l 1,5,-1
-17.875 -71.375 m 1,10,-1
 70.875 -71.375 l 1,11,-1
 70.875 374.875 l 1,12,-1
 -17.875 374.875 l 1,13,-1
 -17.875 -71.375 l 1,14,-1
 -17.875 -71.375 l 1,10,-1
EndSplineSet
EndChar

StartChar: icircumflex
Encoding: 238 238 171
Width: 329
VWidth: 1178
Flags: W
LayerCount: 2
Fore
SplineSet
-26.75 464.875 m 1,0,-1
 -26.75 553.625 l 1,1,-1
 62 553.625 l 1,2,-1
 62 464.875 l 1,3,-1
 -26.75 464.875 l 1,0,-1
62 642.375 m 1,4,-1
 152 642.375 l 1,5,-1
 152 553.625 l 1,6,-1
 62 553.625 l 1,7,-1
 62 642.375 l 1,4,-1
152 553.625 m 1,8,-1
 240.75 553.625 l 1,9,-1
 240.75 464.875 l 1,10,-1
 152 464.875 l 1,11,-1
 152 553.625 l 1,8,-1
62 -71.375 m 1,12,-1
 62 374.875 l 1,13,-1
 152 374.875 l 1,14,-1
 152 -71.375 l 1,15,-1
 62 -71.375 l 1,12,-1
EndSplineSet
EndChar

StartChar: idieresis
Encoding: 239 239 172
Width: 329
VWidth: 1187
Flags: W
LayerCount: 2
Fore
SplineSet
-26.75 473.75 m 1,0,-1
 -26.75 562.5 l 1,1,-1
 62 562.5 l 1,2,-1
 62 473.75 l 1,3,-1
 -26.75 473.75 l 1,0,-1
152 562.5 m 1,4,-1
 240.75 562.5 l 1,5,-1
 240.75 473.75 l 1,6,-1
 152 473.75 l 1,7,-1
 152 562.5 l 1,4,-1
62 -62.5 m 1,8,-1
 62 383.75 l 1,9,-1
 152 383.75 l 1,10,-1
 152 -62.5 l 1,11,-1
 62 -62.5 l 1,8,-1
EndSplineSet
EndChar

StartChar: eth
Encoding: 240 240 173
Width: 490
VWidth: 1187
Flags: W
LayerCount: 2
Fore
SplineSet
-44.625 205 m 1,0,-1
 44.125 205 l 1,1,-1
 44.125 26.25 l 1,2,-1
 -44.625 26.25 l 1,3,-1
 -44.625 205 l 1,0,-1
44.125 -62.5 m 1,4,-1
 44.125 26.25 l 1,5,-1
 312.875 26.25 l 1,6,-1
 312.875 -62.5 l 1,7,-1
 44.125 -62.5 l 1,4,-1
222.875 295 m 1,8,-1
 312.875 295 l 1,9,-1
 312.875 383.75 l 1,10,-1
 401.625 383.75 l 1,11,-1
 401.625 26.25 l 1,12,-1
 312.875 26.25 l 1,13,-1
 312.875 205 l 1,14,-1
 44.125 205 l 1,15,-1
 44.125 295 l 1,16,-1
 134.125 295 l 1,17,-1
 134.125 383.75 l 1,18,-1
 222.875 383.75 l 1,19,-1
 222.875 295 l 1,8,-1
222.875 473.75 m 1,20,-1
 312.875 473.75 l 1,21,-1
 312.875 383.75 l 1,22,-1
 222.875 383.75 l 1,23,-1
 222.875 473.75 l 1,20,-1
134.125 562.5 m 1,24,-1
 222.875 562.5 l 1,25,-1
 222.875 473.75 l 1,26,-1
 134.125 473.75 l 1,27,-1
 134.125 562.5 l 1,24,-1
401.625 562.5 m 1,28,-1
 401.625 473.75 l 1,29,-1
 312.875 473.75 l 1,30,-1
 312.875 562.5 l 1,31,-1
 401.625 562.5 l 1,28,-1
EndSplineSet
EndChar

StartChar: ntilde
Encoding: 241 241 174
Width: 490
VWidth: 1187
Flags: W
LayerCount: 2
Fore
SplineSet
-44.625 383.75 m 1,0,-1
 312.875 383.75 l 1,1,-1
 312.875 295 l 1,2,-1
 44.125 295 l 1,3,-1
 44.125 -62.5 l 1,4,-1
 -44.625 -62.5 l 1,5,-1
 -44.625 383.75 l 1,0,-1
312.875 295 m 1,6,-1
 401.625 295 l 1,7,-1
 401.625 -62.5 l 1,8,-1
 312.875 -62.5 l 1,9,-1
 312.875 295 l 1,6,-1
312.875 562.5 m 1,10,-1
 312.875 473.75 l 1,11,-1
 44.125 473.75 l 1,12,-1
 44.125 562.5 l 1,13,-1
 312.875 562.5 l 1,10,-1
EndSplineSet
EndChar

StartChar: ograve
Encoding: 242 242 175
Width: 490
VWidth: 1178
Flags: W
LayerCount: 2
Fore
SplineSet
222.875 553.625 m 1,0,-1
 222.875 464.875 l 1,1,-1
 134.125 464.875 l 1,2,-1
 134.125 553.625 l 1,3,-1
 222.875 553.625 l 1,0,-1
134.125 642.375 m 1,4,-1
 134.125 553.625 l 1,5,-1
 44.125 553.625 l 1,6,-1
 44.125 642.375 l 1,7,-1
 134.125 642.375 l 1,4,-1
-44.625 286.125 m 1,8,-1
 44.125 286.125 l 1,9,-1
 44.125 17.375 l 1,10,-1
 -44.625 17.375 l 1,11,-1
 -44.625 286.125 l 1,8,-1
44.125 -71.375 m 1,12,-1
 44.125 17.375 l 1,13,-1
 312.875 17.375 l 1,14,-1
 312.875 -71.375 l 1,15,-1
 44.125 -71.375 l 1,12,-1
312.875 286.125 m 1,16,-1
 401.625 286.125 l 1,17,-1
 401.625 17.375 l 1,18,-1
 312.875 17.375 l 1,19,-1
 312.875 286.125 l 1,16,-1
312.875 374.875 m 1,20,-1
 312.875 286.125 l 1,21,-1
 44.125 286.125 l 1,22,-1
 44.125 374.875 l 1,23,-1
 312.875 374.875 l 1,20,-1
EndSplineSet
EndChar

StartChar: oacute
Encoding: 243 243 176
Width: 490
VWidth: 1178
Flags: W
LayerCount: 2
Fore
SplineSet
222.875 553.625 m 1,0,-1
 222.875 464.875 l 1,1,-1
 134.125 464.875 l 1,2,-1
 134.125 553.625 l 1,3,-1
 222.875 553.625 l 1,0,-1
312.875 642.375 m 1,4,-1
 312.875 553.625 l 1,5,-1
 222.875 553.625 l 1,6,-1
 222.875 642.375 l 1,7,-1
 312.875 642.375 l 1,4,-1
-44.625 286.125 m 1,8,-1
 -44.625 17.375 l 1,9,-1
 44.125 17.375 l 1,10,-1
 44.125 286.125 l 1,11,-1
 -44.625 286.125 l 1,12,-1
 -44.625 286.125 l 1,8,-1
44.125 -71.375 m 1,13,-1
 312.875 -71.375 l 1,14,-1
 312.875 17.375 l 1,15,-1
 44.125 17.375 l 1,16,-1
 44.125 -71.375 l 1,17,-1
 44.125 -71.375 l 1,13,-1
312.875 286.125 m 1,18,-1
 312.875 17.375 l 1,19,-1
 401.625 17.375 l 1,20,-1
 401.625 286.125 l 1,21,-1
 312.875 286.125 l 1,22,-1
 312.875 286.125 l 1,18,-1
312.875 374.875 m 1,23,-1
 44.125 374.875 l 1,24,-1
 44.125 286.125 l 1,25,-1
 312.875 286.125 l 1,26,-1
 312.875 374.875 l 1,27,-1
 312.875 374.875 l 1,23,-1
EndSplineSet
EndChar

StartChar: ocircumflex
Encoding: 244 244 177
Width: 490
VWidth: 1178
Flags: W
LayerCount: 2
Fore
SplineSet
44.125 553.625 m 1,0,-1
 134.125 553.625 l 1,1,-1
 134.125 464.875 l 1,2,-1
 44.125 464.875 l 1,3,-1
 44.125 553.625 l 1,0,-1
222.875 642.375 m 1,4,-1
 222.875 553.625 l 1,5,-1
 134.125 553.625 l 1,6,-1
 134.125 642.375 l 1,7,-1
 222.875 642.375 l 1,4,-1
312.875 553.625 m 1,8,-1
 312.875 464.875 l 1,9,-1
 222.875 464.875 l 1,10,-1
 222.875 553.625 l 1,11,-1
 312.875 553.625 l 1,8,-1
-44.625 286.125 m 1,12,-1
 44.125 286.125 l 1,13,-1
 44.125 17.375 l 1,14,-1
 -44.625 17.375 l 1,15,-1
 -44.625 286.125 l 1,12,-1
44.125 -71.375 m 1,16,-1
 44.125 17.375 l 1,17,-1
 312.875 17.375 l 1,18,-1
 312.875 -71.375 l 1,19,-1
 44.125 -71.375 l 1,16,-1
312.875 286.125 m 1,20,-1
 401.625 286.125 l 1,21,-1
 401.625 17.375 l 1,22,-1
 312.875 17.375 l 1,23,-1
 312.875 286.125 l 1,20,-1
312.875 374.875 m 1,24,-1
 312.875 286.125 l 1,25,-1
 44.125 286.125 l 1,26,-1
 44.125 374.875 l 1,27,-1
 312.875 374.875 l 1,24,-1
EndSplineSet
EndChar

StartChar: otilde
Encoding: 245 245 178
Width: 490
VWidth: 1187
Flags: W
LayerCount: 2
Fore
SplineSet
312.875 473.75 m 1,0,-1
 44.125 473.75 l 1,1,-1
 44.125 562.5 l 1,2,-1
 312.875 562.5 l 1,3,-1
 312.875 473.75 l 1,0,-1
-44.625 295 m 1,4,-1
 -44.625 26.25 l 1,5,-1
 44.125 26.25 l 1,6,-1
 44.125 295 l 1,7,-1
 -44.625 295 l 1,8,-1
 -44.625 295 l 1,4,-1
44.125 -62.5 m 1,9,-1
 312.875 -62.5 l 1,10,-1
 312.875 26.25 l 1,11,-1
 44.125 26.25 l 1,12,-1
 44.125 -62.5 l 1,13,-1
 44.125 -62.5 l 1,9,-1
312.875 295 m 1,14,-1
 312.875 26.25 l 1,15,-1
 401.625 26.25 l 1,16,-1
 401.625 295 l 1,17,-1
 312.875 295 l 1,18,-1
 312.875 295 l 1,14,-1
312.875 383.75 m 1,19,-1
 44.125 383.75 l 1,20,-1
 44.125 295 l 1,21,-1
 312.875 295 l 1,22,-1
 312.875 383.75 l 1,23,-1
 312.875 383.75 l 1,19,-1
EndSplineSet
EndChar

StartChar: odieresis
Encoding: 246 246 179
Width: 490
VWidth: 1187
Flags: W
LayerCount: 2
Fore
SplineSet
44.125 562.5 m 1,0,-1
 134.125 562.5 l 1,1,-1
 134.125 473.75 l 1,2,-1
 44.125 473.75 l 1,3,-1
 44.125 562.5 l 1,0,-1
312.875 562.5 m 1,4,-1
 312.875 473.75 l 1,5,-1
 222.875 473.75 l 1,6,-1
 222.875 562.5 l 1,7,-1
 312.875 562.5 l 1,4,-1
-44.625 295 m 1,8,-1
 44.125 295 l 1,9,-1
 44.125 26.25 l 1,10,-1
 -44.625 26.25 l 1,11,-1
 -44.625 295 l 1,8,-1
44.125 -62.5 m 1,12,-1
 44.125 26.25 l 1,13,-1
 312.875 26.25 l 1,14,-1
 312.875 -62.5 l 1,15,-1
 44.125 -62.5 l 1,12,-1
312.875 295 m 1,16,-1
 401.625 295 l 1,17,-1
 401.625 26.25 l 1,18,-1
 312.875 26.25 l 1,19,-1
 312.875 295 l 1,16,-1
312.875 383.75 m 1,20,-1
 312.875 295 l 1,21,-1
 44.125 295 l 1,22,-1
 44.125 383.75 l 1,23,-1
 312.875 383.75 l 1,20,-1
EndSplineSet
EndChar

StartChar: divide
Encoding: 247 247 180
Width: 490
VWidth: 1205
Flags: W
LayerCount: 2
Fore
SplineSet
-44.625 222.875 m 1,0,-1
 401.625 222.875 l 1,1,-1
 401.625 134.125 l 1,2,-1
 -44.625 134.125 l 1,3,-1
 -44.625 222.875 l 1,0,-1
222.875 401.625 m 1,4,-1
 222.875 312.875 l 1,5,-1
 134.125 312.875 l 1,6,-1
 134.125 401.625 l 1,7,-1
 222.875 401.625 l 1,4,-1
134.125 -44.625 m 1,8,-1
 134.125 44.125 l 1,9,-1
 222.875 44.125 l 1,10,-1
 222.875 -44.625 l 1,11,-1
 134.125 -44.625 l 1,8,-1
EndSplineSet
EndChar

StartChar: oslash
Encoding: 248 248 181
Width: 490
VWidth: 1205
Flags: W
LayerCount: 2
Fore
SplineSet
312.875 312.875 m 1,0,-1
 401.625 312.875 l 1,1,-1
 401.625 44.125 l 1,2,-1
 312.875 44.125 l 1,3,-1
 312.875 222.875 l 1,4,-1
 222.875 222.875 l 1,5,-1
 222.875 134.125 l 1,6,-1
 134.125 134.125 l 1,7,-1
 134.125 222.875 l 1,8,-1
 222.875 222.875 l 1,9,-1
 222.875 312.875 l 1,10,-1
 44.125 312.875 l 1,11,-1
 44.125 401.625 l 1,12,-1
 312.875 401.625 l 1,13,-1
 312.875 312.875 l 1,0,-1
134.125 134.125 m 1,14,-1
 134.125 44.125 l 1,15,-1
 312.875 44.125 l 1,16,-1
 312.875 -44.625 l 1,17,-1
 44.125 -44.625 l 1,18,-1
 44.125 44.125 l 1,19,-1
 -44.625 44.125 l 1,20,-1
 -44.625 312.875 l 1,21,-1
 44.125 312.875 l 1,22,-1
 44.125 134.125 l 1,23,-1
 134.125 134.125 l 1,14,-1
EndSplineSet
EndChar

StartChar: ugrave
Encoding: 249 249 182
Width: 490
VWidth: 1178
Flags: W
LayerCount: 2
Fore
SplineSet
222.875 553.625 m 1,0,-1
 222.875 464.875 l 1,1,-1
 134.125 464.875 l 1,2,-1
 134.125 553.625 l 1,3,-1
 222.875 553.625 l 1,0,-1
134.125 642.375 m 1,4,-1
 134.125 553.625 l 1,5,-1
 44.125 553.625 l 1,6,-1
 44.125 642.375 l 1,7,-1
 134.125 642.375 l 1,4,-1
-44.625 374.875 m 1,8,-1
 44.125 374.875 l 1,9,-1
 44.125 17.375 l 1,10,-1
 -44.625 17.375 l 1,11,-1
 -44.625 374.875 l 1,8,-1
44.125 -71.375 m 1,12,-1
 44.125 17.375 l 1,13,-1
 312.875 17.375 l 1,14,-1
 312.875 -71.375 l 1,15,-1
 44.125 -71.375 l 1,12,-1
312.875 374.875 m 1,16,-1
 401.625 374.875 l 1,17,-1
 401.625 17.375 l 1,18,-1
 312.875 17.375 l 1,19,-1
 312.875 374.875 l 1,16,-1
EndSplineSet
EndChar

StartChar: uacute
Encoding: 250 250 183
Width: 490
VWidth: 1178
Flags: W
LayerCount: 2
Fore
SplineSet
222.875 553.625 m 1,0,-1
 222.875 464.875 l 1,1,-1
 134.125 464.875 l 1,2,-1
 134.125 553.625 l 1,3,-1
 222.875 553.625 l 1,0,-1
312.875 642.375 m 1,4,-1
 312.875 553.625 l 1,5,-1
 222.875 553.625 l 1,6,-1
 222.875 642.375 l 1,7,-1
 312.875 642.375 l 1,4,-1
-44.625 374.875 m 1,8,-1
 -44.625 17.375 l 1,9,-1
 44.125 17.375 l 1,10,-1
 44.125 374.875 l 1,11,-1
 -44.625 374.875 l 1,12,-1
 -44.625 374.875 l 1,8,-1
44.125 -71.375 m 1,13,-1
 312.875 -71.375 l 1,14,-1
 312.875 17.375 l 1,15,-1
 44.125 17.375 l 1,16,-1
 44.125 -71.375 l 1,17,-1
 44.125 -71.375 l 1,13,-1
312.875 374.875 m 1,18,-1
 312.875 17.375 l 1,19,-1
 401.625 17.375 l 1,20,-1
 401.625 374.875 l 1,21,-1
 312.875 374.875 l 1,22,-1
 312.875 374.875 l 1,18,-1
EndSplineSet
EndChar

StartChar: ucircumflex
Encoding: 251 251 184
Width: 490
VWidth: 1178
Flags: W
LayerCount: 2
Fore
SplineSet
44.125 553.625 m 1,0,-1
 134.125 553.625 l 1,1,-1
 134.125 464.875 l 1,2,-1
 44.125 464.875 l 1,3,-1
 44.125 553.625 l 1,0,-1
222.875 642.375 m 1,4,-1
 222.875 553.625 l 1,5,-1
 134.125 553.625 l 1,6,-1
 134.125 642.375 l 1,7,-1
 222.875 642.375 l 1,4,-1
312.875 553.625 m 1,8,-1
 312.875 464.875 l 1,9,-1
 222.875 464.875 l 1,10,-1
 222.875 553.625 l 1,11,-1
 312.875 553.625 l 1,8,-1
-44.625 374.875 m 1,12,-1
 44.125 374.875 l 1,13,-1
 44.125 17.375 l 1,14,-1
 -44.625 17.375 l 1,15,-1
 -44.625 374.875 l 1,12,-1
44.125 -71.375 m 1,16,-1
 44.125 17.375 l 1,17,-1
 312.875 17.375 l 1,18,-1
 312.875 -71.375 l 1,19,-1
 44.125 -71.375 l 1,16,-1
312.875 374.875 m 1,20,-1
 401.625 374.875 l 1,21,-1
 401.625 17.375 l 1,22,-1
 312.875 17.375 l 1,23,-1
 312.875 374.875 l 1,20,-1
EndSplineSet
EndChar

StartChar: udieresis
Encoding: 252 252 185
Width: 490
VWidth: 1187
Flags: W
LayerCount: 2
Fore
SplineSet
44.125 562.5 m 1,0,-1
 134.125 562.5 l 1,1,-1
 134.125 473.75 l 1,2,-1
 44.125 473.75 l 1,3,-1
 44.125 562.5 l 1,0,-1
312.875 562.5 m 1,4,-1
 312.875 473.75 l 1,5,-1
 222.875 473.75 l 1,6,-1
 222.875 562.5 l 1,7,-1
 312.875 562.5 l 1,4,-1
-44.625 383.75 m 1,8,-1
 44.125 383.75 l 1,9,-1
 44.125 26.25 l 1,10,-1
 -44.625 26.25 l 1,11,-1
 -44.625 383.75 l 1,8,-1
44.125 -62.5 m 1,12,-1
 44.125 26.25 l 1,13,-1
 312.875 26.25 l 1,14,-1
 312.875 -62.5 l 1,15,-1
 44.125 -62.5 l 1,12,-1
312.875 383.75 m 1,16,-1
 401.625 383.75 l 1,17,-1
 401.625 26.25 l 1,18,-1
 312.875 26.25 l 1,19,-1
 312.875 383.75 l 1,16,-1
EndSplineSet
EndChar

StartChar: yacute
Encoding: 253 253 186
Width: 490
VWidth: 1196
Flags: W
LayerCount: 2
Fore
SplineSet
-44.625 392.75 m 1,0,-1
 -44.625 35.25 l 1,1,-1
 44.125 35.25 l 1,2,-1
 44.125 392.75 l 1,3,-1
 -44.625 392.75 l 1,0,-1
312.875 392.75 m 1,4,-1
 312.875 35.25 l 1,5,-1
 44.125 35.25 l 1,6,-1
 44.125 -53.5 l 1,7,-1
 312.875 -53.5 l 1,8,-1
 312.875 -142.25 l 1,9,-1
 401.625 -142.25 l 1,10,-1
 401.625 392.75 l 1,11,-1
 312.875 392.75 l 1,4,-1
44.125 -232.25 m 1,12,-1
 312.875 -232.25 l 1,13,-1
 312.875 -142.25 l 1,14,-1
 44.125 -142.25 l 1,15,-1
 44.125 -232.25 l 1,12,-1
222.875 571.5 m 1,16,-1
 222.875 482.75 l 1,17,-1
 134.125 482.75 l 1,18,-1
 134.125 571.5 l 1,19,-1
 222.875 571.5 l 1,16,-1
312.875 660.25 m 1,20,-1
 312.875 571.5 l 1,21,-1
 222.875 571.5 l 1,22,-1
 222.875 660.25 l 1,23,-1
 312.875 660.25 l 1,20,-1
EndSplineSet
EndChar

StartChar: thorn
Encoding: 254 254 187
Width: 490
VWidth: 1187
Flags: W
LayerCount: 2
Fore
SplineSet
44.125 295 m 1,0,-1
 44.125 205 l 1,1,-1
 312.875 205 l 1,2,-1
 312.875 116.25 l 1,3,-1
 44.125 116.25 l 1,4,-1
 44.125 -62.5 l 1,5,-1
 -44.625 -62.5 l 1,6,-1
 -44.625 562.5 l 1,7,-1
 44.125 562.5 l 1,8,-1
 44.125 383.75 l 1,9,-1
 312.875 383.75 l 1,10,-1
 312.875 295 l 1,11,-1
 44.125 295 l 1,0,-1
312.875 295 m 1,12,-1
 401.625 295 l 1,13,-1
 401.625 205 l 1,14,-1
 312.875 205 l 1,15,-1
 312.875 295 l 1,12,-1
EndSplineSet
EndChar

StartChar: ydieresis
Encoding: 255 255 188
Width: 490
VWidth: 1205
Flags: W
LayerCount: 2
Fore
SplineSet
44.125 580.375 m 1,0,-1
 134.125 580.375 l 1,1,-1
 134.125 491.625 l 1,2,-1
 44.125 491.625 l 1,3,-1
 44.125 580.375 l 1,0,-1
312.875 580.375 m 1,4,-1
 312.875 491.625 l 1,5,-1
 222.875 491.625 l 1,6,-1
 222.875 580.375 l 1,7,-1
 312.875 580.375 l 1,4,-1
44.125 401.625 m 1,8,-1
 44.125 44.125 l 1,9,-1
 -44.625 44.125 l 1,10,-1
 -44.625 401.625 l 1,11,-1
 44.125 401.625 l 1,8,-1
401.625 401.625 m 1,12,-1
 401.625 -133.375 l 1,13,-1
 312.875 -133.375 l 1,14,-1
 312.875 -44.625 l 1,15,-1
 44.125 -44.625 l 1,16,-1
 44.125 44.125 l 1,17,-1
 312.875 44.125 l 1,18,-1
 312.875 401.625 l 1,19,-1
 401.625 401.625 l 1,12,-1
44.125 -133.375 m 1,20,-1
 312.875 -133.375 l 1,21,-1
 312.875 -223.375 l 1,22,-1
 44.125 -223.375 l 1,23,-1
 44.125 -133.375 l 1,20,-1
EndSplineSet
EndChar

StartChar: dotlessi
Encoding: 305 305 189
Width: 168
VWidth: 1205
Flags: W
LayerCount: 2
Fore
SplineSet
-8.875 -44.625 m 1,0,-1
 -8.875 401.625 l 1,1,-1
 79.875 401.625 l 1,2,-1
 79.875 -44.625 l 1,3,-1
 -8.875 -44.625 l 1,4,-1
 -8.875 -44.625 l 1,0,-1
EndSplineSet
EndChar

StartChar: OE
Encoding: 338 338 190
Width: 812
VWidth: 1187
Flags: W
LayerCount: 2
Fore
SplineSet
277.125 562.5 m 1,0,-1
 277.125 473.75 l 1,1,-1
 8.375 473.75 l 1,2,-1
 8.375 562.5 l 1,3,-1
 277.125 562.5 l 1,0,-1
723.375 -62.5 m 1,4,-1
 365.875 -62.5 l 1,5,-1
 365.875 26.25 l 1,6,-1
 723.375 26.25 l 1,7,-1
 723.375 -62.5 l 1,4,-1
8.375 473.75 m 1,8,-1
 8.375 26.25 l 1,9,-1
 277.125 26.25 l 1,10,-1
 277.125 -62.5 l 1,11,-1
 8.375 -62.5 l 1,12,-1
 8.375 26.25 l 1,13,-1
 -80.375 26.25 l 1,14,-1
 -80.375 473.75 l 1,15,-1
 8.375 473.75 l 1,8,-1
723.375 562.5 m 1,16,-1
 723.375 473.75 l 1,17,-1
 365.875 473.75 l 1,18,-1
 365.875 562.5 l 1,19,-1
 723.375 562.5 l 1,16,-1
277.125 473.75 m 1,20,-1
 365.875 473.75 l 1,21,-1
 365.875 295 l 1,22,-1
 723.375 295 l 1,23,-1
 723.375 205 l 1,24,-1
 365.875 205 l 1,25,-1
 365.875 26.25 l 1,26,-1
 277.125 26.25 l 1,27,-1
 277.125 473.75 l 1,20,-1
EndSplineSet
EndChar

StartChar: oe
Encoding: 339 339 191
Width: 812
VWidth: 1205
Flags: W
LayerCount: 2
Fore
SplineSet
8.375 -44.625 m 1,0,-1
 8.375 44.125 l 1,1,-1
 277.125 44.125 l 1,2,-1
 277.125 -44.625 l 1,3,-1
 8.375 -44.625 l 1,0,-1
-80.375 312.875 m 1,4,-1
 8.375 312.875 l 1,5,-1
 8.375 44.125 l 1,6,-1
 -80.375 44.125 l 1,7,-1
 -80.375 312.875 l 1,4,-1
277.125 401.625 m 1,8,-1
 277.125 312.875 l 1,9,-1
 8.375 312.875 l 1,10,-1
 8.375 401.625 l 1,11,-1
 277.125 401.625 l 1,8,-1
723.375 134.125 m 1,12,-1
 365.875 134.125 l 1,13,-1
 365.875 44.125 l 1,14,-1
 723.375 44.125 l 1,15,-1
 723.375 -44.625 l 1,16,-1
 365.875 -44.625 l 1,17,-1
 365.875 44.125 l 1,18,-1
 277.125 44.125 l 1,19,-1
 277.125 312.875 l 1,20,-1
 365.875 312.875 l 1,21,-1
 365.875 401.625 l 1,22,-1
 633.375 401.625 l 1,23,-1
 633.375 312.875 l 1,24,-1
 365.875 312.875 l 1,25,-1
 365.875 222.875 l 1,26,-1
 633.375 222.875 l 1,27,-1
 633.375 312.875 l 1,28,-1
 723.375 312.875 l 1,29,-1
 723.375 134.125 l 1,12,-1
EndSplineSet
EndChar

StartChar: Scaron
Encoding: 352 352 192
Width: 490
VWidth: 1160
Flags: W
LayerCount: 2
Fore
SplineSet
134.125 803.25 m 1,0,-1
 134.125 714.5 l 1,1,-1
 44.125 714.5 l 1,2,-1
 44.125 803.25 l 1,3,-1
 134.125 803.25 l 1,0,-1
134.125 714.5 m 1,4,-1
 222.875 714.5 l 1,5,-1
 222.875 624.5 l 1,6,-1
 134.125 624.5 l 1,7,-1
 134.125 714.5 l 1,4,-1
312.875 803.25 m 1,8,-1
 312.875 714.5 l 1,9,-1
 222.875 714.5 l 1,10,-1
 222.875 803.25 l 1,11,-1
 312.875 803.25 l 1,8,-1
-44.625 -0.5 m 1,12,-1
 312.875 -0.5 l 1,13,-1
 312.875 -89.25 l 1,14,-1
 -44.625 -89.25 l 1,15,-1
 -44.625 -0.5 l 1,12,-1
312.875 -0.5 m 1,16,-1
 312.875 178.25 l 1,17,-1
 401.625 178.25 l 1,18,-1
 401.625 -0.5 l 1,19,-1
 312.875 -0.5 l 1,16,-1
44.125 178.25 m 1,20,-1
 44.125 268.25 l 1,21,-1
 312.875 268.25 l 1,22,-1
 312.875 178.25 l 1,23,-1
 44.125 178.25 l 1,20,-1
44.125 447 m 1,24,-1
 44.125 268.25 l 1,25,-1
 -44.625 268.25 l 1,26,-1
 -44.625 447 l 1,27,-1
 44.125 447 l 1,24,-1
401.625 447 m 1,28,-1
 44.125 447 l 1,29,-1
 44.125 535.75 l 1,30,-1
 401.625 535.75 l 1,31,-1
 401.625 447 l 1,28,-1
EndSplineSet
EndChar

StartChar: scaron
Encoding: 353 353 193
Width: 490
VWidth: 1178
Flags: W
LayerCount: 2
Fore
SplineSet
44.125 642.375 m 1,0,-1
 134.125 642.375 l 1,1,-1
 134.125 553.625 l 1,2,-1
 44.125 553.625 l 1,3,-1
 44.125 642.375 l 1,0,-1
134.125 464.875 m 1,4,-1
 134.125 553.625 l 1,5,-1
 222.875 553.625 l 1,6,-1
 222.875 464.875 l 1,7,-1
 134.125 464.875 l 1,4,-1
222.875 642.375 m 1,8,-1
 312.875 642.375 l 1,9,-1
 312.875 553.625 l 1,10,-1
 222.875 553.625 l 1,11,-1
 222.875 642.375 l 1,8,-1
-44.625 -71.375 m 1,12,-1
 -44.625 17.375 l 1,13,-1
 312.875 17.375 l 1,14,-1
 312.875 -71.375 l 1,15,-1
 -44.625 -71.375 l 1,12,-1
401.625 17.375 m 1,16,-1
 312.875 17.375 l 1,17,-1
 312.875 107.375 l 1,18,-1
 401.625 107.375 l 1,19,-1
 401.625 17.375 l 1,16,-1
312.875 107.375 m 1,20,-1
 44.125 107.375 l 1,21,-1
 44.125 196.125 l 1,22,-1
 312.875 196.125 l 1,23,-1
 312.875 107.375 l 1,20,-1
-44.625 286.125 m 1,24,-1
 44.125 286.125 l 1,25,-1
 44.125 196.125 l 1,26,-1
 -44.625 196.125 l 1,27,-1
 -44.625 286.125 l 1,24,-1
401.625 374.875 m 1,28,-1
 401.625 286.125 l 1,29,-1
 44.125 286.125 l 1,30,-1
 44.125 374.875 l 1,31,-1
 401.625 374.875 l 1,28,-1
EndSplineSet
EndChar

StartChar: Ydieresis
Encoding: 376 376 194
Width: 490
VWidth: 1169
Flags: W
LayerCount: 2
Fore
SplineSet
44.125 723.375 m 1,0,-1
 134.125 723.375 l 1,1,-1
 134.125 633.375 l 1,2,-1
 44.125 633.375 l 1,3,-1
 44.125 723.375 l 1,0,-1
312.875 723.375 m 1,4,-1
 312.875 633.375 l 1,5,-1
 222.875 633.375 l 1,6,-1
 222.875 723.375 l 1,7,-1
 312.875 723.375 l 1,4,-1
134.125 -80.375 m 1,8,-1
 134.125 187.125 l 1,9,-1
 222.875 187.125 l 1,10,-1
 222.875 -80.375 l 1,11,-1
 134.125 -80.375 l 1,8,-1
44.125 277.125 m 1,12,-1
 134.125 277.125 l 1,13,-1
 134.125 187.125 l 1,14,-1
 44.125 187.125 l 1,15,-1
 44.125 277.125 l 1,12,-1
-44.625 544.625 m 1,16,-1
 44.125 544.625 l 1,17,-1
 44.125 277.125 l 1,18,-1
 -44.625 277.125 l 1,19,-1
 -44.625 544.625 l 1,16,-1
222.875 187.125 m 1,20,-1
 222.875 277.125 l 1,21,-1
 312.875 277.125 l 1,22,-1
 312.875 187.125 l 1,23,-1
 222.875 187.125 l 1,20,-1
312.875 544.625 m 1,24,-1
 401.625 544.625 l 1,25,-1
 401.625 277.125 l 1,26,-1
 312.875 277.125 l 1,27,-1
 312.875 544.625 l 1,24,-1
EndSplineSet
EndChar

StartChar: Zcaron
Encoding: 381 381 195
Width: 490
VWidth: 1160
Flags: W
LayerCount: 2
Fore
SplineSet
-44.625 -89.25 m 1,0,-1
 -44.625 89.5 l 1,1,-1
 44.125 89.5 l 1,2,-1
 44.125 -0.5 l 1,3,-1
 401.625 -0.5 l 1,4,-1
 401.625 -89.25 l 1,5,-1
 -44.625 -89.25 l 1,0,-1
44.125 89.5 m 1,6,-1
 44.125 178.25 l 1,7,-1
 134.125 178.25 l 1,8,-1
 134.125 89.5 l 1,9,-1
 44.125 89.5 l 1,6,-1
134.125 178.25 m 1,10,-1
 134.125 268.25 l 1,11,-1
 222.875 268.25 l 1,12,-1
 222.875 178.25 l 1,13,-1
 134.125 178.25 l 1,10,-1
222.875 268.25 m 1,14,-1
 222.875 357 l 1,15,-1
 312.875 357 l 1,16,-1
 312.875 268.25 l 1,17,-1
 222.875 268.25 l 1,14,-1
-44.625 535.75 m 1,18,-1
 401.625 535.75 l 1,19,-1
 401.625 357 l 1,20,-1
 312.875 357 l 1,21,-1
 312.875 447 l 1,22,-1
 -44.625 447 l 1,23,-1
 -44.625 535.75 l 1,18,-1
44.125 803.25 m 1,24,-1
 134.125 803.25 l 1,25,-1
 134.125 714.5 l 1,26,-1
 44.125 714.5 l 1,27,-1
 44.125 803.25 l 1,24,-1
134.125 624.5 m 1,28,-1
 134.125 714.5 l 1,29,-1
 222.875 714.5 l 1,30,-1
 222.875 624.5 l 1,31,-1
 134.125 624.5 l 1,28,-1
222.875 803.25 m 1,32,-1
 312.875 803.25 l 1,33,-1
 312.875 714.5 l 1,34,-1
 222.875 714.5 l 1,35,-1
 222.875 803.25 l 1,32,-1
EndSplineSet
EndChar

StartChar: zcaron
Encoding: 382 382 196
Width: 490
VWidth: 1178
Flags: W
LayerCount: 2
Fore
SplineSet
44.125 642.375 m 1,0,-1
 134.125 642.375 l 1,1,-1
 134.125 553.625 l 1,2,-1
 44.125 553.625 l 1,3,-1
 44.125 642.375 l 1,0,-1
134.125 464.875 m 1,4,-1
 134.125 553.625 l 1,5,-1
 222.875 553.625 l 1,6,-1
 222.875 464.875 l 1,7,-1
 134.125 464.875 l 1,4,-1
222.875 642.375 m 1,8,-1
 312.875 642.375 l 1,9,-1
 312.875 553.625 l 1,10,-1
 222.875 553.625 l 1,11,-1
 222.875 642.375 l 1,8,-1
44.125 107.375 m 1,12,-1
 134.125 107.375 l 1,13,-1
 134.125 17.375 l 1,14,-1
 401.625 17.375 l 1,15,-1
 401.625 -71.375 l 1,16,-1
 -44.625 -71.375 l 1,17,-1
 -44.625 17.375 l 1,18,-1
 44.125 17.375 l 1,19,-1
 44.125 107.375 l 1,12,-1
222.875 196.125 m 1,20,-1
 222.875 107.375 l 1,21,-1
 134.125 107.375 l 1,22,-1
 134.125 196.125 l 1,23,-1
 222.875 196.125 l 1,20,-1
312.875 286.125 m 1,24,-1
 312.875 196.125 l 1,25,-1
 222.875 196.125 l 1,26,-1
 222.875 286.125 l 1,27,-1
 -44.625 286.125 l 1,28,-1
 -44.625 374.875 l 1,29,-1
 401.625 374.875 l 1,30,-1
 401.625 286.125 l 1,31,-1
 312.875 286.125 l 1,24,-1
EndSplineSet
EndChar

StartChar: florin
Encoding: 402 402 197
Width: 490
VWidth: 1196
Flags: W
LayerCount: 2
Fore
SplineSet
44.125 -53.625 m 1,0,-1
 44.125 482.625 l 1,1,-1
 134.125 482.625 l 1,2,-1
 134.125 303.875 l 1,3,-1
 312.875 303.875 l 1,4,-1
 312.875 213.875 l 1,5,-1
 134.125 213.875 l 1,6,-1
 134.125 -53.625 l 1,7,-1
 44.125 -53.625 l 1,8,-1
 44.125 -142.375 l 1,9,-1
 -44.625 -142.375 l 1,10,-1
 -44.625 -53.625 l 1,11,-1
 44.125 -53.625 l 1,0,-1
312.875 482.625 m 1,12,-1
 401.625 482.625 l 1,13,-1
 401.625 392.625 l 1,14,-1
 312.875 392.625 l 1,15,-1
 312.875 482.625 l 1,12,-1
134.125 571.375 m 1,16,-1
 312.875 571.375 l 1,17,-1
 312.875 482.625 l 1,18,-1
 134.125 482.625 l 1,19,-1
 134.125 571.375 l 1,16,-1
EndSplineSet
EndChar

StartChar: circumflex
Encoding: 710 710 198
Width: 329
VWidth: 1089
Flags: W
LayerCount: 2
Fore
SplineSet
-26.75 553.125 m 1,0,-1
 -26.75 643.125 l 1,1,-1
 62 643.125 l 1,2,-1
 62 553.125 l 1,3,-1
 -26.75 553.125 l 1,0,-1
62 731.875 m 1,4,-1
 152 731.875 l 1,5,-1
 152 643.125 l 1,6,-1
 62 643.125 l 1,7,-1
 62 731.875 l 1,4,-1
152 643.125 m 1,8,-1
 240.75 643.125 l 1,9,-1
 240.75 553.125 l 1,10,-1
 152 553.125 l 1,11,-1
 152 643.125 l 1,8,-1
EndSplineSet
EndChar

StartChar: tilde
Encoding: 732 732 199
Width: 329
VWidth: 1098
Flags: W
LayerCount: 2
Fore
SplineSet
240.75 562 m 1,0,-1
 -26.75 562 l 1,1,-1
 -26.75 652 l 1,2,-1
 240.75 652 l 1,3,-1
 240.75 562 l 1,4,-1
 240.75 562 l 1,0,-1
EndSplineSet
EndChar

StartChar: endash
Encoding: 8211 8211 200
Width: 329
VWidth: 1205
Flags: W
LayerCount: 2
Fore
SplineSet
240.75 134.125 m 1,0,-1
 -26.75 134.125 l 1,1,-1
 -26.75 222.875 l 1,2,-1
 240.75 222.875 l 1,3,-1
 240.75 134.125 l 1,4,-1
 240.75 134.125 l 1,0,-1
EndSplineSet
EndChar

StartChar: emdash
Encoding: 8212 8212 201
Width: 490
VWidth: 1205
Flags: W
LayerCount: 2
Fore
SplineSet
401.625 134.125 m 1,0,-1
 -44.625 134.125 l 1,1,-1
 -44.625 222.875 l 1,2,-1
 401.625 222.875 l 1,3,-1
 401.625 134.125 l 1,4,-1
 401.625 134.125 l 1,0,-1
EndSplineSet
EndChar

StartChar: quoteleft
Encoding: 8216 8216 202
Width: 249
VWidth: 1142
Flags: W
LayerCount: 2
Fore
SplineSet
70.875 517.875 m 1,0,-1
 160.875 517.875 l 1,1,-1
 160.875 429.125 l 1,2,-1
 70.875 429.125 l 1,3,-1
 70.875 339.125 l 1,4,-1
 -17.875 339.125 l 1,5,-1
 -17.875 429.125 l 1,6,-1
 70.875 429.125 l 1,7,-1
 70.875 517.875 l 1,8,-1
 70.875 517.875 l 1,0,-1
EndSplineSet
EndChar

StartChar: quoteright
Encoding: 8217 8217 203
Width: 249
VWidth: 1142
Flags: W
LayerCount: 2
Fore
SplineSet
70.875 517.875 m 1,0,-1
 160.875 517.875 l 1,1,-1
 160.875 429.125 l 1,2,-1
 70.875 429.125 l 1,3,-1
 70.875 339.125 l 1,4,-1
 -17.875 339.125 l 1,5,-1
 -17.875 429.125 l 1,6,-1
 70.875 429.125 l 1,7,-1
 70.875 517.875 l 1,8,-1
 70.875 517.875 l 1,0,-1
EndSplineSet
EndChar

StartChar: quotesinglbase
Encoding: 8218 8218 204
Width: 249
VWidth: 1232
Flags: W
LayerCount: 2
Fore
SplineSet
70.875 160.875 m 1,0,-1
 160.875 160.875 l 1,1,-1
 160.875 70.875 l 1,2,-1
 70.875 70.875 l 1,3,-1
 70.875 -17.875 l 1,4,-1
 -17.875 -17.875 l 1,5,-1
 -17.875 70.875 l 1,6,-1
 70.875 70.875 l 1,7,-1
 70.875 160.875 l 1,8,-1
 70.875 160.875 l 1,0,-1
EndSplineSet
EndChar

StartChar: quotedblleft
Encoding: 8220 8220 205
Width: 410
VWidth: 1142
Flags: W
LayerCount: 2
Fore
SplineSet
143 517.875 m 1,0,-1
 143 429.125 l 1,1,-1
 231.75 429.125 l 1,2,-1
 231.75 339.125 l 1,3,-1
 143 339.125 l 1,4,-1
 143 429.125 l 1,5,-1
 53 429.125 l 1,6,-1
 53 517.875 l 1,7,-1
 143 517.875 l 1,0,-1
-35.75 339.125 m 1,8,-1
 -35.75 429.125 l 1,9,-1
 53 429.125 l 1,10,-1
 53 339.125 l 1,11,-1
 -35.75 339.125 l 1,8,-1
231.75 517.875 m 1,12,-1
 321.75 517.875 l 1,13,-1
 321.75 429.125 l 1,14,-1
 231.75 429.125 l 1,15,-1
 231.75 517.875 l 1,12,-1
EndSplineSet
EndChar

StartChar: quotedblright
Encoding: 8221 8221 206
Width: 410
VWidth: 1142
Flags: W
LayerCount: 2
Fore
SplineSet
143 517.875 m 1,0,-1
 143 429.125 l 1,1,-1
 231.75 429.125 l 1,2,-1
 231.75 339.125 l 1,3,-1
 143 339.125 l 1,4,-1
 143 429.125 l 1,5,-1
 53 429.125 l 1,6,-1
 53 517.875 l 1,7,-1
 143 517.875 l 1,0,-1
-35.75 339.125 m 1,8,-1
 -35.75 429.125 l 1,9,-1
 53 429.125 l 1,10,-1
 53 339.125 l 1,11,-1
 -35.75 339.125 l 1,8,-1
231.75 517.875 m 1,12,-1
 321.75 517.875 l 1,13,-1
 321.75 429.125 l 1,14,-1
 231.75 429.125 l 1,15,-1
 231.75 517.875 l 1,12,-1
EndSplineSet
EndChar

StartChar: quotedblbase
Encoding: 8222 8222 207
Width: 410
VWidth: 1232
Flags: W
LayerCount: 2
Fore
SplineSet
143 160.875 m 1,0,-1
 143 70.875 l 1,1,-1
 231.75 70.875 l 1,2,-1
 231.75 -17.875 l 1,3,-1
 143 -17.875 l 1,4,-1
 143 70.875 l 1,5,-1
 53 70.875 l 1,6,-1
 53 160.875 l 1,7,-1
 143 160.875 l 1,0,-1
-35.75 -17.875 m 1,8,-1
 -35.75 70.875 l 1,9,-1
 53 70.875 l 1,10,-1
 53 -17.875 l 1,11,-1
 -35.75 -17.875 l 1,8,-1
231.75 160.875 m 1,12,-1
 321.75 160.875 l 1,13,-1
 321.75 70.875 l 1,14,-1
 231.75 70.875 l 1,15,-1
 231.75 160.875 l 1,12,-1
EndSplineSet
EndChar

StartChar: dagger
Encoding: 8224 8224 208
Width: 329
VWidth: 1205
Flags: W
LayerCount: 2
Fore
SplineSet
240.75 312.875 m 1,0,-1
 152 312.875 l 1,1,-1
 152 -223.375 l 1,2,-1
 62 -223.375 l 1,3,-1
 62 312.875 l 1,4,-1
 -26.75 312.875 l 1,5,-1
 -26.75 401.625 l 1,6,-1
 62 401.625 l 1,7,-1
 62 580.375 l 1,8,-1
 152 580.375 l 1,9,-1
 152 401.625 l 1,10,-1
 240.75 401.625 l 1,11,-1
 240.75 312.875 l 1,12,-1
 240.75 312.875 l 1,0,-1
EndSplineSet
EndChar

StartChar: daggerdbl
Encoding: 8225 8225 209
Width: 329
VWidth: 1205
Flags: W
LayerCount: 2
Fore
SplineSet
240.75 312.875 m 1,0,-1
 152 312.875 l 1,1,-1
 152 44.125 l 1,2,-1
 240.75 44.125 l 1,3,-1
 240.75 -44.625 l 1,4,-1
 152 -44.625 l 1,5,-1
 152 -223.375 l 1,6,-1
 62 -223.375 l 1,7,-1
 62 -44.625 l 1,8,-1
 -26.75 -44.625 l 1,9,-1
 -26.75 44.125 l 1,10,-1
 62 44.125 l 1,11,-1
 62 312.875 l 1,12,-1
 -26.75 312.875 l 1,13,-1
 -26.75 401.625 l 1,14,-1
 62 401.625 l 1,15,-1
 62 580.375 l 1,16,-1
 152 580.375 l 1,17,-1
 152 401.625 l 1,18,-1
 240.75 401.625 l 1,19,-1
 240.75 312.875 l 1,20,-1
 240.75 312.875 l 1,0,-1
EndSplineSet
EndChar

StartChar: bullet
Encoding: 8226 8226 210
Width: 329
VWidth: 1205
Flags: W
LayerCount: 2
Fore
SplineSet
240.75 44.125 m 1,0,-1
 -26.75 44.125 l 1,1,-1
 -26.75 312.875 l 1,2,-1
 240.75 312.875 l 1,3,-1
 240.75 44.125 l 1,4,-1
 240.75 44.125 l 1,0,-1
EndSplineSet
EndChar

StartChar: ellipsis
Encoding: 8230 8230 211
Width: 490
VWidth: 1241
Flags: W
LayerCount: 2
Fore
SplineSet
-44.625 -8.875 m 1,0,-1
 -44.625 79.875 l 1,1,-1
 44.125 79.875 l 1,2,-1
 44.125 -8.875 l 1,3,-1
 -44.625 -8.875 l 1,0,-1
134.125 -8.875 m 1,4,-1
 134.125 79.875 l 1,5,-1
 222.875 79.875 l 1,6,-1
 222.875 -8.875 l 1,7,-1
 134.125 -8.875 l 1,4,-1
312.875 79.875 m 1,8,-1
 401.625 79.875 l 1,9,-1
 401.625 -8.875 l 1,10,-1
 312.875 -8.875 l 1,11,-1
 312.875 79.875 l 1,8,-1
EndSplineSet
EndChar

StartChar: perthousand
Encoding: 8240 8240 212
Width: 1293
VWidth: 1178
Flags: W
LayerCount: 2
Fore
SplineSet
669.875 642.375 m 1,0,-1
 669.875 553.625 l 1,1,-1
 579.875 553.625 l 1,2,-1
 579.875 642.375 l 1,3,-1
 669.875 642.375 l 1,0,-1
223.625 196.125 m 1,4,-1
 223.625 286.125 l 1,5,-1
 312.375 286.125 l 1,6,-1
 312.375 196.125 l 1,7,-1
 223.625 196.125 l 1,4,-1
44.875 17.375 m 1,8,-1
 44.875 107.375 l 1,9,-1
 133.625 107.375 l 1,10,-1
 133.625 17.375 l 1,11,-1
 44.875 17.375 l 1,8,-1
133.625 107.375 m 1,12,-1
 133.625 196.125 l 1,13,-1
 223.625 196.125 l 1,14,-1
 223.625 107.375 l 1,15,-1
 133.625 107.375 l 1,12,-1
-45.125 -71.375 m 1,16,-1
 -45.125 17.375 l 1,17,-1
 44.875 17.375 l 1,18,-1
 44.875 -71.375 l 1,19,-1
 -45.125 -71.375 l 1,16,-1
133.625 642.375 m 1,20,-1
 133.625 553.625 l 1,21,-1
 -45.125 553.625 l 1,22,-1
 -45.125 642.375 l 1,23,-1
 133.625 642.375 l 1,20,-1
223.625 374.875 m 1,24,-1
 133.625 374.875 l 1,25,-1
 133.625 553.625 l 1,26,-1
 223.625 553.625 l 1,27,-1
 223.625 374.875 l 1,24,-1
-45.125 286.125 m 1,28,-1
 -45.125 374.875 l 1,29,-1
 133.625 374.875 l 1,30,-1
 133.625 286.125 l 1,31,-1
 -45.125 286.125 l 1,28,-1
-45.125 553.625 m 1,32,-1
 -45.125 374.875 l 1,33,-1
 -133.875 374.875 l 1,34,-1
 -133.875 553.625 l 1,35,-1
 -45.125 553.625 l 1,32,-1
402.375 196.125 m 1,36,-1
 491.125 196.125 l 1,37,-1
 491.125 17.375 l 1,38,-1
 402.375 17.375 l 1,39,-1
 402.375 196.125 l 1,36,-1
669.875 286.125 m 1,40,-1
 669.875 196.125 l 1,41,-1
 491.125 196.125 l 1,42,-1
 491.125 286.125 l 1,43,-1
 669.875 286.125 l 1,40,-1
669.875 17.375 m 1,44,-1
 669.875 196.125 l 1,45,-1
 758.625 196.125 l 1,46,-1
 758.625 17.375 l 1,47,-1
 669.875 17.375 l 1,44,-1
579.875 553.625 m 1,48,-1
 579.875 464.875 l 1,49,-1
 491.125 464.875 l 1,50,-1
 491.125 553.625 l 1,51,-1
 579.875 553.625 l 1,48,-1
491.125 -71.375 m 1,52,-1
 491.125 17.375 l 1,53,-1
 669.875 17.375 l 1,54,-1
 669.875 -71.375 l 1,55,-1
 491.125 -71.375 l 1,52,-1
491.125 464.875 m 1,56,-1
 491.125 374.875 l 1,57,-1
 402.375 374.875 l 1,58,-1
 402.375 464.875 l 1,59,-1
 491.125 464.875 l 1,56,-1
402.375 374.875 m 1,60,-1
 402.375 286.125 l 1,61,-1
 312.375 286.125 l 1,62,-1
 312.375 374.875 l 1,63,-1
 402.375 374.875 l 1,60,-1
848.625 196.125 m 1,64,-1
 937.375 196.125 l 1,65,-1
 937.375 17.375 l 1,66,-1
 848.625 17.375 l 1,67,-1
 848.625 196.125 l 1,64,-1
937.375 -71.375 m 1,68,-1
 937.375 17.375 l 1,69,-1
 1116.125 17.375 l 1,70,-1
 1116.125 -71.375 l 1,71,-1
 937.375 -71.375 l 1,68,-1
1116.125 196.125 m 1,72,-1
 1204.875 196.125 l 1,73,-1
 1204.875 17.375 l 1,74,-1
 1116.125 17.375 l 1,75,-1
 1116.125 196.125 l 1,72,-1
1116.125 286.125 m 1,76,-1
 1116.125 196.125 l 1,77,-1
 937.375 196.125 l 1,78,-1
 937.375 286.125 l 1,79,-1
 1116.125 286.125 l 1,76,-1
EndSplineSet
EndChar

StartChar: guilsinglleft
Encoding: 8249 8249 213
Width: 329
VWidth: 1187
Flags: W
LayerCount: 2
Fore
SplineSet
240.75 26.25 m 1,0,-1
 152 26.25 l 1,1,-1
 152 116.25 l 1,2,-1
 240.75 116.25 l 1,3,-1
 240.75 26.25 l 1,0,-1
152 116.25 m 1,4,-1
 62 116.25 l 1,5,-1
 62 205 l 1,6,-1
 152 205 l 1,7,-1
 152 116.25 l 1,4,-1
-26.75 295 m 1,8,-1
 62 295 l 1,9,-1
 62 205 l 1,10,-1
 -26.75 205 l 1,11,-1
 -26.75 295 l 1,8,-1
152 383.75 m 1,12,-1
 152 295 l 1,13,-1
 62 295 l 1,14,-1
 62 383.75 l 1,15,-1
 152 383.75 l 1,12,-1
240.75 473.75 m 1,16,-1
 240.75 383.75 l 1,17,-1
 152 383.75 l 1,18,-1
 152 473.75 l 1,19,-1
 240.75 473.75 l 1,16,-1
EndSplineSet
EndChar

StartChar: guilsinglright
Encoding: 8250 8250 214
Width: 329
VWidth: 1187
Flags: W
LayerCount: 2
Fore
SplineSet
-26.75 473.75 m 1,0,-1
 62 473.75 l 1,1,-1
 62 383.75 l 1,2,-1
 -26.75 383.75 l 1,3,-1
 -26.75 473.75 l 1,0,-1
62 383.75 m 1,4,-1
 152 383.75 l 1,5,-1
 152 295 l 1,6,-1
 62 295 l 1,7,-1
 62 383.75 l 1,4,-1
240.75 205 m 1,8,-1
 152 205 l 1,9,-1
 152 295 l 1,10,-1
 240.75 295 l 1,11,-1
 240.75 205 l 1,8,-1
62 116.25 m 1,12,-1
 62 205 l 1,13,-1
 152 205 l 1,14,-1
 152 116.25 l 1,15,-1
 62 116.25 l 1,12,-1
-26.75 26.25 m 1,16,-1
 -26.75 116.25 l 1,17,-1
 62 116.25 l 1,18,-1
 62 26.25 l 1,19,-1
 -26.75 26.25 l 1,16,-1
EndSplineSet
EndChar

StartChar: Euro
Encoding: 8364 8364 215
Width: 571
VWidth: 1187
Flags: W
LayerCount: 2
Fore
SplineSet
35.125 473.75 m 1,0,-1
 125.125 473.75 l 1,1,-1
 125.125 383.75 l 1,2,-1
 303.875 383.75 l 1,3,-1
 303.875 295 l 1,4,-1
 125.125 295 l 1,5,-1
 125.125 205 l 1,6,-1
 303.875 205 l 1,7,-1
 303.875 116.25 l 1,8,-1
 125.125 116.25 l 1,9,-1
 125.125 26.25 l 1,10,-1
 35.125 26.25 l 1,11,-1
 35.125 116.25 l 1,12,-1
 -53.625 116.25 l 1,13,-1
 -53.625 205 l 1,14,-1
 35.125 205 l 1,15,-1
 35.125 295 l 1,16,-1
 -53.625 295 l 1,17,-1
 -53.625 383.75 l 1,18,-1
 35.125 383.75 l 1,19,-1
 35.125 473.75 l 1,0,-1
482.625 562.5 m 1,20,-1
 482.625 473.75 l 1,21,-1
 125.125 473.75 l 1,22,-1
 125.125 562.5 l 1,23,-1
 482.625 562.5 l 1,20,-1
482.625 -62.5 m 1,24,-1
 125.125 -62.5 l 1,25,-1
 125.125 26.25 l 1,26,-1
 482.625 26.25 l 1,27,-1
 482.625 -62.5 l 1,24,-1
EndSplineSet
EndChar

StartChar: trademark
Encoding: 8482 8482 216
Width: 973
VWidth: 1160
Flags: W
LayerCount: 2
Fore
SplineSet
-98.25 535.75 m 1,0,-1
 348 535.75 l 1,1,-1
 348 447 l 1,2,-1
 169.25 447 l 1,3,-1
 169.25 178.25 l 1,4,-1
 80.5 178.25 l 1,5,-1
 80.5 447 l 1,6,-1
 -98.25 447 l 1,7,-1
 -98.25 535.75 l 1,0,-1
526.75 447 m 1,8,-1
 615.5 447 l 1,9,-1
 615.5 357 l 1,10,-1
 526.75 357 l 1,11,-1
 526.75 178.25 l 1,12,-1
 438 178.25 l 1,13,-1
 438 535.75 l 1,14,-1
 526.75 535.75 l 1,15,-1
 526.75 447 l 1,8,-1
615.5 268.25 m 1,16,-1
 615.5 357 l 1,17,-1
 705.5 357 l 1,18,-1
 705.5 268.25 l 1,19,-1
 615.5 268.25 l 1,16,-1
794.25 535.75 m 1,20,-1
 884.25 535.75 l 1,21,-1
 884.25 178.25 l 1,22,-1
 794.25 178.25 l 1,23,-1
 794.25 357 l 1,24,-1
 705.5 357 l 1,25,-1
 705.5 447 l 1,26,-1
 794.25 447 l 1,27,-1
 794.25 535.75 l 1,20,-1
EndSplineSet
EndChar

StartChar: numbersign
Encoding: 35 35 217
Width: 490
VWidth: 1187
Flags: W
LayerCount: 2
Fore
SplineSet
401.625 295 m 1,0,-1
 312.875 295 l 1,1,-1
 312.875 205 l 1,2,-1
 401.625 205 l 1,3,-1
 401.625 116.25 l 1,4,-1
 312.875 116.25 l 1,5,-1
 312.875 26.25 l 1,6,-1
 222.875 26.25 l 1,7,-1
 222.875 116.25 l 1,8,-1
 134.125 116.25 l 1,9,-1
 134.125 26.25 l 1,10,-1
 44.125 26.25 l 1,11,-1
 44.125 116.25 l 1,12,-1
 -44.625 116.25 l 1,13,-1
 -44.625 205 l 1,14,-1
 44.125 205 l 1,15,-1
 44.125 295 l 1,16,-1
 -44.625 295 l 1,17,-1
 -44.625 383.75 l 1,18,-1
 44.125 383.75 l 1,19,-1
 44.125 473.75 l 1,20,-1
 134.125 473.75 l 1,21,-1
 134.125 383.75 l 1,22,-1
 222.875 383.75 l 1,23,-1
 222.875 473.75 l 1,24,-1
 312.875 473.75 l 1,25,-1
 312.875 383.75 l 1,26,-1
 401.625 383.75 l 1,27,-1
 401.625 295 l 1,0,-1
222.875 205 m 1,28,-1
 222.875 295 l 1,29,-1
 134.125 295 l 1,30,-1
 134.125 205 l 1,31,-1
 222.875 205 l 1,28,-1
EndSplineSet
EndChar

StartChar: exclam
Encoding: 33 33 218
Width: 168
VWidth: 1187
Flags: W
LayerCount: 2
Fore
SplineSet
-8.875 561.5 m 1,0,-1
 79.875 561.5 l 1,1,-1
 79.875 115.25 l 1,2,-1
 -8.875 115.25 l 1,3,-1
 -8.875 561.5 l 1,0,-1
-8.875 -63.5 m 1,4,-1
 -8.875 26.5 l 1,5,-1
 79.875 26.5 l 1,6,-1
 79.875 -63.5 l 1,7,-1
 -8.875 -63.5 l 1,4,-1
EndSplineSet
EndChar

StartChar: quotedbl
Encoding: 34 34 219
Width: 329
VWidth: 1142
Flags: W
LayerCount: 2
Fore
SplineSet
-26.75 339.125 m 1,0,-1
 -26.75 517.875 l 1,1,-1
 62 517.875 l 1,2,-1
 62 339.125 l 1,3,-1
 -26.75 339.125 l 1,0,-1
152 517.875 m 1,4,-1
 240.75 517.875 l 1,5,-1
 240.75 339.125 l 1,6,-1
 152 339.125 l 1,7,-1
 152 517.875 l 1,4,-1
EndSplineSet
EndChar
